<svg style="opacity:0.4" xmlns="http://www.w3.org/2000/svg" viewBox="0 0 800 520"><g class="male"><path fill="#8b8b8b" d="M77 92h7v148h-7z"/><path fill="#616161" d="M84 81h7v159h-7zM91 72h7v170h-7zM98 66h7v178h-7zM105 66h7v174h-7z"/><path fill="#8b8b8b" d="M112 45h7v189h-7z"/><path fill="#616161" d="M119 50h7v188h-7zM126 58h7v182h-7zM133 40h7v198h-7zM140 68h7v172h-7z"/><path fill="#8b8b8b" d="M147 9h7v221h-7z"/><path fill="#616161" d="M154 57h7v180h-7zM161 31h7v203h-7zM168 63h7v179h-7zM175 54h7v185h-7z"/><path fill="#8b8b8b" d="M182 45h7v186h-7z"/><path fill="#616161" d="M189 56h7v177h-7zM196 81h7v151h-7zM203 25h7v198h-7zM210 89h7v153h-7z"/><path fill="#8b8b8b" d="M217 27h7v214h-7z"/><path fill="#616161" d="M224 94h7v145h-7zM231 65h7v170h-7zM238 107h7v145h-7zM245 101h7v150h-7z"/><path fill="#8b8b8b" d="M252 36h7v206h-7z"/><path fill="#616161" d="M259 97h7v149h-7zM266 124h7v125h-7zM273 91h7v164h-7zM280 141h7v112h-7z"/><path fill="#8b8b8b" d="M287 16h7v226h-7z"/><path fill="#616161" d="M294 145h7v102h-7zM301 120h7v135h-7zM308 162h7v93h-7zM315 148h7v107h-7z"/><path fill="#8b8b8b" d="M322 25h7v205h-7z"/><path fill="#616161" d="M329 132h7v119h-7zM336 166h7v89h-7zM343 131h7v124h-7zM350 164h7v89h-7z"/><path fill="#8b8b8b" d="M357 23h7v204h-7z"/><path fill="#616161" d="M364 161h7v83h-7zM371 150h7v100h-7zM378 187h7v68h-7zM385 180h7v73h-7z"/><path fill="#8b8b8b" d="M392 61h7v171h-7z"/><path fill="#616161" d="M399 167h7v80h-7zM406 193h7v60h-7zM413 170h7v85h-7zM420 192h7v57h-7z"/><path fill="#8b8b8b" d="M427 81h7v154h-7z"/><path fill="#616161" d="M434 189h7v55h-7zM441 193h7v56h-7zM448 212h7v43h-7zM455 205h7v48h-7z"/><path fill="#8b8b8b" d="M462 136h7v119h-7z"/><path fill="#616161" d="M469 199h7v52h-7zM476 219h7v35h-7zM483 208h7v47h-7zM490 215h7v39h-7z"/><path fill="#8b8b8b" d="M497 122h7v133h-7z"/><path fill="#616161" d="M504 208h7v45h-7zM511 211h7v44h-7zM518 225h7v30h-7zM525 223h7v31h-7z"/><path fill="#8b8b8b" d="M532 159h7v96h-7z"/><path fill="#616161" d="M539 220h7v34h-7zM546 234h7v19h-7zM553 230h7v25h-7zM560 234h7v21h-7z"/><path fill="#8b8b8b" d="M567 172h7v83h-7z"/><path fill="#616161" d="M574 231h7v23h-7zM581 237h7v16h-7zM588 244h7v10h-7zM595 243h7v11h-7z"/><path fill="#8b8b8b" d="M602 220h7v35h-7z"/><path fill="#616161" d="M609 242h7v13h-7zM616 248h7v6h-7zM623 247h7v8h-7zM630 248h7v7h-7z"/><path fill="#8b8b8b" d="M637 229h7v26h-7z"/><path fill="#616161" d="M644 247h7v8h-7zM651 250h7v5h-7zM658 252h7v3h-7zM665 252h7v3h-7z"/><path fill="#8b8b8b" d="M672 246h7v9h-7z"/><path fill="#616161" d="M679 252h7v3h-7zM686 253h7v2h-7zM693 253h7v2h-7zM700 253h7v2h-7z"/><path fill="#8b8b8b" d="M707 249h7v6h-7z"/><path fill="#616161" d="M714 253h7v2h-7zM721 254h7v1h-7zM728 254h7v1h-7zM735 254h7v1h-7z"/><path fill="#8b8b8b" d="M742 253h7v2h-7z"/><path fill="#616161" d="M749 254h7v1h-7zM756 254h7v1h-7zM763 254h7v1h-7z"/><path fill="#8b8b8b" d="M777 251h7v4h-7z"/></g><g class="female"><path fill="#8b8b8b" d="M77 255h7v148h-7z"/><path fill="#616161" d="M84 255h7v159h-7zM91 255h7v170h-7zM98 255h7v178h-7zM105 255h7v174h-7z"/><path fill="#8b8b8b" d="M112 255h7v189h-7z"/><path fill="#616161" d="M119 255h7v188h-7zM126 255h7v182h-7zM133 255h7v198h-7zM140 255h7v172h-7z"/><path fill="#8b8b8b" d="M147 255h7v221h-7z"/><path fill="#616161" d="M154 255h7v180h-7zM161 255h7v203h-7zM168 255h7v179h-7zM175 255h7v185h-7z"/><path fill="#8b8b8b" d="M182 255h7v186h-7z"/><path fill="#616161" d="M189 255h7v177h-7zM196 255h7v151h-7zM203 255h7v198h-7zM210 255h7v153h-7z"/><path fill="#8b8b8b" d="M217 255h7v214h-7z"/><path fill="#616161" d="M224 255h7v145h-7zM231 255h7v170h-7zM238 255h7v145h-7zM245 255h7v150h-7z"/><path fill="#8b8b8b" d="M252 255h7v206h-7z"/><path fill="#616161" d="M259 255h7v149h-7zM266 255h7v125h-7zM273 266h7v175h-7zM280 255h7v112h-7z"/><path fill="#8b8b8b" d="M287 255h7v226h-7z"/><path fill="#616161" d="M294 255h7v102h-7zM301 255h7v135h-7zM308 263h7v102h-7zM315 256h7v108h-7z"/><path fill="#8b8b8b" d="M322 255h7v205h-7z"/><path fill="#616161" d="M329 255h7v119h-7zM336 257h7v90h-7zM343 275h7v144h-7zM350 255h7v89h-7z"/><path fill="#8b8b8b" d="M357 255h7v204h-7z"/><path fill="#616161" d="M364 255h7v83h-7zM371 255h7v100h-7zM378 261h7v74h-7zM385 255h7v73h-7z"/><path fill="#8b8b8b" d="M392 255h7v171h-7z"/><path fill="#616161" d="M399 255h7v80h-7zM406 255h7v60h-7zM413 263h7v93h-7zM420 255h7v57h-7z"/><path fill="#8b8b8b" d="M427 255h7v154h-7z"/><path fill="#616161" d="M434 255h7v55h-7zM441 255h7v56h-7zM448 255h7v43h-7zM455 255h7v48h-7z"/><path fill="#8b8b8b" d="M462 256h7v120h-7z"/><path fill="#616161" d="M469 255h7v52h-7zM476 255h7v35h-7zM483 264h7v56h-7zM490 255h7v39h-7z"/><path fill="#8b8b8b" d="M497 262h7v140h-7z"/><path fill="#616161" d="M504 255h7v45h-7zM511 255h7v44h-7zM518 256h7v31h-7zM525 255h7v31h-7z"/><path fill="#8b8b8b" d="M532 262h7v103h-7z"/><path fill="#616161" d="M539 255h7v34h-7zM546 255h7v19h-7zM553 259h7v29h-7zM560 255h7v21h-7z"/><path fill="#8b8b8b" d="M567 258h7v86h-7z"/><path fill="#616161" d="M574 255h7v23h-7zM581 255h7v16h-7zM588 255h7v10h-7zM595 255h7v11h-7z"/><path fill="#8b8b8b" d="M602 258h7v38h-7z"/><path fill="#616161" d="M609 255h7v13h-7zM616 255h7v6h-7zM623 256h7v9h-7zM630 255h7v7h-7z"/><path fill="#8b8b8b" d="M637 260h7v32h-7z"/><path fill="#616161" d="M644 256h7v8h-7zM651 255h7v5h-7zM658 255h7v3h-7zM665 255h7v3h-7z"/><path fill="#8b8b8b" d="M672 257h7v10h-7z"/><path fill="#616161" d="M679 255h7v4h-7zM686 255h7v2h-7zM693 255h7v2h-7zM700 255h7v2h-7z"/><path fill="#8b8b8b" d="M707 257h7v7h-7z"/><path fill="#616161" d="M714 255h7v2h-7zM721 255h7v1h-7zM728 255h7v1h-7zM735 255h7v1h-7z"/><path fill="#8b8b8b" d="M742 255h7v2h-7z"/><path fill="#616161" d="M749 255h7v1h-7zM756 255h7v1h-7zM763 255h7v1h-7zM770 255h7v1h-7z"/><path fill="#8b8b8b" d="M777 255h7v5h-7z"/></g></svg>
