<?xml version="1.0" encoding="UTF-8" standalone="no"?>
<svg
   xmlns:dc="http://purl.org/dc/elements/1.1/"
   xmlns:cc="http://creativecommons.org/ns#"
   xmlns:rdf="http://www.w3.org/1999/02/22-rdf-syntax-ns#"
   xmlns:svg="http://www.w3.org/2000/svg"
   xmlns="http://www.w3.org/2000/svg"
   viewBox="0 0 183 30"
   height="26"
   width="159"
   xml:space="preserve"
   version="1.1"
   id="svg2"><metadata
     id="metadata8"><rdf:RDF><cc:Work
         rdf:about=""><dc:format>image/svg+xml</dc:format><dc:type
           rdf:resource="http://purl.org/dc/dcmitype/StillImage" /><dc:title></dc:title></cc:Work></rdf:RDF></metadata><defs
     id="defs6"><clipPath
       id="clipPath16"
       clipPathUnits="userSpaceOnUse"><path
         id="path18"
         d="M 0,300 500,300 500,0 0,0 0,300 Z" /></clipPath></defs><g
     transform="matrix(1.25,0,0,-1.25,-1.4386677,374.96807)"
     id="g10"><g
       transform="matrix(1.0077136,0,0,1.009931,-291.18837,140.79687)"
       id="g3367"><g
         id="g12"
         transform="matrix(0.13315778,0,0,0.13315778,258.09986,127.10909)"><g
           id="g14"
           clip-path="url(#clipPath16)"><g
             id="g20"
             transform="translate(241.9502,123.7998)"><path
               d="M 60.079105,0 -1.6208954,-35.8 23.179104,21.45 60.079105,0 Z m 8.899,99.45 L 127.4291,-35.8 24.279104,24.15 l 32.55,75.3 c 2.033001,2 4.050001,2.834 6.050001,2.5 2.033,0.367 4.067,-0.467 6.099,-2.5"
               style="fill:#666666;fill-opacity:1;fill-rule:evenodd;stroke:none"
               id="path22" /></g><g
             id="g24"
             transform="translate(320.5996,224.7998)" /></g></g><g
         id="text3354"
         style="font-style:normal;font-variant:normal;font-weight:bold;font-stretch:normal;font-size:26px;line-height:0%;font-family:'PT Sans';-inkscape-font-specification:'PT Sans, Bold';text-align:start;letter-spacing:0px;word-spacing:0px;writing-mode:lr-tb;text-anchor:start;fill:#666666;fill-opacity:1;stroke:none;stroke-width:1px;stroke-linecap:butt;stroke-linejoin:miter;stroke-opacity:1"
         transform="scale(1,-1)"><path
           id="path3433"
           d="m 316.66738,-139.85434 q -0.78,0.572 -1.898,0.858 -1.092,0.312 -2.262,0.312 -1.56,0 -2.652,-0.494 -1.066,-0.494 -1.742,-1.378 -0.676,-0.91 -0.988,-2.184 -0.286,-1.274 -0.286,-2.808 0,-3.302 1.482,-5.07 1.482,-1.794 4.316,-1.794 1.43,0 2.288,0.234 0.884,0.234 1.586,0.598 l -0.806,2.756 q -0.598,-0.286 -1.196,-0.442 -0.572,-0.156 -1.326,-0.156 -1.404,0 -2.132,0.936 -0.728,0.91 -0.728,2.938 0,0.832 0.182,1.534 0.182,0.702 0.546,1.222 0.364,0.52 0.936,0.832 0.598,0.286 1.378,0.286 0.858,0 1.456,-0.208 0.598,-0.234 1.066,-0.546 l 0.78,2.574 z" /><path
           id="path3435"
           d="m 317.38482,-152.04834 1.794,0 0,-2.444 3.38,-0.962 0,3.406 3.172,0 0,2.86 -3.172,0 0,4.992 q 0,1.352 0.26,1.95 0.286,0.572 1.04,0.572 0.52,0 0.884,-0.104 0.39,-0.104 0.858,-0.312 l 0.598,2.6 q -0.702,0.338 -1.638,0.572 -0.936,0.234 -1.898,0.234 -1.794,0 -2.652,-0.91 -0.832,-0.936 -0.832,-3.042 l 0,-6.552 -1.794,0 0,-2.86 z" /><path
           id="path3437"
           d="m 328.13867,-152.04834 3.38,0 0,13 -3.38,0 0,-13 z m -0.494,-3.666 q 0,-0.754 0.546,-1.274 0.572,-0.546 1.56,-0.546 0.988,0 1.586,0.546 0.624,0.52 0.624,1.274 0,0.754 -0.624,1.274 -0.598,0.494 -1.586,0.494 -0.988,0 -1.56,-0.494 -0.546,-0.52 -0.546,-1.274 z" /><path
           id="path3439"
           d="m 339.33248,-145.23634 0.442,2.002 0.13,0 0.364,-2.054 2.21,-6.76 3.64,0 -5.434,13.13 -2.054,0 -5.642,-13.13 3.926,0 2.418,6.812 z" /><path
           id="path3441"
           d="m 357.42198,-140.16634 q -0.78,0.624 -2.132,1.066 -1.326,0.416 -2.834,0.416 -3.146,0 -4.602,-1.82 -1.456,-1.846 -1.456,-5.044 0,-3.432 1.638,-5.148 1.638,-1.716 4.602,-1.716 0.988,0 1.924,0.26 0.936,0.26 1.664,0.858 0.728,0.598 1.17,1.612 0.442,1.014 0.442,2.522 0,0.546 -0.078,1.17 -0.052,0.624 -0.182,1.3 l -7.8,0 q 0.078,1.638 0.832,2.47 0.78,0.832 2.496,0.832 1.066,0 1.898,-0.312 0.858,-0.338 1.3,-0.676 l 1.118,2.21 z m -4.836,-9.542 q -1.326,0 -1.976,0.806 -0.624,0.78 -0.754,2.106 l 4.836,0 q 0.104,-1.404 -0.442,-2.158 -0.52,-0.754 -1.664,-0.754 z" /><path
           id="path3443"
           d="m 368.1551,-143.93634 q 0,-0.832 -0.624,-1.352 -0.598,-0.52 -1.534,-0.936 -0.91,-0.442 -2.002,-0.884 -1.066,-0.468 -2.002,-1.118 -0.91,-0.676 -1.534,-1.664 -0.598,-0.988 -0.598,-2.522 0,-1.326 0.442,-2.288 0.442,-0.988 1.248,-1.638 0.832,-0.65 1.95,-0.962 1.118,-0.312 2.496,-0.312 1.586,0 2.99,0.286 1.404,0.26 2.314,0.78 l -1.118,2.99 q -0.572,-0.364 -1.716,-0.65 -1.144,-0.312 -2.47,-0.312 -1.248,0 -1.924,0.494 -0.65,0.494 -0.65,1.326 0,0.78 0.598,1.3 0.624,0.52 1.534,0.962 0.936,0.442 2.002,0.91 1.092,0.468 2.002,1.144 0.936,0.65 1.534,1.638 0.624,0.962 0.624,2.418 0,1.456 -0.494,2.522 -0.468,1.04 -1.352,1.742 -0.858,0.702 -2.106,1.04 -1.222,0.338 -2.704,0.338 -1.95,0 -3.432,-0.364 -1.482,-0.364 -2.184,-0.728 l 1.144,-3.042 q 0.286,0.156 0.728,0.338 0.468,0.182 1.04,0.338 0.572,0.156 1.196,0.26 0.65,0.104 1.326,0.104 1.586,0 2.418,-0.52 0.858,-0.546 0.858,-1.638 z" /><path
           id="path3445"
           d="m 373.98682,-152.04834 2.47,0 0.39,1.56 0.104,0 q 0.676,-0.988 1.586,-1.456 0.936,-0.468 2.262,-0.468 2.444,0 3.666,1.56 1.222,1.534 1.222,4.966 0,1.664 -0.39,3.016 -0.39,1.326 -1.17,2.262 -0.754,0.936 -1.872,1.43 -1.092,0.494 -2.522,0.494 -0.806,0 -1.326,-0.13 -0.52,-0.104 -1.04,-0.364 l 0,5.33 -3.38,0 0,-18.2 z m 5.798,2.496 q -0.988,0 -1.56,0.494 -0.546,0.494 -0.858,1.482 l 0,5.408 q 0.364,0.286 0.78,0.468 0.442,0.156 1.144,0.156 1.456,0 2.184,-1.014 0.728,-1.04 0.728,-3.406 0,-1.716 -0.572,-2.652 -0.572,-0.936 -1.846,-0.936 z" /><path
           id="path3447"
           d="m 396.00923,-139.04834 0,-7.384 q 0,-1.586 -0.442,-2.288 -0.442,-0.702 -1.612,-0.702 -0.858,0 -1.586,0.598 -0.702,0.572 -0.936,1.482 l 0,8.294 -3.38,0 0,-18.2 3.38,0 0,6.656 0.104,0 q 0.624,-0.832 1.534,-1.326 0.91,-0.494 2.314,-0.494 0.988,0 1.742,0.26 0.754,0.26 1.248,0.858 0.52,0.598 0.754,1.638 0.26,1.014 0.26,2.522 l 0,8.086 -3.38,0 z" /><path
           id="path3449"
           d="m 412.6212,-140.16634 q -0.78,0.624 -2.132,1.066 -1.326,0.416 -2.834,0.416 -3.146,0 -4.602,-1.82 -1.456,-1.846 -1.456,-5.044 0,-3.432 1.638,-5.148 1.638,-1.716 4.602,-1.716 0.988,0 1.924,0.26 0.936,0.26 1.664,0.858 0.728,0.598 1.17,1.612 0.442,1.014 0.442,2.522 0,0.546 -0.078,1.17 -0.052,0.624 -0.182,1.3 l -7.8,0 q 0.078,1.638 0.832,2.47 0.78,0.832 2.496,0.832 1.066,0 1.898,-0.312 0.858,-0.338 1.3,-0.676 l 1.118,2.21 z m -4.836,-9.542 q -1.326,0 -1.976,0.806 -0.624,0.78 -0.754,2.106 l 4.836,0 q 0.104,-1.404 -0.442,-2.158 -0.52,-0.754 -1.664,-0.754 z" /><path
           id="path3451"
           d="m 422.60032,-148.87634 q -0.806,-0.286 -1.456,-0.286 -0.91,0 -1.534,0.494 -0.598,0.468 -0.806,1.222 l 0,8.398 -3.38,0 0,-13 2.626,0 0.39,1.716 0.104,0 q 0.442,-0.962 1.196,-1.482 0.754,-0.52 1.768,-0.52 0.676,0 1.534,0.286 l -0.442,3.172 z" /><path
           id="path3453"
           d="m 434.96495,-140.16634 q -0.78,0.624 -2.132,1.066 -1.326,0.416 -2.834,0.416 -3.146,0 -4.602,-1.82 -1.456,-1.846 -1.456,-5.044 0,-3.432 1.638,-5.148 1.638,-1.716 4.602,-1.716 0.988,0 1.924,0.26 0.936,0.26 1.664,0.858 0.728,0.598 1.17,1.612 0.442,1.014 0.442,2.522 0,0.546 -0.078,1.17 -0.052,0.624 -0.182,1.3 l -7.8,0 q 0.078,1.638 0.832,2.47 0.78,0.832 2.496,0.832 1.066,0 1.898,-0.312 0.858,-0.338 1.3,-0.676 l 1.118,2.21 z m -4.836,-9.542 q -1.326,0 -1.976,0.806 -0.624,0.78 -0.754,2.106 l 4.836,0 q 0.104,-1.404 -0.442,-2.158 -0.52,-0.754 -1.664,-0.754 z" /></g></g><flowRoot
       style="font-style:normal;font-variant:normal;font-weight:bold;font-stretch:normal;font-size:32.5px;line-height:125%;font-family:'PT Sans';-inkscape-font-specification:'PT Sans, Bold';text-align:start;letter-spacing:0px;word-spacing:0px;writing-mode:lr-tb;text-anchor:start;fill:#666666;fill-opacity:1;stroke:none;stroke-width:1px;stroke-linecap:butt;stroke-linejoin:miter;stroke-opacity:1"
       id="flowRoot3358"
       xml:space="preserve"><flowRegion
         id="flowRegion3360"><rect
           y="204.73422"
           x="498.33887"
           height="139.1196"
           width="2.076412"
           id="rect3362" /></flowRegion><flowPara
         id="flowPara3364" /></flowRoot><text
       transform="scale(1,-1)"
       id="text3366"
       y="-245.84717"
       x="292.3588"
       style="font-style:normal;font-variant:normal;font-weight:bold;font-stretch:normal;font-size:26px;line-height:125%;font-family:'PT Sans';-inkscape-font-specification:'PT Sans, Bold';text-align:start;letter-spacing:0px;word-spacing:0px;writing-mode:lr-tb;text-anchor:start;fill:#666666;fill-opacity:1;stroke:none;stroke-width:1px;stroke-linecap:butt;stroke-linejoin:miter;stroke-opacity:1"
       xml:space="preserve"><tspan
         y="-245.84717"
         x="292.3588"
         id="tspan3368" /></text>
</g></svg>
