<?xml version="1.0"?>
<svg version="1.1" xmlns="http://www.w3.org/2000/svg" xmlns:xlink="http://www.w3.org/1999/xlink" width="300" height="100">
    <desc iVinci="yes" version="4.6" gridStep="20" showGrid="yes" snapToGrid="no" codePlatform="0" markedExportShape="1"/>
    <g id="Layer1" name="Layer 1" opacity="1">
        <g id="Shape1">
            <desc shapeID="1" type="0" basicInfo-basicType="0" basicInfo-roundedRectRadius="12" basicInfo-polygonSides="6" basicInfo-starPoints="5" bounding="rect(-400,-300,800,600)" text="" font-familyName="" font-pixelSize="20" font-bold="0" font-underline="0" font-alignment="1" strokeStyle="0" markerStart="0" markerEnd="0" shadowEnabled="0" shadowOffsetX="0" shadowOffsetY="2" shadowBlur="4" shadowOpacity="160" blurEnabled="0" blurRadius="4" transform="matrix(0.385,0,0,0.23,146,54)" pers-center="0,0" pers-size="0,0" pers-start="0,0" pers-end="0,0" locked="0" mesh="" flag=""/>
            <path id="shapePath1" d="M-8.00002,-15 L300,-15 L300,123 L-8.00002,123 L-8.00002,-15 Z" style="stroke:none;fill:none;"/>
        </g>
        <g id="Shape2">
            <desc shapeID="2" type="0" basicInfo-basicType="0" basicInfo-roundedRectRadius="12" basicInfo-polygonSides="6" basicInfo-starPoints="5" bounding="rect(-31.4961,-32,62.9921,64)" text="" font-familyName="" font-pixelSize="20" font-bold="0" font-underline="0" font-alignment="1" strokeStyle="0" markerStart="0" markerEnd="0" shadowEnabled="0" shadowOffsetX="0" shadowOffsetY="2" shadowBlur="4" shadowOpacity="160" blurEnabled="0" blurRadius="4" transform="matrix(1,0,0,1,72.4961,55)" pers-center="0,0" pers-size="0,0" pers-start="0,0" pers-end="0,0" locked="0" mesh="" flag=""/>
            <path id="shapePath2" d="M41,55 C41,37.3269 55.1013,23 72.4961,23 C80.8493,23 88.8605,26.3714 94.7672,32.3726 C100.674,38.3737 103.992,46.5131 103.992,55 C103.992,72.6731 89.8909,87 72.4961,87 C55.1013,87 41,72.6731 41,55 Z" style="stroke:none;fill-rule:nonzero;fill:#cfe2f3;fill-opacity:1;"/>
        </g>
        <g id="Shape3">
            <desc shapeID="3" type="0" basicInfo-basicType="0" basicInfo-roundedRectRadius="12" basicInfo-polygonSides="6" basicInfo-starPoints="5" bounding="rect(-31.4961,-32,62.9921,64)" text="" font-familyName="" font-pixelSize="20" font-bold="0" font-underline="0" font-alignment="1" strokeStyle="0" markerStart="0" markerEnd="0" shadowEnabled="0" shadowOffsetX="0" shadowOffsetY="2" shadowBlur="4" shadowOpacity="160" blurEnabled="0" blurRadius="4" transform="matrix(1,0,0,1,72.4961,55)" pers-center="0,0" pers-size="0,0" pers-start="0,0" pers-end="0,0" locked="0" mesh="" flag=""/>
            <path id="shapePath3" d="M41,55 C41,37.3269 55.1013,23 72.4961,23 C80.8493,23 88.8605,26.3714 94.7672,32.3726 C100.674,38.3737 103.992,46.5131 103.992,55 C103.992,72.6731 89.8909,87 72.4961,87 C55.1013,87 41,72.6731 41,55 Z" style="stroke:#000000;stroke-opacity:1;stroke-width:1;stroke-linejoin:round;stroke-miterlimit:2;stroke-linecap:butt;fill:none;"/>
        </g>
        <g id="Shape4">
            <desc shapeID="4" type="0" basicInfo-basicType="0" basicInfo-roundedRectRadius="12" basicInfo-polygonSides="6" basicInfo-starPoints="5" bounding="rect(-31.4961,-32,62.9921,64)" text="" font-familyName="" font-pixelSize="20" font-bold="0" font-underline="0" font-alignment="1" strokeStyle="0" markerStart="0" markerEnd="0" shadowEnabled="0" shadowOffsetX="0" shadowOffsetY="2" shadowBlur="4" shadowOpacity="160" blurEnabled="0" blurRadius="4" transform="matrix(1,0,0,1,216.496,55)" pers-center="0,0" pers-size="0,0" pers-start="0,0" pers-end="0,0" locked="0" mesh="" flag=""/>
            <path id="shapePath4" d="M185,55 C185,37.3269 199.101,23 216.496,23 C224.849,23 232.86,26.3714 238.767,32.3726 C244.674,38.3737 247.992,46.5131 247.992,55 C247.992,72.6731 233.891,87 216.496,87 C199.101,87 185,72.6731 185,55 Z" style="stroke:none;fill-rule:nonzero;fill:#cfe2f3;fill-opacity:1;"/>
        </g>
        <g id="Shape5">
            <desc shapeID="5" type="0" basicInfo-basicType="0" basicInfo-roundedRectRadius="12" basicInfo-polygonSides="6" basicInfo-starPoints="5" bounding="rect(-31.4961,-32,62.9921,64)" text="" font-familyName="" font-pixelSize="20" font-bold="0" font-underline="0" font-alignment="1" strokeStyle="0" markerStart="0" markerEnd="0" shadowEnabled="0" shadowOffsetX="0" shadowOffsetY="2" shadowBlur="4" shadowOpacity="160" blurEnabled="0" blurRadius="4" transform="matrix(1,0,0,1,216.496,55)" pers-center="0,0" pers-size="0,0" pers-start="0,0" pers-end="0,0" locked="0" mesh="" flag=""/>
            <path id="shapePath5" d="M185,55 C185,37.3269 199.101,23 216.496,23 C224.849,23 232.86,26.3714 238.767,32.3726 C244.674,38.3737 247.992,46.5131 247.992,55 C247.992,72.6731 233.891,87 216.496,87 C199.101,87 185,72.6731 185,55 Z" style="stroke:#000000;stroke-opacity:1;stroke-width:1;stroke-linejoin:round;stroke-miterlimit:2;stroke-linecap:butt;fill:none;"/>
        </g>
        <g id="Shape6">
            <desc shapeID="6" type="0" basicInfo-basicType="0" basicInfo-roundedRectRadius="12" basicInfo-polygonSides="6" basicInfo-starPoints="5" bounding="rect(-38,-3.49606,76,6.99213)" text="" font-familyName="" font-pixelSize="20" font-bold="0" font-underline="0" font-alignment="1" strokeStyle="0" markerStart="0" markerEnd="0" shadowEnabled="0" shadowOffsetX="0" shadowOffsetY="2" shadowBlur="4" shadowOpacity="160" blurEnabled="0" blurRadius="4" transform="matrix(1,0,0,1,144.992,57.4961)" pers-center="0,0" pers-size="0,0" pers-start="0,0" pers-end="0,0" locked="0" mesh="" flag=""/>
            <path id="shapePath6" d="M182.992,57.4961 L110.488,57.4961 L110.488,54 L106.992,57.4961 L110.488,60.9921 L110.488,57.4961 L182.992,57.4961 Z" style="stroke:none;fill-rule:nonzero;fill:#cfe2f3;fill-opacity:1;"/>
        </g>
        <g id="Shape7">
            <desc shapeID="7" type="0" basicInfo-basicType="0" basicInfo-roundedRectRadius="12" basicInfo-polygonSides="6" basicInfo-starPoints="5" bounding="rect(-38,-3.49606,76,6.99213)" text="" font-familyName="" font-pixelSize="20" font-bold="0" font-underline="0" font-alignment="1" strokeStyle="0" markerStart="0" markerEnd="0" shadowEnabled="0" shadowOffsetX="0" shadowOffsetY="2" shadowBlur="4" shadowOpacity="160" blurEnabled="0" blurRadius="4" transform="matrix(1,0,0,1,144.992,57.4961)" pers-center="0,0" pers-size="0,0" pers-start="0,0" pers-end="0,0" locked="0" mesh="" flag=""/>
            <path id="shapePath7" d="M182.992,57.4961 L110.488,57.4961 L110.488,54 L106.992,57.4961 L110.488,60.9921 L110.488,57.4961 L182.992,57.4961 Z" style="stroke:#000000;stroke-opacity:1;stroke-width:1;stroke-linejoin:round;stroke-miterlimit:2;stroke-linecap:butt;fill:none;"/>
        </g>
        <g id="Shape8">
            <desc shapeID="8" type="0" basicInfo-basicType="0" basicInfo-roundedRectRadius="12" basicInfo-polygonSides="6" basicInfo-starPoints="5" bounding="rect(-40.9921,-30.9921,81.9843,61.9843)" text="" font-familyName="" font-pixelSize="20" font-bold="0" font-underline="0" font-alignment="1" strokeStyle="0" markerStart="0" markerEnd="0" shadowEnabled="0" shadowOffsetX="0" shadowOffsetY="2" shadowBlur="4" shadowOpacity="160" blurEnabled="0" blurRadius="4" transform="matrix(1,0,0,1,72.4961,54)" pers-center="0,0" pers-size="0,0" pers-start="0,0" pers-end="0,0" locked="0" mesh="" flag=""/>
            <path id="shapePath8" d="M31.5039,23.0079 L113.488,23.0079 L113.488,84.9921 L31.5039,84.9921 L31.5039,23.0079 Z" style="stroke:none;fill-rule:nonzero;fill:#000000;fill-opacity:0;"/>
        </g>
        <g id="Shape9">
            <desc shapeID="9" type="0" basicInfo-basicType="0" basicInfo-roundedRectRadius="12" basicInfo-polygonSides="6" basicInfo-starPoints="5" bounding="rect(-4.60938,-4.92969,9.21875,9.85938)" text="" font-familyName="" font-pixelSize="20" font-bold="0" font-underline="0" font-alignment="1" strokeStyle="0" markerStart="0" markerEnd="0" shadowEnabled="0" shadowOffsetX="0" shadowOffsetY="2" shadowBlur="4" shadowOpacity="160" blurEnabled="0" blurRadius="4" transform="matrix(1,0,0,1,69.1235,55.9903)" pers-center="0,0" pers-size="0,0" pers-start="0,0" pers-end="0,0" locked="0" mesh="" flag=""/>
            <path id="shapePath9" d="M64.5141,60.92 L68.1079,55.795 L64.7797,51.0606 L66.8735,51.0606 L68.3891,53.3731 C68.6704,53.8106 68.8943,54.1804 69.061,54.4825 C69.3422,54.0762 69.5974,53.7117 69.8266,53.3887 L71.4829,51.0606 L73.4672,51.0606 L70.0766,55.7012 L73.7329,60.92 L71.686,60.92 L69.6547,57.8575 L69.1235,57.0294 L66.5297,60.92 L64.5141,60.92 Z" style="stroke:none;fill-rule:nonzero;fill:#000000;fill-opacity:1;"/>
        </g>
        <g id="Shape10">
            <desc shapeID="10" type="0" basicInfo-basicType="0" basicInfo-roundedRectRadius="12" basicInfo-polygonSides="6" basicInfo-starPoints="5" bounding="rect(-1.57812,-4.3125,3.15625,8.625)" text="" font-familyName="" font-pixelSize="20" font-bold="0" font-underline="0" font-alignment="1" strokeStyle="0" markerStart="0" markerEnd="0" shadowEnabled="0" shadowOffsetX="0" shadowOffsetY="2" shadowBlur="4" shadowOpacity="160" blurEnabled="0" blurRadius="4" transform="matrix(1,0,0,1,76.5922,63.6075)" pers-center="0,0" pers-size="0,0" pers-start="0,0" pers-end="0,0" locked="0" mesh="" flag=""/>
            <path id="shapePath10" d="M78.1703,67.92 L77.1235,67.92 L77.1235,61.2012 C76.8631,61.4408 76.5245,61.6856 76.1078,61.9356 C75.7016,62.1752 75.337,62.3523 75.0141,62.4669 L75.0141,61.4512 C75.5974,61.17 76.1078,60.8367 76.5453,60.4512 C76.9933,60.0554 77.311,59.67 77.4985,59.295 L78.1703,59.295 L78.1703,67.92 Z" style="stroke:none;fill-rule:nonzero;fill:#000000;fill-opacity:1;"/>
        </g>
        <g id="Shape11">
            <desc shapeID="11" type="0" basicInfo-basicType="0" basicInfo-roundedRectRadius="12" basicInfo-polygonSides="6" basicInfo-starPoints="5" bounding="rect(-40.9921,-30.9921,81.9843,61.9843)" text="" font-familyName="" font-pixelSize="20" font-bold="0" font-underline="0" font-alignment="1" strokeStyle="0" markerStart="0" markerEnd="0" shadowEnabled="0" shadowOffsetX="0" shadowOffsetY="2" shadowBlur="4" shadowOpacity="160" blurEnabled="0" blurRadius="4" transform="matrix(1,0,0,1,216.496,53.9921)" pers-center="0,0" pers-size="0,0" pers-start="0,0" pers-end="0,0" locked="0" mesh="" flag=""/>
            <path id="shapePath11" d="M175.504,23 L257.488,23 L257.488,84.9843 L175.504,84.9843 L175.504,23 Z" style="stroke:none;fill-rule:nonzero;fill:#000000;fill-opacity:0;"/>
        </g>
        <g id="Shape12">
            <desc shapeID="12" type="0" basicInfo-basicType="0" basicInfo-roundedRectRadius="12" basicInfo-polygonSides="6" basicInfo-starPoints="5" bounding="rect(-4.50781,-6.92969,9.01562,13.8594)" text="" font-familyName="" font-pixelSize="20" font-bold="0" font-underline="0" font-alignment="1" strokeStyle="0" markerStart="0" markerEnd="0" shadowEnabled="0" shadowOffsetX="0" shadowOffsetY="2" shadowBlur="4" shadowOpacity="160" blurEnabled="0" blurRadius="4" transform="matrix(1,0,0,1,213.194,57.9824)" pers-center="0,0" pers-size="0,0" pers-start="0,0" pers-end="0,0" locked="0" mesh="" flag=""/>
            <path id="shapePath12" d="M209.545,64.709 L209.373,63.1465 C209.738,63.2402 210.056,63.2871 210.327,63.2871 C210.691,63.2871 210.983,63.2246 211.202,63.0996 C211.431,62.9746 211.618,62.8027 211.764,62.584 C211.868,62.4173 212.035,62.0007 212.264,61.334 C212.295,61.2402 212.347,61.1048 212.42,60.9277 L208.686,51.0527 L210.483,51.0527 L212.53,56.7715 C212.801,57.4902 213.04,58.2507 213.248,59.0527 C213.436,58.2819 213.665,57.5319 213.936,56.8027 L216.03,51.0527 L217.702,51.0527 L213.952,61.084 C213.556,62.1673 213.243,62.9121 213.014,63.3184 C212.722,63.8705 212.384,64.2715 211.998,64.5215 C211.613,64.7819 211.155,64.9121 210.623,64.9121 C210.301,64.9121 209.941,64.8444 209.545,64.709 Z" style="stroke:none;fill-rule:nonzero;fill:#000000;fill-opacity:1;"/>
        </g>
        <g id="Shape13">
            <desc shapeID="13" type="0" basicInfo-basicType="0" basicInfo-roundedRectRadius="12" basicInfo-polygonSides="6" basicInfo-starPoints="5" bounding="rect(-1.57812,-4.3125,3.15625,8.625)" text="" font-familyName="" font-pixelSize="20" font-bold="0" font-underline="0" font-alignment="1" strokeStyle="0" markerStart="0" markerEnd="0" shadowEnabled="0" shadowOffsetX="0" shadowOffsetY="2" shadowBlur="4" shadowOpacity="160" blurEnabled="0" blurRadius="4" transform="matrix(1,0,0,1,220.592,63.5996)" pers-center="0,0" pers-size="0,0" pers-start="0,0" pers-end="0,0" locked="0" mesh="" flag=""/>
            <path id="shapePath13" d="M222.17,67.9121 L221.123,67.9121 L221.123,61.1934 C220.863,61.433 220.525,61.6777 220.108,61.9277 C219.702,62.1673 219.337,62.3444 219.014,62.459 L219.014,61.4434 C219.597,61.1621 220.108,60.8288 220.545,60.4434 C220.993,60.0475 221.311,59.6621 221.498,59.2871 L222.17,59.2871 L222.17,67.9121 Z" style="stroke:none;fill-rule:nonzero;fill:#000000;fill-opacity:1;"/>
        </g>
        <g id="Shape14">
            <desc shapeID="14" type="0" basicInfo-basicType="0" basicInfo-roundedRectRadius="12" basicInfo-polygonSides="6" basicInfo-starPoints="5" bounding="rect(-40.9921,-20,81.9843,40)" text="" font-familyName="" font-pixelSize="20" font-bold="0" font-underline="0" font-alignment="1" strokeStyle="0" markerStart="0" markerEnd="0" shadowEnabled="0" shadowOffsetX="0" shadowOffsetY="2" shadowBlur="4" shadowOpacity="160" blurEnabled="0" blurRadius="4" transform="matrix(1,0,0,1,152.496,34)" pers-center="0,0" pers-size="0,0" pers-start="0,0" pers-end="0,0" locked="0" mesh="" flag=""/>
            <path id="shapePath14" d="M111.504,14 L193.488,14 L193.488,54 L111.504,54 L111.504,14 Z" style="stroke:none;fill-rule:nonzero;fill:#000000;fill-opacity:0;"/>
        </g>
        <g id="Shape15">
            <desc shapeID="15" type="0" basicInfo-basicType="0" basicInfo-roundedRectRadius="12" basicInfo-polygonSides="6" basicInfo-starPoints="5" bounding="rect(-6.75781,-4.92969,13.5156,9.85938)" text="" font-familyName="" font-pixelSize="20" font-bold="0" font-underline="0" font-alignment="1" strokeStyle="0" markerStart="0" markerEnd="0" shadowEnabled="0" shadowOffsetX="0" shadowOffsetY="2" shadowBlur="4" shadowOpacity="160" blurEnabled="0" blurRadius="4" transform="matrix(1,0,0,1,149.121,35.9903)" pers-center="0,0" pers-size="0,0" pers-start="0,0" pers-end="0,0" locked="0" mesh="" flag=""/>
            <path id="shapePath15" d="M145.379,40.92 L142.364,31.0606 L144.082,31.0606 L145.645,36.7481 L146.239,38.8731 C146.259,38.769 146.426,38.0919 146.739,36.8419 L148.317,31.0606 L150.035,31.0606 L151.504,36.7794 L151.989,38.67 L152.567,36.7637 L154.254,31.0606 L155.879,31.0606 L152.801,40.92 L151.067,40.92 L149.489,35.0137 L149.114,33.3419 L147.114,40.92 L145.379,40.92 Z" style="stroke:none;fill-rule:nonzero;fill:#000000;fill-opacity:1;"/>
        </g>
        <g id="Shape16">
            <desc shapeID="16" type="0" basicInfo-basicType="0" basicInfo-roundedRectRadius="12" basicInfo-polygonSides="6" basicInfo-starPoints="5" bounding="rect(-1.57812,-4.3125,3.15625,8.625)" text="" font-familyName="" font-pixelSize="20" font-bold="0" font-underline="0" font-alignment="1" strokeStyle="0" markerStart="0" markerEnd="0" shadowEnabled="0" shadowOffsetX="0" shadowOffsetY="2" shadowBlur="4" shadowOpacity="160" blurEnabled="0" blurRadius="4" transform="matrix(1,0,0,1,158.665,43.6075)" pers-center="0,0" pers-size="0,0" pers-start="0,0" pers-end="0,0" locked="0" mesh="" flag=""/>
            <path id="shapePath16" d="M160.243,47.92 L159.196,47.92 L159.196,41.2012 C158.935,41.4408 158.597,41.6856 158.18,41.9356 C157.774,42.1752 157.409,42.3523 157.087,42.4669 L157.087,41.4512 C157.67,41.17 158.18,40.8367 158.618,40.4512 C159.066,40.0554 159.383,39.67 159.571,39.295 L160.243,39.295 L160.243,47.92 Z" style="stroke:none;fill-rule:nonzero;fill:#000000;fill-opacity:1;"/>
        </g>
    </g>
</svg>
