<?xml version="1.0"?>
<svg version="1.1" xmlns="http://www.w3.org/2000/svg" xmlns:xlink="http://www.w3.org/1999/xlink" width="410" height="120">
    <desc iVinci="yes" version="4.6" gridStep="20" showGrid="no" snapToGrid="no" codePlatform="0"/>
    <g id="Layer1" name="Layer 1" opacity="1">
        <g id="Shape1">
            <desc shapeID="1" type="0" basicInfo-basicType="0" basicInfo-roundedRectRadius="12" basicInfo-polygonSides="6" basicInfo-starPoints="5" bounding="rect(-31.4961,-32,62.9921,64)" text="" font-familyName="" font-pixelSize="20" font-bold="0" font-underline="0" font-alignment="1" strokeStyle="0" markerStart="0" markerEnd="0" shadowEnabled="0" shadowOffsetX="0" shadowOffsetY="2" shadowBlur="4" shadowOpacity="160" blurEnabled="0" blurRadius="4" transform="matrix(1,0,0,1,48.4961,51)" pers-center="0,0" pers-size="0,0" pers-start="0,0" pers-end="0,0" locked="0" mesh="" flag=""/>
            <path id="shapePath1" d="M17,51 C17,33.3269 31.1013,19 48.4961,19 C56.8493,19 64.8605,22.3714 70.7672,28.3726 C76.6738,34.3737 79.9921,42.5131 79.9921,51 C79.9921,68.6731 65.8909,83 48.4961,83 C31.1013,83 17,68.6731 17,51 Z" style="stroke:none;fill-rule:nonzero;fill:#cfe2f3;fill-opacity:1;"/>
        </g>
        <g id="Shape2">
            <desc shapeID="2" type="0" basicInfo-basicType="0" basicInfo-roundedRectRadius="12" basicInfo-polygonSides="6" basicInfo-starPoints="5" bounding="rect(-31.4961,-32,62.9921,64)" text="" font-familyName="" font-pixelSize="20" font-bold="0" font-underline="0" font-alignment="1" strokeStyle="0" markerStart="0" markerEnd="0" shadowEnabled="0" shadowOffsetX="0" shadowOffsetY="2" shadowBlur="4" shadowOpacity="160" blurEnabled="0" blurRadius="4" transform="matrix(1,0,0,1,48.4961,51)" pers-center="0,0" pers-size="0,0" pers-start="0,0" pers-end="0,0" locked="0" mesh="" flag=""/>
            <path id="shapePath2" d="M17,51 C17,33.3269 31.1013,19 48.4961,19 C56.8493,19 64.8605,22.3714 70.7672,28.3726 C76.6738,34.3737 79.9921,42.5131 79.9921,51 C79.9921,68.6731 65.8909,83 48.4961,83 C31.1013,83 17,68.6731 17,51 Z" style="stroke:#000000;stroke-opacity:1;stroke-width:1;stroke-linejoin:round;stroke-miterlimit:2;stroke-linecap:butt;fill:none;"/>
        </g>
        <g id="Shape3">
            <desc shapeID="3" type="0" basicInfo-basicType="0" basicInfo-roundedRectRadius="12" basicInfo-polygonSides="6" basicInfo-starPoints="5" bounding="rect(-31.4961,-32,62.9921,64)" text="" font-familyName="" font-pixelSize="20" font-bold="0" font-underline="0" font-alignment="1" strokeStyle="0" markerStart="0" markerEnd="0" shadowEnabled="0" shadowOffsetX="0" shadowOffsetY="2" shadowBlur="4" shadowOpacity="160" blurEnabled="0" blurRadius="4" transform="matrix(1,0,0,1,336.496,51)" pers-center="0,0" pers-size="0,0" pers-start="0,0" pers-end="0,0" locked="0" mesh="" flag=""/>
            <path id="shapePath3" d="M305,51 C305,33.3269 319.101,19 336.496,19 C344.849,19 352.86,22.3714 358.767,28.3726 C364.674,34.3737 367.992,42.5131 367.992,51 C367.992,68.6731 353.891,83 336.496,83 C319.101,83 305,68.6731 305,51 Z" style="stroke:none;fill-rule:nonzero;fill:#cfe2f3;fill-opacity:1;"/>
        </g>
        <g id="Shape4">
            <desc shapeID="4" type="0" basicInfo-basicType="0" basicInfo-roundedRectRadius="12" basicInfo-polygonSides="6" basicInfo-starPoints="5" bounding="rect(-31.4961,-32,62.9921,64)" text="" font-familyName="" font-pixelSize="20" font-bold="0" font-underline="0" font-alignment="1" strokeStyle="0" markerStart="0" markerEnd="0" shadowEnabled="0" shadowOffsetX="0" shadowOffsetY="2" shadowBlur="4" shadowOpacity="160" blurEnabled="0" blurRadius="4" transform="matrix(1,0,0,1,336.496,51)" pers-center="0,0" pers-size="0,0" pers-start="0,0" pers-end="0,0" locked="0" mesh="" flag=""/>
            <path id="shapePath4" d="M305,51 C305,33.3269 319.101,19 336.496,19 C344.849,19 352.86,22.3714 358.767,28.3726 C364.674,34.3737 367.992,42.5131 367.992,51 C367.992,68.6731 353.891,83 336.496,83 C319.101,83 305,68.6731 305,51 Z" style="stroke:#000000;stroke-opacity:1;stroke-width:1;stroke-linejoin:round;stroke-miterlimit:2;stroke-linecap:butt;fill:none;"/>
        </g>
        <g id="Shape5">
            <desc shapeID="5" type="0" basicInfo-basicType="0" basicInfo-roundedRectRadius="12" basicInfo-polygonSides="6" basicInfo-starPoints="5" bounding="rect(-38,-3.49606,76,6.99213)" text="" font-familyName="" font-pixelSize="20" font-bold="0" font-underline="0" font-alignment="1" strokeStyle="0" markerStart="0" markerEnd="0" shadowEnabled="0" shadowOffsetX="0" shadowOffsetY="2" shadowBlur="4" shadowOpacity="160" blurEnabled="0" blurRadius="4" transform="matrix(1,0,0,1,264.992,53.4961)" pers-center="0,0" pers-size="0,0" pers-start="0,0" pers-end="0,0" locked="0" mesh="" flag=""/>
            <path id="shapePath5" d="M302.992,53.4961 L230.488,53.4961 L230.488,50 L226.992,53.4961 L230.488,56.9921 L230.488,53.4961 L302.992,53.4961 Z" style="stroke:none;fill-rule:nonzero;fill:#cfe2f3;fill-opacity:1;"/>
        </g>
        <g id="Shape6">
            <desc shapeID="6" type="0" basicInfo-basicType="0" basicInfo-roundedRectRadius="12" basicInfo-polygonSides="6" basicInfo-starPoints="5" bounding="rect(-38,-3.49606,76,6.99213)" text="" font-familyName="" font-pixelSize="20" font-bold="0" font-underline="0" font-alignment="1" strokeStyle="0" markerStart="0" markerEnd="0" shadowEnabled="0" shadowOffsetX="0" shadowOffsetY="2" shadowBlur="4" shadowOpacity="160" blurEnabled="0" blurRadius="4" transform="matrix(1,0,0,1,264.992,53.4961)" pers-center="0,0" pers-size="0,0" pers-start="0,0" pers-end="0,0" locked="0" mesh="" flag=""/>
            <path id="shapePath6" d="M302.992,53.4961 L230.488,53.4961 L230.488,50 L226.992,53.4961 L230.488,56.9921 L230.488,53.4961 L302.992,53.4961 Z" style="stroke:#000000;stroke-opacity:1;stroke-width:1;stroke-linejoin:round;stroke-miterlimit:2;stroke-linecap:butt;fill:none;"/>
        </g>
        <g id="Shape7">
            <desc shapeID="7" type="0" basicInfo-basicType="0" basicInfo-roundedRectRadius="12" basicInfo-polygonSides="6" basicInfo-starPoints="5" bounding="rect(-40.9921,-30.9921,81.9843,61.9843)" text="" font-familyName="" font-pixelSize="20" font-bold="0" font-underline="0" font-alignment="1" strokeStyle="0" markerStart="0" markerEnd="0" shadowEnabled="0" shadowOffsetX="0" shadowOffsetY="2" shadowBlur="4" shadowOpacity="160" blurEnabled="0" blurRadius="4" transform="matrix(1,0,0,1,48.4961,50)" pers-center="0,0" pers-size="0,0" pers-start="0,0" pers-end="0,0" locked="0" mesh="" flag=""/>
            <path id="shapePath7" d="M7.50394,19.0079 L89.4882,19.0079 L89.4882,80.9921 L7.50394,80.9921 L7.50394,19.0079 Z" style="stroke:none;fill-rule:nonzero;fill:#000000;fill-opacity:0;"/>
        </g>
        <g id="Shape8">
            <desc shapeID="8" type="0" basicInfo-basicType="0" basicInfo-roundedRectRadius="12" basicInfo-polygonSides="6" basicInfo-starPoints="5" bounding="rect(-4.60938,-4.92969,9.21875,9.85938)" text="" font-familyName="" font-pixelSize="20" font-bold="0" font-underline="0" font-alignment="1" strokeStyle="0" markerStart="0" markerEnd="0" shadowEnabled="0" shadowOffsetX="0" shadowOffsetY="2" shadowBlur="4" shadowOpacity="160" blurEnabled="0" blurRadius="4" transform="matrix(1,0,0,1,45.1235,51.9903)" pers-center="0,0" pers-size="0,0" pers-start="0,0" pers-end="0,0" locked="0" mesh="" flag=""/>
            <path id="shapePath8" d="M40.5141,56.92 L44.1079,51.795 L40.7797,47.0606 L42.8735,47.0606 L44.3891,49.3731 C44.6704,49.8106 44.8943,50.1804 45.061,50.4825 C45.3422,50.0762 45.5974,49.7117 45.8266,49.3887 L47.4829,47.0606 L49.4672,47.0606 L46.0766,51.7012 L49.7329,56.92 L47.686,56.92 L45.6547,53.8575 L45.1235,53.0294 L42.5297,56.92 L40.5141,56.92 Z" style="stroke:none;fill-rule:nonzero;fill:#000000;fill-opacity:1;"/>
        </g>
        <g id="Shape9">
            <desc shapeID="9" type="0" basicInfo-basicType="0" basicInfo-roundedRectRadius="12" basicInfo-polygonSides="6" basicInfo-starPoints="5" bounding="rect(-1.57812,-4.3125,3.15625,8.625)" text="" font-familyName="" font-pixelSize="20" font-bold="0" font-underline="0" font-alignment="1" strokeStyle="0" markerStart="0" markerEnd="0" shadowEnabled="0" shadowOffsetX="0" shadowOffsetY="2" shadowBlur="4" shadowOpacity="160" blurEnabled="0" blurRadius="4" transform="matrix(1,0,0,1,52.5922,59.6075)" pers-center="0,0" pers-size="0,0" pers-start="0,0" pers-end="0,0" locked="0" mesh="" flag=""/>
            <path id="shapePath9" d="M54.1703,63.92 L53.1235,63.92 L53.1235,57.2012 C52.8631,57.4408 52.5245,57.6856 52.1078,57.9356 C51.7016,58.1752 51.337,58.3523 51.0141,58.4669 L51.0141,57.4512 C51.5974,57.17 52.1078,56.8367 52.5453,56.4512 C52.9933,56.0554 53.311,55.67 53.4985,55.295 L54.1703,55.295 L54.1703,63.92 Z" style="stroke:none;fill-rule:nonzero;fill:#000000;fill-opacity:1;"/>
        </g>
        <g id="Shape10">
            <desc shapeID="10" type="0" basicInfo-basicType="0" basicInfo-roundedRectRadius="12" basicInfo-polygonSides="6" basicInfo-starPoints="5" bounding="rect(-40.9921,-30.9921,81.9842,61.9843)" text="" font-familyName="" font-pixelSize="20" font-bold="0" font-underline="0" font-alignment="1" strokeStyle="0" markerStart="0" markerEnd="0" shadowEnabled="0" shadowOffsetX="0" shadowOffsetY="2" shadowBlur="4" shadowOpacity="160" blurEnabled="0" blurRadius="4" transform="matrix(1,0,0,1,336.496,49.9921)" pers-center="0,0" pers-size="0,0" pers-start="0,0" pers-end="0,0" locked="0" mesh="" flag=""/>
            <path id="shapePath10" d="M295.504,19 L377.488,19 L377.488,80.9843 L295.504,80.9843 L295.504,19 Z" style="stroke:none;fill-rule:nonzero;fill:#000000;fill-opacity:0;"/>
        </g>
        <g id="Shape11">
            <desc shapeID="11" type="0" basicInfo-basicType="0" basicInfo-roundedRectRadius="12" basicInfo-polygonSides="6" basicInfo-starPoints="5" bounding="rect(-4.50781,-6.92969,9.01562,13.8594)" text="" font-familyName="" font-pixelSize="20" font-bold="0" font-underline="0" font-alignment="1" strokeStyle="0" markerStart="0" markerEnd="0" shadowEnabled="0" shadowOffsetX="0" shadowOffsetY="2" shadowBlur="4" shadowOpacity="160" blurEnabled="0" blurRadius="4" transform="matrix(1,0,0,1,333.194,53.9824)" pers-center="0,0" pers-size="0,0" pers-start="0,0" pers-end="0,0" locked="0" mesh="" flag=""/>
            <path id="shapePath11" d="M329.545,60.709 L329.373,59.1465 C329.738,59.2402 330.056,59.2871 330.327,59.2871 C330.691,59.2871 330.983,59.2246 331.202,59.0996 C331.431,58.9746 331.618,58.8027 331.764,58.584 C331.868,58.4173 332.035,58.0007 332.264,57.334 C332.295,57.2402 332.347,57.1048 332.42,56.9277 L328.686,47.0527 L330.483,47.0527 L332.53,52.7715 C332.801,53.4902 333.04,54.2507 333.248,55.0527 C333.436,54.2819 333.665,53.5319 333.936,52.8027 L336.03,47.0527 L337.702,47.0527 L333.952,57.084 C333.556,58.1673 333.243,58.9121 333.014,59.3184 C332.722,59.8705 332.384,60.2715 331.998,60.5215 C331.613,60.7819 331.155,60.9121 330.623,60.9121 C330.301,60.9121 329.941,60.8444 329.545,60.709 Z" style="stroke:none;fill-rule:nonzero;fill:#000000;fill-opacity:1;"/>
        </g>
        <g id="Shape12">
            <desc shapeID="12" type="0" basicInfo-basicType="0" basicInfo-roundedRectRadius="12" basicInfo-polygonSides="6" basicInfo-starPoints="5" bounding="rect(-1.57812,-4.3125,3.15625,8.625)" text="" font-familyName="" font-pixelSize="20" font-bold="0" font-underline="0" font-alignment="1" strokeStyle="0" markerStart="0" markerEnd="0" shadowEnabled="0" shadowOffsetX="0" shadowOffsetY="2" shadowBlur="4" shadowOpacity="160" blurEnabled="0" blurRadius="4" transform="matrix(1,0,0,1,340.592,59.5996)" pers-center="0,0" pers-size="0,0" pers-start="0,0" pers-end="0,0" locked="0" mesh="" flag=""/>
            <path id="shapePath12" d="M342.17,63.9121 L341.123,63.9121 L341.123,57.1934 C340.863,57.433 340.525,57.6777 340.108,57.9277 C339.702,58.1673 339.337,58.3444 339.014,58.459 L339.014,57.4434 C339.597,57.1621 340.108,56.8288 340.545,56.4434 C340.993,56.0475 341.311,55.6621 341.498,55.2871 L342.17,55.2871 L342.17,63.9121 Z" style="stroke:none;fill-rule:nonzero;fill:#000000;fill-opacity:1;"/>
        </g>
        <g id="Shape13">
            <desc shapeID="13" type="0" basicInfo-basicType="0" basicInfo-roundedRectRadius="12" basicInfo-polygonSides="6" basicInfo-starPoints="5" bounding="rect(-40.9921,-27.4961,81.9842,54.9921)" text="" font-familyName="" font-pixelSize="20" font-bold="0" font-underline="0" font-alignment="1" strokeStyle="0" markerStart="0" markerEnd="0" shadowEnabled="0" shadowOffsetX="0" shadowOffsetY="2" shadowBlur="4" shadowOpacity="160" blurEnabled="0" blurRadius="4" transform="matrix(1,0,0,1,272.496,37.4961)" pers-center="0,0" pers-size="0,0" pers-start="0,0" pers-end="0,0" locked="0" mesh="" flag=""/>
            <path id="shapePath13" d="M231.504,10 L313.488,10 L313.488,64.9921 L231.504,64.9921 L231.504,10 Z" style="stroke:none;fill-rule:nonzero;fill:#000000;fill-opacity:0;"/>
        </g>
        <g id="Shape14">
            <desc shapeID="14" type="0" basicInfo-basicType="0" basicInfo-roundedRectRadius="12" basicInfo-polygonSides="6" basicInfo-starPoints="5" bounding="rect(-6.75781,-4.92969,13.5156,9.85938)" text="" font-familyName="" font-pixelSize="20" font-bold="0" font-underline="0" font-alignment="1" strokeStyle="0" markerStart="0" markerEnd="0" shadowEnabled="0" shadowOffsetX="0" shadowOffsetY="2" shadowBlur="4" shadowOpacity="160" blurEnabled="0" blurRadius="4" transform="matrix(1,0,0,1,269.121,39.4864)" pers-center="0,0" pers-size="0,0" pers-start="0,0" pers-end="0,0" locked="0" mesh="" flag=""/>
            <path id="shapePath14" d="M265.379,44.4161 L262.364,34.5567 L264.082,34.5567 L265.645,40.2442 L266.239,42.3692 C266.259,42.265 266.426,41.5879 266.739,40.3379 L268.317,34.5567 L270.035,34.5567 L271.504,40.2754 L271.989,42.1661 L272.567,40.2598 L274.254,34.5567 L275.879,34.5567 L272.801,44.4161 L271.067,44.4161 L269.489,38.5098 L269.114,36.8379 L267.114,44.4161 L265.379,44.4161 Z" style="stroke:none;fill-rule:nonzero;fill:#000000;fill-opacity:1;"/>
        </g>
        <g id="Shape15">
            <desc shapeID="15" type="0" basicInfo-basicType="0" basicInfo-roundedRectRadius="12" basicInfo-polygonSides="6" basicInfo-starPoints="5" bounding="rect(-2.84375,-4.3125,5.6875,8.625)" text="" font-familyName="" font-pixelSize="20" font-bold="0" font-underline="0" font-alignment="1" strokeStyle="0" markerStart="0" markerEnd="0" shadowEnabled="0" shadowOffsetX="0" shadowOffsetY="2" shadowBlur="4" shadowOpacity="160" blurEnabled="0" blurRadius="4" transform="matrix(1,0,0,1,278.977,47.1036)" pers-center="0,0" pers-size="0,0" pers-start="0,0" pers-end="0,0" locked="0" mesh="" flag=""/>
            <path id="shapePath15" d="M281.821,50.4004 L281.821,51.4161 L276.133,51.4161 C276.133,51.1661 276.175,50.9213 276.258,50.6817 C276.404,50.2963 276.633,49.9161 276.946,49.5411 C277.269,49.1661 277.732,48.7338 278.337,48.2442 C279.274,47.4734 279.904,46.864 280.227,46.4161 C280.56,45.9682 280.727,45.5463 280.727,45.1504 C280.727,44.7338 280.576,44.3848 280.274,44.1036 C279.972,43.8119 279.581,43.6661 279.102,43.6661 C278.592,43.6661 278.185,43.8171 277.883,44.1192 C277.581,44.4213 277.425,44.8432 277.415,45.3848 L276.337,45.2754 C276.409,44.4629 276.685,43.8484 277.165,43.4317 C277.654,43.0046 278.31,42.7911 279.133,42.7911 C279.956,42.7911 280.607,43.0202 281.087,43.4786 C281.566,43.9369 281.805,44.5046 281.805,45.1817 C281.805,45.5254 281.732,45.864 281.587,46.1973 C281.451,46.5202 281.217,46.8692 280.883,47.2442 C280.56,47.6088 280.024,48.1088 279.274,48.7442 C278.639,49.2754 278.227,49.64 278.04,49.8379 C277.863,50.0254 277.717,50.2129 277.602,50.4004 L281.821,50.4004 Z" style="stroke:none;fill-rule:nonzero;fill:#000000;fill-opacity:1;"/>
        </g>
        <g id="Shape16">
            <desc shapeID="16" type="0" basicInfo-basicType="0" basicInfo-roundedRectRadius="12" basicInfo-polygonSides="6" basicInfo-starPoints="5" bounding="rect(-31.4961,-32,62.9921,64)" text="" font-familyName="" font-pixelSize="20" font-bold="0" font-underline="0" font-alignment="1" strokeStyle="0" markerStart="0" markerEnd="0" shadowEnabled="0" shadowOffsetX="0" shadowOffsetY="2" shadowBlur="4" shadowOpacity="160" blurEnabled="0" blurRadius="4" transform="matrix(1,0,0,1,192.496,51)" pers-center="0,0" pers-size="0,0" pers-start="0,0" pers-end="0,0" locked="0" mesh="" flag=""/>
            <path id="shapePath16" d="M161,51 C161,33.3269 175.101,19 192.496,19 C200.849,19 208.86,22.3714 214.767,28.3726 C220.674,34.3737 223.992,42.5131 223.992,51 C223.992,68.6731 209.891,83 192.496,83 C175.101,83 161,68.6731 161,51 Z" style="stroke:none;fill-rule:nonzero;fill:#cfe2f3;fill-opacity:1;"/>
        </g>
        <g id="Shape17">
            <desc shapeID="17" type="0" basicInfo-basicType="0" basicInfo-roundedRectRadius="12" basicInfo-polygonSides="6" basicInfo-starPoints="5" bounding="rect(-31.4961,-32,62.9921,64)" text="" font-familyName="" font-pixelSize="20" font-bold="0" font-underline="0" font-alignment="1" strokeStyle="0" markerStart="0" markerEnd="0" shadowEnabled="0" shadowOffsetX="0" shadowOffsetY="2" shadowBlur="4" shadowOpacity="160" blurEnabled="0" blurRadius="4" transform="matrix(1,0,0,1,192.496,51)" pers-center="0,0" pers-size="0,0" pers-start="0,0" pers-end="0,0" locked="0" mesh="" flag=""/>
            <path id="shapePath17" d="M161,51 C161,33.3269 175.101,19 192.496,19 C200.849,19 208.86,22.3714 214.767,28.3726 C220.674,34.3737 223.992,42.5131 223.992,51 C223.992,68.6731 209.891,83 192.496,83 C175.101,83 161,68.6731 161,51 Z" style="stroke:#000000;stroke-opacity:1;stroke-width:1;stroke-linejoin:round;stroke-miterlimit:2;stroke-linecap:butt;fill:none;"/>
        </g>
        <g id="Shape18">
            <desc shapeID="18" type="0" basicInfo-basicType="0" basicInfo-roundedRectRadius="12" basicInfo-polygonSides="6" basicInfo-starPoints="5" bounding="rect(-38,-3.49606,76,6.99213)" text="" font-familyName="" font-pixelSize="20" font-bold="0" font-underline="0" font-alignment="1" strokeStyle="0" markerStart="0" markerEnd="0" shadowEnabled="0" shadowOffsetX="0" shadowOffsetY="2" shadowBlur="4" shadowOpacity="160" blurEnabled="0" blurRadius="4" transform="matrix(1,0,0,1,120.992,53.4961)" pers-center="0,0" pers-size="0,0" pers-start="0,0" pers-end="0,0" locked="0" mesh="" flag=""/>
            <path id="shapePath18" d="M158.992,53.4961 L86.4882,53.4961 L86.4882,50 L82.9921,53.4961 L86.4882,56.9921 L86.4882,53.4961 L158.992,53.4961 Z" style="stroke:none;fill-rule:nonzero;fill:#cfe2f3;fill-opacity:1;"/>
        </g>
        <g id="Shape19">
            <desc shapeID="19" type="0" basicInfo-basicType="0" basicInfo-roundedRectRadius="12" basicInfo-polygonSides="6" basicInfo-starPoints="5" bounding="rect(-38,-3.49606,76,6.99213)" text="" font-familyName="" font-pixelSize="20" font-bold="0" font-underline="0" font-alignment="1" strokeStyle="0" markerStart="0" markerEnd="0" shadowEnabled="0" shadowOffsetX="0" shadowOffsetY="2" shadowBlur="4" shadowOpacity="160" blurEnabled="0" blurRadius="4" transform="matrix(1,0,0,1,120.992,53.4961)" pers-center="0,0" pers-size="0,0" pers-start="0,0" pers-end="0,0" locked="0" mesh="" flag=""/>
            <path id="shapePath19" d="M158.992,53.4961 L86.4882,53.4961 L86.4882,50 L82.9921,53.4961 L86.4882,56.9921 L86.4882,53.4961 L158.992,53.4961 Z" style="stroke:#000000;stroke-opacity:1;stroke-width:1;stroke-linejoin:round;stroke-miterlimit:2;stroke-linecap:butt;fill:none;"/>
        </g>
        <g id="Shape20">
            <desc shapeID="20" type="0" basicInfo-basicType="0" basicInfo-roundedRectRadius="12" basicInfo-polygonSides="6" basicInfo-starPoints="5" bounding="rect(-40.9921,-30.9921,81.9843,61.9843)" text="" font-familyName="" font-pixelSize="20" font-bold="0" font-underline="0" font-alignment="1" strokeStyle="0" markerStart="0" markerEnd="0" shadowEnabled="0" shadowOffsetX="0" shadowOffsetY="2" shadowBlur="4" shadowOpacity="160" blurEnabled="0" blurRadius="4" transform="matrix(1,0,0,1,192.496,49.9921)" pers-center="0,0" pers-size="0,0" pers-start="0,0" pers-end="0,0" locked="0" mesh="" flag=""/>
            <path id="shapePath20" d="M151.504,19 L233.488,19 L233.488,80.9843 L151.504,80.9843 L151.504,19 Z" style="stroke:none;fill-rule:nonzero;fill:#000000;fill-opacity:0;"/>
        </g>
        <g id="Shape21">
            <desc shapeID="21" type="0" basicInfo-basicType="0" basicInfo-roundedRectRadius="12" basicInfo-polygonSides="6" basicInfo-starPoints="5" bounding="rect(-4.01562,-6.79688,8.03125,13.5938)" text="" font-familyName="" font-pixelSize="20" font-bold="0" font-underline="0" font-alignment="1" strokeStyle="0" markerStart="0" markerEnd="0" shadowEnabled="0" shadowOffsetX="0" shadowOffsetY="2" shadowBlur="4" shadowOpacity="160" blurEnabled="0" blurRadius="4" transform="matrix(1,0,0,1,189.115,50.1152)" pers-center="0,0" pers-size="0,0" pers-start="0,0" pers-end="0,0" locked="0" mesh="" flag=""/>
            <path id="shapePath21" d="M185.1,56.9121 L185.1,43.3184 L186.772,43.3184 L186.772,48.1934 C187.553,47.2871 188.537,46.834 189.725,46.834 C190.454,46.834 191.084,46.9798 191.615,47.2715 C192.157,47.5527 192.542,47.9486 192.772,48.459 C193.011,48.9694 193.131,49.7038 193.131,50.6621 L193.131,56.9121 L191.459,56.9121 L191.459,50.6621 C191.459,49.8288 191.277,49.2246 190.912,48.8496 C190.548,48.4642 190.037,48.2715 189.381,48.2715 C188.881,48.2715 188.412,48.4017 187.975,48.6621 C187.548,48.9121 187.24,49.2611 187.053,49.709 C186.865,50.1465 186.772,50.7507 186.772,51.5215 L186.772,56.9121 L185.1,56.9121 Z" style="stroke:none;fill-rule:nonzero;fill:#000000;fill-opacity:1;"/>
        </g>
        <g id="Shape22">
            <desc shapeID="22" type="0" basicInfo-basicType="0" basicInfo-roundedRectRadius="12" basicInfo-polygonSides="6" basicInfo-starPoints="5" bounding="rect(-1.57812,-4.3125,3.15625,8.625)" text="" font-familyName="" font-pixelSize="20" font-bold="0" font-underline="0" font-alignment="1" strokeStyle="0" markerStart="0" markerEnd="0" shadowEnabled="0" shadowOffsetX="0" shadowOffsetY="2" shadowBlur="4" shadowOpacity="160" blurEnabled="0" blurRadius="4" transform="matrix(1,0,0,1,197.116,59.5996)" pers-center="0,0" pers-size="0,0" pers-start="0,0" pers-end="0,0" locked="0" mesh="" flag=""/>
            <path id="shapePath22" d="M198.694,63.9121 L197.647,63.9121 L197.647,57.1934 C197.387,57.433 197.048,57.6777 196.632,57.9277 C196.225,58.1673 195.861,58.3444 195.538,58.459 L195.538,57.4434 C196.121,57.1621 196.632,56.8288 197.069,56.4434 C197.517,56.0475 197.835,55.6621 198.022,55.2871 L198.694,55.2871 L198.694,63.9121 Z" style="stroke:none;fill-rule:nonzero;fill:#000000;fill-opacity:1;"/>
        </g>
        <g id="Shape23">
            <desc shapeID="23" type="0" basicInfo-basicType="0" basicInfo-roundedRectRadius="12" basicInfo-polygonSides="6" basicInfo-starPoints="5" bounding="rect(-40.9921,-27.4961,81.9843,54.9921)" text="" font-familyName="" font-pixelSize="20" font-bold="0" font-underline="0" font-alignment="1" strokeStyle="0" markerStart="0" markerEnd="0" shadowEnabled="0" shadowOffsetX="0" shadowOffsetY="2" shadowBlur="4" shadowOpacity="160" blurEnabled="0" blurRadius="4" transform="matrix(1,0,0,1,128.496,37.4961)" pers-center="0,0" pers-size="0,0" pers-start="0,0" pers-end="0,0" locked="0" mesh="" flag=""/>
            <path id="shapePath23" d="M87.5039,10 L169.488,10 L169.488,64.9921 L87.5039,64.9921 L87.5039,10 Z" style="stroke:none;fill-rule:nonzero;fill:#000000;fill-opacity:0;"/>
        </g>
        <g id="Shape24">
            <desc shapeID="24" type="0" basicInfo-basicType="0" basicInfo-roundedRectRadius="12" basicInfo-polygonSides="6" basicInfo-starPoints="5" bounding="rect(-6.75781,-4.92969,13.5156,9.85938)" text="" font-familyName="" font-pixelSize="20" font-bold="0" font-underline="0" font-alignment="1" strokeStyle="0" markerStart="0" markerEnd="0" shadowEnabled="0" shadowOffsetX="0" shadowOffsetY="2" shadowBlur="4" shadowOpacity="160" blurEnabled="0" blurRadius="4" transform="matrix(1,0,0,1,125.121,39.4864)" pers-center="0,0" pers-size="0,0" pers-start="0,0" pers-end="0,0" locked="0" mesh="" flag=""/>
            <path id="shapePath24" d="M121.379,44.4161 L118.364,34.5567 L120.082,34.5567 L121.645,40.2442 L122.239,42.3692 C122.259,42.265 122.426,41.5879 122.739,40.3379 L124.317,34.5567 L126.035,34.5567 L127.504,40.2754 L127.989,42.1661 L128.567,40.2598 L130.254,34.5567 L131.879,34.5567 L128.801,44.4161 L127.067,44.4161 L125.489,38.5098 L125.114,36.8379 L123.114,44.4161 L121.379,44.4161 Z" style="stroke:none;fill-rule:nonzero;fill:#000000;fill-opacity:1;"/>
        </g>
        <g id="Shape25">
            <desc shapeID="25" type="0" basicInfo-basicType="0" basicInfo-roundedRectRadius="12" basicInfo-polygonSides="6" basicInfo-starPoints="5" bounding="rect(-1.57812,-4.3125,3.15625,8.625)" text="" font-familyName="" font-pixelSize="20" font-bold="0" font-underline="0" font-alignment="1" strokeStyle="0" markerStart="0" markerEnd="0" shadowEnabled="0" shadowOffsetX="0" shadowOffsetY="2" shadowBlur="4" shadowOpacity="160" blurEnabled="0" blurRadius="4" transform="matrix(1,0,0,1,134.665,47.1036)" pers-center="0,0" pers-size="0,0" pers-start="0,0" pers-end="0,0" locked="0" mesh="" flag=""/>
            <path id="shapePath25" d="M136.243,51.4161 L135.196,51.4161 L135.196,44.6973 C134.935,44.9369 134.597,45.1817 134.18,45.4317 C133.774,45.6713 133.409,45.8484 133.087,45.9629 L133.087,44.9473 C133.67,44.6661 134.18,44.3327 134.618,43.9473 C135.066,43.5515 135.383,43.1661 135.571,42.7911 L136.243,42.7911 L136.243,51.4161 Z" style="stroke:none;fill-rule:nonzero;fill:#000000;fill-opacity:1;"/>
        </g>
    </g>
</svg>
