<?xml version="1.0"?>
<svg version="1.1" xmlns="http://www.w3.org/2000/svg" xmlns:xlink="http://www.w3.org/1999/xlink" width="280" height="260">
    <desc iVinci="yes" version="4.6" gridStep="20" showGrid="no" snapToGrid="no" codePlatform="0"/>
    <g id="Layer1" name="Layer 1" opacity="1">
        <g id="Shape1">
            <desc shapeID="1" type="0" basicInfo-basicType="0" basicInfo-roundedRectRadius="12" basicInfo-polygonSides="6" basicInfo-starPoints="5" bounding="rect(-31.4961,-32,62.9921,64)" text="" font-familyName="" font-pixelSize="20" font-bold="0" font-underline="0" font-alignment="1" strokeStyle="0" markerStart="0" markerEnd="0" shadowEnabled="0" shadowOffsetX="0" shadowOffsetY="2" shadowBlur="4" shadowOpacity="160" blurEnabled="0" blurRadius="4" transform="matrix(1,0,0,1,62.4883,77.7061)" pers-center="0,0" pers-size="0,0" pers-start="0,0" pers-end="0,0" locked="0" mesh="" flag=""/>
            <path id="shapePath1" d="M30.9923,77.7061 C30.9923,60.0329 45.0936,45.7061 62.4883,45.7061 C70.8416,45.7061 78.8528,49.0775 84.7594,55.0786 C90.6661,61.0798 93.9844,69.2191 93.9844,77.7061 C93.9844,95.3792 79.8831,109.706 62.4883,109.706 C45.0936,109.706 30.9923,95.3792 30.9923,77.7061 Z" style="stroke:none;fill-rule:nonzero;fill:#cfe2f3;fill-opacity:1;"/>
        </g>
        <g id="Shape2">
            <desc shapeID="2" type="0" basicInfo-basicType="0" basicInfo-roundedRectRadius="12" basicInfo-polygonSides="6" basicInfo-starPoints="5" bounding="rect(-31.4961,-32,62.9921,64)" text="" font-familyName="" font-pixelSize="20" font-bold="0" font-underline="0" font-alignment="1" strokeStyle="0" markerStart="0" markerEnd="0" shadowEnabled="0" shadowOffsetX="0" shadowOffsetY="2" shadowBlur="4" shadowOpacity="160" blurEnabled="0" blurRadius="4" transform="matrix(1,0,0,1,62.4883,77.7061)" pers-center="0,0" pers-size="0,0" pers-start="0,0" pers-end="0,0" locked="0" mesh="" flag=""/>
            <path id="shapePath2" d="M30.9923,77.7061 C30.9923,60.0329 45.0936,45.7061 62.4883,45.7061 C70.8416,45.7061 78.8528,49.0775 84.7594,55.0786 C90.6661,61.0798 93.9844,69.2191 93.9844,77.7061 C93.9844,95.3792 79.8831,109.706 62.4883,109.706 C45.0936,109.706 30.9923,95.3792 30.9923,77.7061 Z" style="stroke:#000000;stroke-opacity:1;stroke-width:1;stroke-linejoin:round;stroke-miterlimit:2;stroke-linecap:butt;fill:none;"/>
        </g>
        <g id="Shape3">
            <desc shapeID="3" type="0" basicInfo-basicType="0" basicInfo-roundedRectRadius="12" basicInfo-polygonSides="6" basicInfo-starPoints="5" bounding="rect(-31.4961,-32,62.9921,64)" text="" font-familyName="" font-pixelSize="20" font-bold="0" font-underline="0" font-alignment="1" strokeStyle="0" markerStart="0" markerEnd="0" shadowEnabled="0" shadowOffsetX="0" shadowOffsetY="2" shadowBlur="4" shadowOpacity="160" blurEnabled="0" blurRadius="4" transform="matrix(1,0,0,1,206.488,77.7061)" pers-center="0,0" pers-size="0,0" pers-start="0,0" pers-end="0,0" locked="0" mesh="" flag=""/>
            <path id="shapePath3" d="M174.992,77.7061 C174.992,60.0329 189.094,45.7061 206.488,45.7061 C214.842,45.7061 222.853,49.0775 228.759,55.0786 C234.666,61.0798 237.984,69.2191 237.984,77.7061 C237.984,95.3792 223.883,109.706 206.488,109.706 C189.094,109.706 174.992,95.3792 174.992,77.7061 Z" style="stroke:none;fill-rule:nonzero;fill:#cfe2f3;fill-opacity:1;"/>
        </g>
        <g id="Shape4">
            <desc shapeID="4" type="0" basicInfo-basicType="0" basicInfo-roundedRectRadius="12" basicInfo-polygonSides="6" basicInfo-starPoints="5" bounding="rect(-31.4961,-32,62.9921,64)" text="" font-familyName="" font-pixelSize="20" font-bold="0" font-underline="0" font-alignment="1" strokeStyle="0" markerStart="0" markerEnd="0" shadowEnabled="0" shadowOffsetX="0" shadowOffsetY="2" shadowBlur="4" shadowOpacity="160" blurEnabled="0" blurRadius="4" transform="matrix(1,0,0,1,206.488,77.7061)" pers-center="0,0" pers-size="0,0" pers-start="0,0" pers-end="0,0" locked="0" mesh="" flag=""/>
            <path id="shapePath4" d="M174.992,77.7061 C174.992,60.0329 189.094,45.7061 206.488,45.7061 C214.842,45.7061 222.853,49.0775 228.759,55.0786 C234.666,61.0798 237.984,69.2191 237.984,77.7061 C237.984,95.3792 223.883,109.706 206.488,109.706 C189.094,109.706 174.992,95.3792 174.992,77.7061 Z" style="stroke:#000000;stroke-opacity:1;stroke-width:1;stroke-linejoin:round;stroke-miterlimit:2;stroke-linecap:butt;fill:none;"/>
        </g>
        <g id="Shape5">
            <desc shapeID="5" type="0" basicInfo-basicType="0" basicInfo-roundedRectRadius="12" basicInfo-polygonSides="6" basicInfo-starPoints="5" bounding="rect(-38,-3.49606,76,6.99213)" text="" font-familyName="" font-pixelSize="20" font-bold="0" font-underline="0" font-alignment="1" strokeStyle="0" markerStart="0" markerEnd="0" shadowEnabled="0" shadowOffsetX="0" shadowOffsetY="2" shadowBlur="4" shadowOpacity="160" blurEnabled="0" blurRadius="4" transform="matrix(1,0,0,1,134.984,80.2021)" pers-center="0,0" pers-size="0,0" pers-start="0,0" pers-end="0,0" locked="0" mesh="" flag=""/>
            <path id="shapePath5" d="M172.984,80.2021 L100.48,80.2021 L100.48,76.7061 L96.9844,80.2021 L100.48,83.6982 L100.48,80.2021 L172.984,80.2021 Z" style="stroke:none;fill-rule:nonzero;fill:#cfe2f3;fill-opacity:1;"/>
        </g>
        <g id="Shape6">
            <desc shapeID="6" type="0" basicInfo-basicType="0" basicInfo-roundedRectRadius="12" basicInfo-polygonSides="6" basicInfo-starPoints="5" bounding="rect(-38,-3.49606,76,6.99213)" text="" font-familyName="" font-pixelSize="20" font-bold="0" font-underline="0" font-alignment="1" strokeStyle="0" markerStart="0" markerEnd="0" shadowEnabled="0" shadowOffsetX="0" shadowOffsetY="2" shadowBlur="4" shadowOpacity="160" blurEnabled="0" blurRadius="4" transform="matrix(1,0,0,1,134.984,80.2021)" pers-center="0,0" pers-size="0,0" pers-start="0,0" pers-end="0,0" locked="0" mesh="" flag=""/>
            <path id="shapePath6" d="M172.984,80.2021 L100.48,80.2021 L100.48,76.7061 L96.9844,80.2021 L100.48,83.6982 L100.48,80.2021 L172.984,80.2021 Z" style="stroke:#000000;stroke-opacity:1;stroke-width:1;stroke-linejoin:round;stroke-miterlimit:2;stroke-linecap:butt;fill:none;"/>
        </g>
        <g id="Shape7">
            <desc shapeID="7" type="0" basicInfo-basicType="0" basicInfo-roundedRectRadius="12" basicInfo-polygonSides="6" basicInfo-starPoints="5" bounding="rect(-40.9921,-30.9921,81.9843,61.9843)" text="" font-familyName="" font-pixelSize="20" font-bold="0" font-underline="0" font-alignment="1" strokeStyle="0" markerStart="0" markerEnd="0" shadowEnabled="0" shadowOffsetX="0" shadowOffsetY="2" shadowBlur="4" shadowOpacity="160" blurEnabled="0" blurRadius="4" transform="matrix(1,0,0,1,62.4883,76.7061)" pers-center="0,0" pers-size="0,0" pers-start="0,0" pers-end="0,0" locked="0" mesh="" flag=""/>
            <path id="shapePath7" d="M21.4962,45.7139 L103.48,45.7139 L103.48,107.698 L21.4962,107.698 L21.4962,45.7139 Z" style="stroke:none;fill-rule:nonzero;fill:#000000;fill-opacity:0;"/>
        </g>
        <g id="Shape8">
            <desc shapeID="8" type="0" basicInfo-basicType="0" basicInfo-roundedRectRadius="12" basicInfo-polygonSides="6" basicInfo-starPoints="5" bounding="rect(-4.60938,-4.92969,9.21875,9.85938)" text="" font-familyName="" font-pixelSize="20" font-bold="0" font-underline="0" font-alignment="1" strokeStyle="0" markerStart="0" markerEnd="0" shadowEnabled="0" shadowOffsetX="0" shadowOffsetY="2" shadowBlur="4" shadowOpacity="160" blurEnabled="0" blurRadius="4" transform="matrix(1,0,0,1,59.1158,78.6964)" pers-center="0,0" pers-size="0,0" pers-start="0,0" pers-end="0,0" locked="0" mesh="" flag=""/>
            <path id="shapePath8" d="M54.5064,83.6261 L58.1001,78.5011 L54.772,73.7667 L56.8658,73.7667 L58.3814,76.0792 C58.6626,76.5167 58.8866,76.8865 59.0533,77.1886 C59.3345,76.7823 59.5897,76.4177 59.8189,76.0948 L61.4751,73.7667 L63.4595,73.7667 L60.0689,78.4073 L63.7251,83.6261 L61.6783,83.6261 L59.647,80.5636 L59.1158,79.7354 L56.522,83.6261 L54.5064,83.6261 Z" style="stroke:none;fill-rule:nonzero;fill:#000000;fill-opacity:1;"/>
        </g>
        <g id="Shape9">
            <desc shapeID="9" type="0" basicInfo-basicType="0" basicInfo-roundedRectRadius="12" basicInfo-polygonSides="6" basicInfo-starPoints="5" bounding="rect(-1.57812,-4.3125,3.15625,8.625)" text="" font-familyName="" font-pixelSize="20" font-bold="0" font-underline="0" font-alignment="1" strokeStyle="0" markerStart="0" markerEnd="0" shadowEnabled="0" shadowOffsetX="0" shadowOffsetY="2" shadowBlur="4" shadowOpacity="160" blurEnabled="0" blurRadius="4" transform="matrix(1,0,0,1,66.5845,86.3136)" pers-center="0,0" pers-size="0,0" pers-start="0,0" pers-end="0,0" locked="0" mesh="" flag=""/>
            <path id="shapePath9" d="M68.1626,90.6261 L67.1158,90.6261 L67.1158,83.9073 C66.8553,84.1469 66.5168,84.3917 66.1001,84.6417 C65.6939,84.8813 65.3293,85.0583 65.0064,85.1729 L65.0064,84.1573 C65.5897,83.8761 66.1001,83.5427 66.5376,83.1573 C66.9855,82.7615 67.3033,82.3761 67.4908,82.0011 L68.1626,82.0011 L68.1626,90.6261 Z" style="stroke:none;fill-rule:nonzero;fill:#000000;fill-opacity:1;"/>
        </g>
        <g id="Shape10">
            <desc shapeID="10" type="0" basicInfo-basicType="0" basicInfo-roundedRectRadius="12" basicInfo-polygonSides="6" basicInfo-starPoints="5" bounding="rect(-40.9921,-30.9921,81.9843,61.9843)" text="" font-familyName="" font-pixelSize="20" font-bold="0" font-underline="0" font-alignment="1" strokeStyle="0" markerStart="0" markerEnd="0" shadowEnabled="0" shadowOffsetX="0" shadowOffsetY="2" shadowBlur="4" shadowOpacity="160" blurEnabled="0" blurRadius="4" transform="matrix(1,0,0,1,206.488,76.6982)" pers-center="0,0" pers-size="0,0" pers-start="0,0" pers-end="0,0" locked="0" mesh="" flag=""/>
            <path id="shapePath10" d="M165.496,45.7061 L247.48,45.7061 L247.48,107.69 L165.496,107.69 L165.496,45.7061 Z" style="stroke:none;fill-rule:nonzero;fill:#000000;fill-opacity:0;"/>
        </g>
        <g id="Shape11">
            <desc shapeID="11" type="0" basicInfo-basicType="0" basicInfo-roundedRectRadius="12" basicInfo-polygonSides="6" basicInfo-starPoints="5" bounding="rect(-4.50781,-6.92969,9.01562,13.8594)" text="" font-familyName="" font-pixelSize="20" font-bold="0" font-underline="0" font-alignment="1" strokeStyle="0" markerStart="0" markerEnd="0" shadowEnabled="0" shadowOffsetX="0" shadowOffsetY="2" shadowBlur="4" shadowOpacity="160" blurEnabled="0" blurRadius="4" transform="matrix(1,0,0,1,203.186,80.6885)" pers-center="0,0" pers-size="0,0" pers-start="0,0" pers-end="0,0" locked="0" mesh="" flag=""/>
            <path id="shapePath11" d="M199.538,87.4151 L199.366,85.8526 C199.73,85.9463 200.048,85.9932 200.319,85.9932 C200.683,85.9932 200.975,85.9307 201.194,85.8057 C201.423,85.6807 201.611,85.5088 201.756,85.2901 C201.861,85.1234 202.027,84.7067 202.256,84.0401 C202.288,83.9463 202.34,83.8109 202.413,83.6338 L198.678,73.7588 L200.475,73.7588 L202.522,79.4776 C202.793,80.1963 203.032,80.9567 203.241,81.7588 C203.428,80.988 203.657,80.238 203.928,79.5088 L206.022,73.7588 L207.694,73.7588 L203.944,83.7901 C203.548,84.8734 203.236,85.6182 203.006,86.0244 C202.715,86.5765 202.376,86.9776 201.991,87.2276 C201.605,87.488 201.147,87.6182 200.616,87.6182 C200.293,87.6182 199.933,87.5505 199.538,87.4151 Z" style="stroke:none;fill-rule:nonzero;fill:#000000;fill-opacity:1;"/>
        </g>
        <g id="Shape12">
            <desc shapeID="12" type="0" basicInfo-basicType="0" basicInfo-roundedRectRadius="12" basicInfo-polygonSides="6" basicInfo-starPoints="5" bounding="rect(-1.57812,-4.3125,3.15625,8.625)" text="" font-familyName="" font-pixelSize="20" font-bold="0" font-underline="0" font-alignment="1" strokeStyle="0" markerStart="0" markerEnd="0" shadowEnabled="0" shadowOffsetX="0" shadowOffsetY="2" shadowBlur="4" shadowOpacity="160" blurEnabled="0" blurRadius="4" transform="matrix(1,0,0,1,210.585,86.3057)" pers-center="0,0" pers-size="0,0" pers-start="0,0" pers-end="0,0" locked="0" mesh="" flag=""/>
            <path id="shapePath12" d="M212.163,90.6182 L211.116,90.6182 L211.116,83.8994 C210.855,84.139 210.517,84.3838 210.1,84.6338 C209.694,84.8734 209.329,85.0505 209.006,85.1651 L209.006,84.1494 C209.59,83.8682 210.1,83.5348 210.538,83.1494 C210.986,82.7536 211.303,82.3682 211.491,81.9932 L212.163,81.9932 L212.163,90.6182 Z" style="stroke:none;fill-rule:nonzero;fill:#000000;fill-opacity:1;"/>
        </g>
        <g id="Shape13">
            <desc shapeID="13" type="0" basicInfo-basicType="0" basicInfo-roundedRectRadius="12" basicInfo-polygonSides="6" basicInfo-starPoints="5" bounding="rect(-40.9921,-27.4961,81.9843,54.9921)" text="" font-familyName="" font-pixelSize="20" font-bold="0" font-underline="0" font-alignment="1" strokeStyle="0" markerStart="0" markerEnd="0" shadowEnabled="0" shadowOffsetX="0" shadowOffsetY="2" shadowBlur="4" shadowOpacity="160" blurEnabled="0" blurRadius="4" transform="matrix(1,0,0,1,142.488,64.2021)" pers-center="0,0" pers-size="0,0" pers-start="0,0" pers-end="0,0" locked="0" mesh="" flag=""/>
            <path id="shapePath13" d="M101.496,36.7061 L183.48,36.7061 L183.48,91.6982 L101.496,91.6982 L101.496,36.7061 Z" style="stroke:none;fill-rule:nonzero;fill:#000000;fill-opacity:0;"/>
        </g>
        <g id="Shape14">
            <desc shapeID="14" type="0" basicInfo-basicType="0" basicInfo-roundedRectRadius="12" basicInfo-polygonSides="6" basicInfo-starPoints="5" bounding="rect(-6.75781,-4.92969,13.5156,9.85938)" text="" font-familyName="" font-pixelSize="20" font-bold="0" font-underline="0" font-alignment="1" strokeStyle="0" markerStart="0" markerEnd="0" shadowEnabled="0" shadowOffsetX="0" shadowOffsetY="2" shadowBlur="4" shadowOpacity="160" blurEnabled="0" blurRadius="4" transform="matrix(1,0,0,1,139.114,66.1924)" pers-center="0,0" pers-size="0,0" pers-start="0,0" pers-end="0,0" locked="0" mesh="" flag=""/>
            <path id="shapePath14" d="M135.371,71.1221 L132.356,61.2627 L134.075,61.2627 L135.637,66.9502 L136.231,69.0752 C136.252,68.9711 136.418,68.294 136.731,67.044 L138.309,61.2627 L140.028,61.2627 L141.496,66.9815 L141.981,68.8721 L142.559,66.9659 L144.246,61.2627 L145.871,61.2627 L142.793,71.1221 L141.059,71.1221 L139.481,65.2159 L139.106,63.544 L137.106,71.1221 L135.371,71.1221 Z" style="stroke:none;fill-rule:nonzero;fill:#000000;fill-opacity:1;"/>
        </g>
        <g id="Shape15">
            <desc shapeID="15" type="0" basicInfo-basicType="0" basicInfo-roundedRectRadius="12" basicInfo-polygonSides="6" basicInfo-starPoints="5" bounding="rect(-1.57812,-4.3125,3.15625,8.625)" text="" font-familyName="" font-pixelSize="20" font-bold="0" font-underline="0" font-alignment="1" strokeStyle="0" markerStart="0" markerEnd="0" shadowEnabled="0" shadowOffsetX="0" shadowOffsetY="2" shadowBlur="4" shadowOpacity="160" blurEnabled="0" blurRadius="4" transform="matrix(1,0,0,1,148.657,73.8096)" pers-center="0,0" pers-size="0,0" pers-start="0,0" pers-end="0,0" locked="0" mesh="" flag=""/>
            <path id="shapePath15" d="M150.235,78.1221 L149.188,78.1221 L149.188,71.4034 C148.928,71.6429 148.589,71.8877 148.173,72.1377 C147.766,72.3773 147.402,72.5544 147.079,72.669 L147.079,71.6534 C147.662,71.3721 148.173,71.0388 148.61,70.6534 C149.058,70.2575 149.376,69.8721 149.563,69.4971 L150.235,69.4971 L150.235,78.1221 Z" style="stroke:none;fill-rule:nonzero;fill:#000000;fill-opacity:1;"/>
        </g>
        <g id="Shape16">
            <desc shapeID="16" type="0" basicInfo-basicType="0" basicInfo-roundedRectRadius="12" basicInfo-polygonSides="6" basicInfo-starPoints="5" bounding="rect(-31.4961,-32,62.9921,64)" text="" font-familyName="" font-pixelSize="20" font-bold="0" font-underline="0" font-alignment="1" strokeStyle="0" markerStart="0" markerEnd="0" shadowEnabled="0" shadowOffsetX="0" shadowOffsetY="2" shadowBlur="4" shadowOpacity="160" blurEnabled="0" blurRadius="4" transform="matrix(1,0,0,1,206.488,173.706)" pers-center="0,0" pers-size="0,0" pers-start="0,0" pers-end="0,0" locked="0" mesh="" flag=""/>
            <path id="shapePath16" d="M174.992,173.706 C174.992,156.033 189.094,141.706 206.488,141.706 C214.842,141.706 222.853,145.077 228.759,151.079 C234.666,157.08 237.984,165.219 237.984,173.706 C237.984,191.379 223.883,205.706 206.488,205.706 C189.094,205.706 174.992,191.379 174.992,173.706 Z" style="stroke:none;fill-rule:nonzero;fill:#cfe2f3;fill-opacity:1;"/>
        </g>
        <g id="Shape17">
            <desc shapeID="17" type="0" basicInfo-basicType="0" basicInfo-roundedRectRadius="12" basicInfo-polygonSides="6" basicInfo-starPoints="5" bounding="rect(-31.4961,-32,62.9921,64)" text="" font-familyName="" font-pixelSize="20" font-bold="0" font-underline="0" font-alignment="1" strokeStyle="0" markerStart="0" markerEnd="0" shadowEnabled="0" shadowOffsetX="0" shadowOffsetY="2" shadowBlur="4" shadowOpacity="160" blurEnabled="0" blurRadius="4" transform="matrix(1,0,0,1,206.488,173.706)" pers-center="0,0" pers-size="0,0" pers-start="0,0" pers-end="0,0" locked="0" mesh="" flag=""/>
            <path id="shapePath17" d="M174.992,173.706 C174.992,156.033 189.094,141.706 206.488,141.706 C214.842,141.706 222.853,145.077 228.759,151.079 C234.666,157.08 237.984,165.219 237.984,173.706 C237.984,191.379 223.883,205.706 206.488,205.706 C189.094,205.706 174.992,191.379 174.992,173.706 Z" style="stroke:#000000;stroke-opacity:1;stroke-width:1;stroke-linejoin:round;stroke-miterlimit:2;stroke-linecap:butt;fill:none;"/>
        </g>
        <g id="Shape18">
            <desc shapeID="18" type="0" basicInfo-basicType="0" basicInfo-roundedRectRadius="12" basicInfo-polygonSides="6" basicInfo-starPoints="5" bounding="rect(-40.9921,-30.9921,81.9843,61.9843)" text="" font-familyName="" font-pixelSize="20" font-bold="0" font-underline="0" font-alignment="1" strokeStyle="0" markerStart="0" markerEnd="0" shadowEnabled="0" shadowOffsetX="0" shadowOffsetY="2" shadowBlur="4" shadowOpacity="160" blurEnabled="0" blurRadius="4" transform="matrix(1,0,0,1,206.488,172.698)" pers-center="0,0" pers-size="0,0" pers-start="0,0" pers-end="0,0" locked="0" mesh="" flag=""/>
            <path id="shapePath18" d="M165.496,141.706 L247.48,141.706 L247.48,203.69 L165.496,203.69 L165.496,141.706 Z" style="stroke:none;fill-rule:nonzero;fill:#000000;fill-opacity:0;"/>
        </g>
        <g id="Shape19">
            <desc shapeID="19" type="0" basicInfo-basicType="0" basicInfo-roundedRectRadius="12" basicInfo-polygonSides="6" basicInfo-starPoints="5" bounding="rect(-4.50781,-6.92969,9.01562,13.8594)" text="" font-familyName="" font-pixelSize="20" font-bold="0" font-underline="0" font-alignment="1" strokeStyle="0" markerStart="0" markerEnd="0" shadowEnabled="0" shadowOffsetX="0" shadowOffsetY="2" shadowBlur="4" shadowOpacity="160" blurEnabled="0" blurRadius="4" transform="matrix(1,0,0,1,203.186,176.688)" pers-center="0,0" pers-size="0,0" pers-start="0,0" pers-end="0,0" locked="0" mesh="" flag=""/>
            <path id="shapePath19" d="M199.538,183.415 L199.366,181.853 C199.73,181.946 200.048,181.993 200.319,181.993 C200.683,181.993 200.975,181.931 201.194,181.806 C201.423,181.681 201.611,181.509 201.756,181.29 C201.861,181.123 202.027,180.707 202.256,180.04 C202.288,179.946 202.34,179.811 202.413,179.634 L198.678,169.759 L200.475,169.759 L202.522,175.478 C202.793,176.196 203.032,176.957 203.241,177.759 C203.428,176.988 203.657,176.238 203.928,175.509 L206.022,169.759 L207.694,169.759 L203.944,179.79 C203.548,180.873 203.236,181.618 203.006,182.024 C202.715,182.577 202.376,182.978 201.991,183.228 C201.605,183.488 201.147,183.618 200.616,183.618 C200.293,183.618 199.933,183.55 199.538,183.415 Z" style="stroke:none;fill-rule:nonzero;fill:#000000;fill-opacity:1;"/>
        </g>
        <g id="Shape20">
            <desc shapeID="20" type="0" basicInfo-basicType="0" basicInfo-roundedRectRadius="12" basicInfo-polygonSides="6" basicInfo-starPoints="5" bounding="rect(-2.84375,-4.3125,5.6875,8.625)" text="" font-familyName="" font-pixelSize="20" font-bold="0" font-underline="0" font-alignment="1" strokeStyle="0" markerStart="0" markerEnd="0" shadowEnabled="0" shadowOffsetX="0" shadowOffsetY="2" shadowBlur="4" shadowOpacity="160" blurEnabled="0" blurRadius="4" transform="matrix(1,0,0,1,210.897,182.306)" pers-center="0,0" pers-size="0,0" pers-start="0,0" pers-end="0,0" locked="0" mesh="" flag=""/>
            <path id="shapePath20" d="M213.741,185.603 L213.741,186.618 L208.053,186.618 C208.053,186.368 208.095,186.123 208.178,185.884 C208.324,185.498 208.553,185.118 208.866,184.743 C209.189,184.368 209.652,183.936 210.256,183.446 C211.194,182.675 211.824,182.066 212.147,181.618 C212.48,181.17 212.647,180.748 212.647,180.353 C212.647,179.936 212.496,179.587 212.194,179.306 C211.892,179.014 211.501,178.868 211.022,178.868 C210.512,178.868 210.105,179.019 209.803,179.321 C209.501,179.623 209.345,180.045 209.335,180.587 L208.256,180.478 C208.329,179.665 208.605,179.05 209.085,178.634 C209.574,178.207 210.23,177.993 211.053,177.993 C211.876,177.993 212.527,178.222 213.006,178.681 C213.486,179.139 213.725,179.707 213.725,180.384 C213.725,180.728 213.652,181.066 213.506,181.399 C213.371,181.722 213.137,182.071 212.803,182.446 C212.48,182.811 211.944,183.311 211.194,183.946 C210.558,184.478 210.147,184.842 209.96,185.04 C209.782,185.228 209.637,185.415 209.522,185.603 L213.741,185.603 Z" style="stroke:none;fill-rule:nonzero;fill:#000000;fill-opacity:1;"/>
        </g>
        <g id="Shape21">
            <desc shapeID="21" type="0" basicInfo-basicType="0" basicInfo-roundedRectRadius="12" basicInfo-polygonSides="6" basicInfo-starPoints="5" bounding="rect(-40.9921,-27.4961,81.9843,54.9921)" text="" font-familyName="" font-pixelSize="20" font-bold="0" font-underline="0" font-alignment="1" strokeStyle="0" markerStart="0" markerEnd="0" shadowEnabled="0" shadowOffsetX="0" shadowOffsetY="2" shadowBlur="4" shadowOpacity="160" blurEnabled="0" blurRadius="4" transform="matrix(1,0,0,1,142.488,119.202)" pers-center="0,0" pers-size="0,0" pers-start="0,0" pers-end="0,0" locked="0" mesh="" flag=""/>
            <path id="shapePath21" d="M101.496,91.7061 L183.48,91.7061 L183.48,146.698 L101.496,146.698 L101.496,91.7061 Z" style="stroke:none;fill-rule:nonzero;fill:#000000;fill-opacity:0;"/>
        </g>
        <g id="Shape22">
            <desc shapeID="22" type="0" basicInfo-basicType="0" basicInfo-roundedRectRadius="12" basicInfo-polygonSides="6" basicInfo-starPoints="5" bounding="rect(-6.75781,-4.92969,13.5156,9.85938)" text="" font-familyName="" font-pixelSize="20" font-bold="0" font-underline="0" font-alignment="1" strokeStyle="0" markerStart="0" markerEnd="0" shadowEnabled="0" shadowOffsetX="0" shadowOffsetY="2" shadowBlur="4" shadowOpacity="160" blurEnabled="0" blurRadius="4" transform="matrix(1,0,0,1,139.114,121.192)" pers-center="0,0" pers-size="0,0" pers-start="0,0" pers-end="0,0" locked="0" mesh="" flag=""/>
            <path id="shapePath22" d="M135.371,126.122 L132.356,116.263 L134.075,116.263 L135.637,121.95 L136.231,124.075 C136.252,123.971 136.418,123.294 136.731,122.044 L138.309,116.263 L140.028,116.263 L141.496,121.981 L141.981,123.872 L142.559,121.966 L144.246,116.263 L145.871,116.263 L142.793,126.122 L141.059,126.122 L139.481,120.216 L139.106,118.544 L137.106,126.122 L135.371,126.122 Z" style="stroke:none;fill-rule:nonzero;fill:#000000;fill-opacity:1;"/>
        </g>
        <g id="Shape23">
            <desc shapeID="23" type="0" basicInfo-basicType="0" basicInfo-roundedRectRadius="12" basicInfo-polygonSides="6" basicInfo-starPoints="5" bounding="rect(-2.84375,-4.3125,5.6875,8.625)" text="" font-familyName="" font-pixelSize="20" font-bold="0" font-underline="0" font-alignment="1" strokeStyle="0" markerStart="0" markerEnd="0" shadowEnabled="0" shadowOffsetX="0" shadowOffsetY="2" shadowBlur="4" shadowOpacity="160" blurEnabled="0" blurRadius="4" transform="matrix(1,0,0,1,148.969,128.81)" pers-center="0,0" pers-size="0,0" pers-start="0,0" pers-end="0,0" locked="0" mesh="" flag=""/>
            <path id="shapePath23" d="M151.813,132.106 L151.813,133.122 L146.126,133.122 C146.126,132.872 146.167,132.627 146.251,132.388 C146.397,132.002 146.626,131.622 146.938,131.247 C147.261,130.872 147.725,130.44 148.329,129.95 C149.266,129.179 149.897,128.57 150.219,128.122 C150.553,127.674 150.719,127.252 150.719,126.856 C150.719,126.44 150.568,126.091 150.266,125.81 C149.964,125.518 149.574,125.372 149.094,125.372 C148.584,125.372 148.178,125.523 147.876,125.825 C147.574,126.127 147.417,126.549 147.407,127.091 L146.329,126.981 C146.402,126.169 146.678,125.554 147.157,125.138 C147.647,124.711 148.303,124.497 149.126,124.497 C149.949,124.497 150.6,124.726 151.079,125.185 C151.558,125.643 151.798,126.211 151.798,126.888 C151.798,127.231 151.725,127.57 151.579,127.903 C151.443,128.226 151.209,128.575 150.876,128.95 C150.553,129.315 150.016,129.815 149.266,130.45 C148.631,130.981 148.219,131.346 148.032,131.544 C147.855,131.731 147.709,131.919 147.594,132.106 L151.813,132.106 Z" style="stroke:none;fill-rule:nonzero;fill:#000000;fill-opacity:1;"/>
        </g>
        <g id="Shape24">
            <desc shapeID="24" type="0" basicInfo-basicType="0" basicInfo-roundedRectRadius="12" basicInfo-polygonSides="6" basicInfo-starPoints="5" bounding="rect(-39.3543,-33.8749,78.7087,67.7499)" text="" font-familyName="" font-pixelSize="20" font-bold="0" font-underline="0" font-alignment="1" strokeStyle="0" markerStart="0" markerEnd="0" shadowEnabled="0" shadowOffsetX="0" shadowOffsetY="2" shadowBlur="4" shadowOpacity="160" blurEnabled="0" blurRadius="4" transform="matrix(1,0,0,1,133.554,135.931)" pers-center="0,0" pers-size="0,0" pers-start="0,0" pers-end="0,0" locked="0" mesh="" flag=""/>
            <path id="shapePath24" d="M172.908,169.806 L96.8469,104.702 L99.1146,102.056 L94.1996,102.436 L94.5792,107.347 L96.8469,104.702 L172.908,169.806 Z" style="stroke:none;fill-rule:nonzero;fill:#cfe2f3;fill-opacity:1;"/>
        </g>
        <g id="Shape25">
            <desc shapeID="25" type="0" basicInfo-basicType="0" basicInfo-roundedRectRadius="12" basicInfo-polygonSides="6" basicInfo-starPoints="5" bounding="rect(-39.3543,-33.8749,78.7087,67.7499)" text="" font-familyName="" font-pixelSize="20" font-bold="0" font-underline="0" font-alignment="1" strokeStyle="0" markerStart="0" markerEnd="0" shadowEnabled="0" shadowOffsetX="0" shadowOffsetY="2" shadowBlur="4" shadowOpacity="160" blurEnabled="0" blurRadius="4" transform="matrix(1,0,0,1,133.554,135.931)" pers-center="0,0" pers-size="0,0" pers-start="0,0" pers-end="0,0" locked="0" mesh="" flag=""/>
            <path id="shapePath25" d="M172.908,169.806 L96.8469,104.702 L99.1146,102.056 L94.1996,102.436 L94.5792,107.347 L96.8469,104.702 L172.908,169.806 Z" style="stroke:#000000;stroke-opacity:1;stroke-width:1;stroke-linejoin:round;stroke-miterlimit:2;stroke-linecap:butt;fill:none;"/>
        </g>
        <g id="Shape26">
            <desc shapeID="26" type="0" basicInfo-basicType="0" basicInfo-roundedRectRadius="12" basicInfo-polygonSides="6" basicInfo-starPoints="5" bounding="rect(-120.992,-45.0079,241.984,90.0157)" text="" font-familyName="" font-pixelSize="20" font-bold="0" font-underline="0" font-alignment="1" strokeStyle="0" markerStart="0" markerEnd="0" shadowEnabled="0" shadowOffsetX="0" shadowOffsetY="2" shadowBlur="4" shadowOpacity="160" blurEnabled="0" blurRadius="4" transform="matrix(1,0,0,1,135.984,74.7139)" pers-center="0,0" pers-size="0,0" pers-start="0,0" pers-end="0,0" locked="0" mesh="" flag=""/>
            <path id="shapePath26" d="M14.9923,29.7061 L256.977,29.7061 L256.977,119.722 L14.9923,119.722 L14.9923,29.7061 Z" style="stroke:none;fill-rule:nonzero;fill:#000000;fill-opacity:0;"/>
        </g>
        <g id="Shape27">
            <desc shapeID="27" type="0" basicInfo-basicType="0" basicInfo-roundedRectRadius="12" basicInfo-polygonSides="6" basicInfo-starPoints="5" bounding="rect(-120.992,-45.0079,241.984,90.0157)" text="" font-familyName="" font-pixelSize="20" font-bold="0" font-underline="0" font-alignment="1" strokeStyle="7" markerStart="0" markerEnd="0" shadowEnabled="0" shadowOffsetX="0" shadowOffsetY="2" shadowBlur="4" shadowOpacity="160" blurEnabled="0" blurRadius="4" transform="matrix(1,0,0,1,135.984,74.7139)" pers-center="0,0" pers-size="0,0" pers-start="0,0" pers-end="0,0" locked="0" mesh="" flag=""/>
            <path id="shapePath27" d="M14.9923,29.7061 L256.977,29.7061 L256.977,119.722 L14.9923,119.722 L14.9923,29.7061 Z" style="stroke:#0000ff;stroke-opacity:1;stroke-width:1;stroke-linejoin:round;stroke-miterlimit:2;stroke-linecap:butt;stroke-dasharray:6,3;fill:none;"/>
        </g>
        <g id="Shape28">
            <desc shapeID="28" type="0" basicInfo-basicType="0" basicInfo-roundedRectRadius="12" basicInfo-polygonSides="6" basicInfo-starPoints="5" bounding="rect(-136,-125.701,272,251.402)" text="" font-familyName="" font-pixelSize="20" font-bold="0" font-underline="0" font-alignment="1" strokeStyle="0" markerStart="0" markerEnd="0" shadowEnabled="0" shadowOffsetX="0" shadowOffsetY="2" shadowBlur="4" shadowOpacity="160" blurEnabled="0" blurRadius="4" transform="matrix(1,0,0,1,136,125.701)" pers-center="0,0" pers-size="0,0" pers-start="0,0" pers-end="0,0" locked="0" mesh="" flag=""/>
            <path id="shapePath28" d="M68.6299,1.52588e-05 L272,168.693 L203.37,251.402 L1.52588e-05,82.7087 L68.6299,1.52588e-05 Z" style="stroke:none;fill-rule:nonzero;fill:#000000;fill-opacity:0;"/>
        </g>
        <g id="Shape29">
            <desc shapeID="29" type="0" basicInfo-basicType="0" basicInfo-roundedRectRadius="12" basicInfo-polygonSides="6" basicInfo-starPoints="5" bounding="rect(-136,-125.701,272,251.402)" text="" font-familyName="" font-pixelSize="20" font-bold="0" font-underline="0" font-alignment="1" strokeStyle="7" markerStart="0" markerEnd="0" shadowEnabled="0" shadowOffsetX="0" shadowOffsetY="2" shadowBlur="4" shadowOpacity="160" blurEnabled="0" blurRadius="4" transform="matrix(1,0,0,1,136,125.701)" pers-center="0,0" pers-size="0,0" pers-start="0,0" pers-end="0,0" locked="0" mesh="" flag=""/>
            <path id="shapePath29" d="M68.6299,1.52588e-05 L272,168.693 L203.37,251.402 L1.52588e-05,82.7087 L68.6299,1.52588e-05 Z" style="stroke:#980000;stroke-opacity:1;stroke-width:1;stroke-linejoin:round;stroke-miterlimit:2;stroke-linecap:butt;stroke-dasharray:6,3;fill:none;"/>
        </g>
        <g id="Shape30">
            <desc shapeID="30" type="0" basicInfo-basicType="0" basicInfo-roundedRectRadius="12" basicInfo-polygonSides="6" basicInfo-starPoints="5" bounding="rect(-27.0079,-17.6535,54.0158,35.3071)" text="" font-familyName="" font-pixelSize="20" font-bold="0" font-underline="0" font-alignment="1" strokeStyle="0" markerStart="0" markerEnd="0" shadowEnabled="0" shadowOffsetX="0" shadowOffsetY="2" shadowBlur="4" shadowOpacity="160" blurEnabled="0" blurRadius="4" transform="matrix(1,0,0,1,139.236,28.0604)" pers-center="0,0" pers-size="0,0" pers-start="0,0" pers-end="0,0" locked="0" mesh="" flag=""/>
            <path id="shapePath30" d="M112.228,10.4068 L166.244,10.4068 L166.244,45.7139 L112.228,45.7139 L112.228,10.4068 Z" style="stroke:none;fill-rule:nonzero;fill:#000000;fill-opacity:0;"/>
        </g>
        <g id="Shape31">
            <desc shapeID="31" type="0" basicInfo-basicType="0" basicInfo-roundedRectRadius="12" basicInfo-polygonSides="6" basicInfo-starPoints="5" bounding="rect(-13.4344,-11.1094,26.8687,22.2188)" text="" font-familyName="" font-pixelSize="20" font-bold="0" font-underline="0" font-alignment="1" strokeStyle="0" markerStart="0" markerEnd="0" shadowEnabled="0" shadowOffsetX="0" shadowOffsetY="2" shadowBlur="4" shadowOpacity="160" blurEnabled="0" blurRadius="4" transform="matrix(1,0,0,1,134.663,31.5762)" pers-center="0,0" pers-size="0,0" pers-start="0,0" pers-end="0,0" locked="0" mesh="" flag=""/>
            <path id="shapePath31" d="M121.228,20.4668 L148.097,20.4668 L148.097,42.6856 L121.228,42.6856 L121.228,20.4668 Z" style="stroke:none;fill-rule:nonzero;fill:#fdfdfd;fill-opacity:1;"/>
        </g>
        <g id="Shape32">
            <desc shapeID="32" type="0" basicInfo-basicType="0" basicInfo-roundedRectRadius="12" basicInfo-polygonSides="6" basicInfo-starPoints="5" bounding="rect(-13.2522,-6.79688,26.5043,13.5938)" text="" font-familyName="" font-pixelSize="20" font-bold="0" font-underline="0" font-alignment="1" strokeStyle="0" markerStart="0" markerEnd="0" shadowEnabled="0" shadowOffsetX="0" shadowOffsetY="2" shadowBlur="4" shadowOpacity="160" blurEnabled="0" blurRadius="4" transform="matrix(1,0,0,1,134.465,31.17)" pers-center="0,0" pers-size="0,0" pers-start="0,0" pers-end="0,0" locked="0" mesh="" flag=""/>
            <path id="shapePath32" d="M121.213,37.9668 L126.432,24.3731 L128.369,24.3731 L133.932,37.9668 L121.213,37.9668 M123.713,36.3575 L131.26,36.3575 L128.322,28.6075 C127.885,27.4512 127.562,26.5137 127.353,25.795 C127.187,26.6387 126.947,27.5033 126.635,28.3887 L123.713,36.3575 M137.217,37.9668 L134.202,28.1075 L135.92,28.1075 L137.483,33.795 L138.077,35.92 C138.097,35.8158 138.264,35.1387 138.577,33.8887 L140.155,28.1075 L141.873,28.1075 L143.342,33.8262 L143.827,35.7168 L144.405,33.8106 L146.092,28.1075 L147.717,28.1075 L144.639,37.9668 L142.905,37.9668 L141.327,32.0606 L140.952,30.3887 L138.952,37.9668 L137.217,37.9668 Z" style="stroke:none;fill-rule:nonzero;fill:#0000ff;fill-opacity:1;"/>
        </g>
        <g id="Shape33">
            <desc shapeID="33" type="0" basicInfo-basicType="0" basicInfo-roundedRectRadius="12" basicInfo-polygonSides="6" basicInfo-starPoints="5" bounding="rect(-2.4679,-5.10156,4.93579,10.2031)" text="" font-familyName="" font-pixelSize="20" font-bold="0" font-underline="0" font-alignment="1" strokeStyle="0" markerStart="0" markerEnd="0" shadowEnabled="0" shadowOffsetX="0" shadowOffsetY="2" shadowBlur="4" shadowOpacity="160" blurEnabled="0" blurRadius="4" transform="matrix(1,0,0,1,150.565,40.0372)" pers-center="0,0" pers-size="0,0" pers-start="0,0" pers-end="0,0" locked="0" mesh="" flag=""/>
            <path id="shapePath33" d="M148.097,34.9356 L153.033,34.9356 L153.033,45.1387 L148.097,45.1387 L148.097,34.9356 Z" style="stroke:none;fill-rule:nonzero;fill:#fdfdfd;fill-opacity:1;"/>
        </g>
        <g id="Shape34">
            <desc shapeID="34" type="0" basicInfo-basicType="0" basicInfo-roundedRectRadius="12" basicInfo-polygonSides="6" basicInfo-starPoints="5" bounding="rect(-1.1875,-3.23438,2.375,6.46875)" text="" font-familyName="" font-pixelSize="20" font-bold="0" font-underline="0" font-alignment="1" strokeStyle="0" markerStart="0" markerEnd="0" shadowEnabled="0" shadowOffsetX="0" shadowOffsetY="2" shadowBlur="4" shadowOpacity="160" blurEnabled="0" blurRadius="4" transform="matrix(1,0,0,1,150.269,39.7325)" pers-center="0,0" pers-size="0,0" pers-start="0,0" pers-end="0,0" locked="0" mesh="" flag=""/>
            <path id="shapePath34" d="M151.457,42.9668 L150.66,42.9668 L150.66,37.92 C150.472,38.1075 150.222,38.295 149.91,38.4825 C149.597,38.6595 149.321,38.7898 149.082,38.8731 L149.082,38.1075 C149.519,37.9095 149.905,37.6648 150.238,37.3731 C150.571,37.071 150.806,36.7793 150.941,36.4981 L151.457,36.4981 L151.457,42.9668 Z" style="stroke:none;fill-rule:nonzero;fill:#0000ff;fill-opacity:1;"/>
        </g>
        <g id="Shape35">
            <desc shapeID="35" type="0" basicInfo-basicType="0" basicInfo-roundedRectRadius="12" basicInfo-polygonSides="6" basicInfo-starPoints="5" bounding="rect(-32.1102,-30.6772,64.2205,61.3543)" text="" font-familyName="" font-pixelSize="20" font-bold="0" font-underline="0" font-alignment="1" strokeStyle="0" markerStart="0" markerEnd="0" shadowEnabled="0" shadowOffsetX="0" shadowOffsetY="2" shadowBlur="4" shadowOpacity="160" blurEnabled="0" blurRadius="4" transform="matrix(1,0,0,1,107.99,164.358)" pers-center="0,0" pers-size="0,0" pers-start="0,0" pers-end="0,0" locked="0" mesh="" flag=""/>
            <path id="shapePath35" d="M97.99,133.681 L140.1,167.508 L117.99,195.035 L75.8798,161.208 L97.99,133.681 Z" style="stroke:none;fill-rule:nonzero;fill:#000000;fill-opacity:0;"/>
        </g>
        <g id="Shape36">
            <desc shapeID="36" type="0" basicInfo-basicType="0" basicInfo-roundedRectRadius="12" basicInfo-polygonSides="6" basicInfo-starPoints="5" bounding="rect(-17.4305,-17.0748,34.8611,34.1496)" text="" font-familyName="" font-pixelSize="20" font-bold="0" font-underline="0" font-alignment="1" strokeStyle="0" markerStart="0" markerEnd="0" shadowEnabled="0" shadowOffsetX="0" shadowOffsetY="2" shadowBlur="4" shadowOpacity="160" blurEnabled="0" blurRadius="4" transform="matrix(1,0,0,1,102.224,164.235)" pers-center="0,0" pers-size="0,0" pers-start="0,0" pers-end="0,0" locked="0" mesh="" flag=""/>
            <path id="shapePath36" d="M98.7068,147.16 L119.654,163.987 L105.74,181.31 L84.793,164.483 L98.7068,147.16 Z" style="stroke:none;fill-rule:nonzero;fill:#fdfdfd;fill-opacity:1;"/>
        </g>
        <g id="Shape37">
            <desc shapeID="37" type="0" basicInfo-basicType="0" basicInfo-roundedRectRadius="12" basicInfo-polygonSides="6" basicInfo-starPoints="5" bounding="rect(-13.4186,-11.0005,26.8373,22.0009)" text="" font-familyName="" font-pixelSize="20" font-bold="0" font-underline="0" font-alignment="1" strokeStyle="0" markerStart="0" markerEnd="0" shadowEnabled="0" shadowOffsetX="0" shadowOffsetY="2" shadowBlur="4" shadowOpacity="160" blurEnabled="0" blurRadius="4" transform="matrix(1,0,0,1,101.154,164.465)" pers-center="0,0" pers-size="0,0" pers-start="0,0" pers-end="0,0" locked="0" mesh="" flag=""/>
            <path id="shapePath37" d="M87.7358,160.795 L100.317,153.464 L101.828,154.678 L97.6516,168.76 L87.7358,160.795 M90.6927,161.105 L96.5763,165.832 L99.1394,157.95 C99.5224,156.774 99.8577,155.841 100.145,155.15 C99.4871,155.704 98.7589,156.228 97.9608,156.722 L90.6927,161.105 M100.213,170.817 L104.036,161.242 L105.376,162.318 L103.033,167.731 L102.165,169.76 C102.246,169.692 102.8,169.268 103.827,168.489 L108.677,164.97 L110.017,166.047 L107.581,171.425 L106.775,173.202 L108.419,172.078 L113.306,168.689 L114.573,169.706 L105.999,175.465 L104.647,174.379 L107.115,168.786 L107.87,167.248 L101.565,171.904 L100.213,170.817 Z" style="stroke:none;fill-rule:nonzero;fill:#980000;fill-opacity:1;"/>
        </g>
        <g id="Shape38">
            <desc shapeID="38" type="0" basicInfo-basicType="0" basicInfo-roundedRectRadius="12" basicInfo-polygonSides="6" basicInfo-starPoints="5" bounding="rect(-5.11871,-5.52295,10.2374,11.0459)" text="" font-familyName="" font-pixelSize="20" font-bold="0" font-underline="0" font-alignment="1" strokeStyle="0" markerStart="0" markerEnd="0" shadowEnabled="0" shadowOffsetX="0" shadowOffsetY="2" shadowBlur="4" shadowOpacity="160" blurEnabled="0" blurRadius="4" transform="matrix(1,0,0,1,109.323,180.791)" pers-center="0,0" pers-size="0,0" pers-start="0,0" pers-end="0,0" locked="0" mesh="" flag=""/>
            <path id="shapePath38" d="M110.594,175.268 L114.442,178.359 L108.052,186.314 L104.204,183.223 L110.594,175.268 Z" style="stroke:none;fill-rule:nonzero;fill:#fdfdfd;fill-opacity:1;"/>
        </g>
        <g id="Shape39">
            <desc shapeID="39" type="0" basicInfo-basicType="0" basicInfo-roundedRectRadius="12" basicInfo-polygonSides="6" basicInfo-starPoints="5" bounding="rect(-3.3168,-3.42493,6.63363,6.84986)" text="" font-familyName="" font-pixelSize="20" font-bold="0" font-underline="0" font-alignment="1" strokeStyle="0" markerStart="0" markerEnd="0" shadowEnabled="0" shadowOffsetX="0" shadowOffsetY="2" shadowBlur="4" shadowOpacity="160" blurEnabled="0" blurRadius="4" transform="matrix(1,0,0,1,109.088,180.942)" pers-center="0,0" pers-size="0,0" pers-start="0,0" pers-end="0,0" locked="0" mesh="" flag=""/>
            <path id="shapePath39" d="M109.576,183.77 L109.097,184.367 L105.771,181.696 C105.889,181.549 106.027,181.427 106.187,181.328 C106.459,181.172 106.776,181.06 107.139,180.991 C107.502,180.922 107.972,180.885 108.55,180.881 C109.459,180.864 110.112,180.8 110.507,180.69 C110.911,180.587 111.207,180.417 111.396,180.182 C111.592,179.938 111.666,179.663 111.618,179.357 C111.584,179.05 111.429,178.785 111.153,178.563 C110.853,178.322 110.541,178.219 110.219,178.254 C109.897,178.289 109.609,178.465 109.354,178.782 L108.78,178.2 C109.199,177.761 109.648,177.535 110.128,177.519 C110.614,177.496 111.097,177.677 111.576,178.061 C112.055,178.446 112.325,178.884 112.386,179.373 C112.455,179.87 112.333,180.313 112.02,180.703 C111.857,180.906 111.657,181.072 111.419,181.202 C111.181,181.331 110.877,181.428 110.506,181.49 C110.149,181.551 109.602,181.593 108.863,181.614 C108.242,181.622 107.833,181.641 107.636,181.67 C107.439,181.699 107.265,181.74 107.116,181.794 L109.576,183.77 Z" style="stroke:none;fill-rule:nonzero;fill:#980000;fill-opacity:1;"/>
        </g>
    </g>
</svg>
