<?xml version="1.0"?>
<svg version="1.1" xmlns="http://www.w3.org/2000/svg" xmlns:xlink="http://www.w3.org/1999/xlink" width="420" height="280">
    <desc iVinci="yes" version="4.6" gridStep="20" showGrid="no" snapToGrid="no" codePlatform="0"/>
    <g id="Layer1" name="Layer 1" opacity="1">
        <g id="Shape1">
            <desc shapeID="1" type="0" basicInfo-basicType="0" basicInfo-roundedRectRadius="12" basicInfo-polygonSides="6" basicInfo-starPoints="5" bounding="rect(-31.4961,-32,62.9921,64)" text="" font-familyName="" font-pixelSize="20" font-bold="0" font-underline="0" font-alignment="1" strokeStyle="0" markerStart="0" markerEnd="0" shadowEnabled="0" shadowOffsetX="0" shadowOffsetY="2" shadowBlur="4" shadowOpacity="160" blurEnabled="0" blurRadius="4" transform="matrix(1,0,0,1,57.9842,97)" pers-center="0,0" pers-size="0,0" pers-start="0,0" pers-end="0,0" locked="0" mesh="" flag=""/>
            <path id="shapePath1" d="M26.4882,97 C26.4882,79.3269 40.5894,65 57.9842,65 C66.3375,65 74.3486,68.3714 80.2553,74.3726 C86.162,80.3737 89.4803,88.5131 89.4803,97 C89.4803,114.673 75.379,129 57.9842,129 C40.5894,129 26.4882,114.673 26.4882,97 Z" style="stroke:none;fill-rule:nonzero;fill:#cfe2f3;fill-opacity:1;"/>
        </g>
        <g id="Shape2">
            <desc shapeID="2" type="0" basicInfo-basicType="0" basicInfo-roundedRectRadius="12" basicInfo-polygonSides="6" basicInfo-starPoints="5" bounding="rect(-31.4961,-32,62.9921,64)" text="" font-familyName="" font-pixelSize="20" font-bold="0" font-underline="0" font-alignment="1" strokeStyle="0" markerStart="0" markerEnd="0" shadowEnabled="0" shadowOffsetX="0" shadowOffsetY="2" shadowBlur="4" shadowOpacity="160" blurEnabled="0" blurRadius="4" transform="matrix(1,0,0,1,57.9842,97)" pers-center="0,0" pers-size="0,0" pers-start="0,0" pers-end="0,0" locked="0" mesh="" flag=""/>
            <path id="shapePath2" d="M26.4882,97 C26.4882,79.3269 40.5894,65 57.9842,65 C66.3375,65 74.3486,68.3714 80.2553,74.3726 C86.162,80.3737 89.4803,88.5131 89.4803,97 C89.4803,114.673 75.379,129 57.9842,129 C40.5894,129 26.4882,114.673 26.4882,97 Z" style="stroke:#000000;stroke-opacity:1;stroke-width:1;stroke-linejoin:round;stroke-miterlimit:2;stroke-linecap:butt;fill:none;"/>
        </g>
        <g id="Shape3">
            <desc shapeID="3" type="0" basicInfo-basicType="0" basicInfo-roundedRectRadius="12" basicInfo-polygonSides="6" basicInfo-starPoints="5" bounding="rect(-31.4961,-32,62.9921,64)" text="" font-familyName="" font-pixelSize="20" font-bold="0" font-underline="0" font-alignment="1" strokeStyle="0" markerStart="0" markerEnd="0" shadowEnabled="0" shadowOffsetX="0" shadowOffsetY="2" shadowBlur="4" shadowOpacity="160" blurEnabled="0" blurRadius="4" transform="matrix(1,0,0,1,201.984,97)" pers-center="0,0" pers-size="0,0" pers-start="0,0" pers-end="0,0" locked="0" mesh="" flag=""/>
            <path id="shapePath3" d="M170.488,97 C170.488,79.3269 184.589,65 201.984,65 C210.337,65 218.349,68.3714 224.255,74.3726 C230.162,80.3737 233.48,88.5131 233.48,97 C233.48,114.673 219.379,129 201.984,129 C184.589,129 170.488,114.673 170.488,97 Z" style="stroke:none;fill-rule:nonzero;fill:#cfe2f3;fill-opacity:1;"/>
        </g>
        <g id="Shape4">
            <desc shapeID="4" type="0" basicInfo-basicType="0" basicInfo-roundedRectRadius="12" basicInfo-polygonSides="6" basicInfo-starPoints="5" bounding="rect(-31.4961,-32,62.9921,64)" text="" font-familyName="" font-pixelSize="20" font-bold="0" font-underline="0" font-alignment="1" strokeStyle="0" markerStart="0" markerEnd="0" shadowEnabled="0" shadowOffsetX="0" shadowOffsetY="2" shadowBlur="4" shadowOpacity="160" blurEnabled="0" blurRadius="4" transform="matrix(1,0,0,1,201.984,97)" pers-center="0,0" pers-size="0,0" pers-start="0,0" pers-end="0,0" locked="0" mesh="" flag=""/>
            <path id="shapePath4" d="M170.488,97 C170.488,79.3269 184.589,65 201.984,65 C210.337,65 218.349,68.3714 224.255,74.3726 C230.162,80.3737 233.48,88.5131 233.48,97 C233.48,114.673 219.379,129 201.984,129 C184.589,129 170.488,114.673 170.488,97 Z" style="stroke:#000000;stroke-opacity:1;stroke-width:1;stroke-linejoin:round;stroke-miterlimit:2;stroke-linecap:butt;fill:none;"/>
        </g>
        <g id="Shape5">
            <desc shapeID="5" type="0" basicInfo-basicType="0" basicInfo-roundedRectRadius="12" basicInfo-polygonSides="6" basicInfo-starPoints="5" bounding="rect(-38,-3.49606,76,6.99213)" text="" font-familyName="" font-pixelSize="20" font-bold="0" font-underline="0" font-alignment="1" strokeStyle="0" markerStart="0" markerEnd="0" shadowEnabled="0" shadowOffsetX="0" shadowOffsetY="2" shadowBlur="4" shadowOpacity="160" blurEnabled="0" blurRadius="4" transform="matrix(1,0,0,1,130.48,99.4961)" pers-center="0,0" pers-size="0,0" pers-start="0,0" pers-end="0,0" locked="0" mesh="" flag=""/>
            <path id="shapePath5" d="M168.48,99.4961 L95.9763,99.4961 L95.9763,96 L92.4803,99.4961 L95.9763,102.992 L95.9763,99.4961 L168.48,99.4961 Z" style="stroke:none;fill-rule:nonzero;fill:#cfe2f3;fill-opacity:1;"/>
        </g>
        <g id="Shape6">
            <desc shapeID="6" type="0" basicInfo-basicType="0" basicInfo-roundedRectRadius="12" basicInfo-polygonSides="6" basicInfo-starPoints="5" bounding="rect(-38,-3.49606,76,6.99213)" text="" font-familyName="" font-pixelSize="20" font-bold="0" font-underline="0" font-alignment="1" strokeStyle="0" markerStart="0" markerEnd="0" shadowEnabled="0" shadowOffsetX="0" shadowOffsetY="2" shadowBlur="4" shadowOpacity="160" blurEnabled="0" blurRadius="4" transform="matrix(1,0,0,1,130.48,99.4961)" pers-center="0,0" pers-size="0,0" pers-start="0,0" pers-end="0,0" locked="0" mesh="" flag=""/>
            <path id="shapePath6" d="M168.48,99.4961 L95.9763,99.4961 L95.9763,96 L92.4803,99.4961 L95.9763,102.992 L95.9763,99.4961 L168.48,99.4961 Z" style="stroke:#000000;stroke-opacity:1;stroke-width:1;stroke-linejoin:round;stroke-miterlimit:2;stroke-linecap:butt;fill:none;"/>
        </g>
        <g id="Shape7">
            <desc shapeID="7" type="0" basicInfo-basicType="0" basicInfo-roundedRectRadius="12" basicInfo-polygonSides="6" basicInfo-starPoints="5" bounding="rect(-40.9921,-30.9921,81.9843,61.9843)" text="" font-familyName="" font-pixelSize="20" font-bold="0" font-underline="0" font-alignment="1" strokeStyle="0" markerStart="0" markerEnd="0" shadowEnabled="0" shadowOffsetX="0" shadowOffsetY="2" shadowBlur="4" shadowOpacity="160" blurEnabled="0" blurRadius="4" transform="matrix(1,0,0,1,57.9842,96)" pers-center="0,0" pers-size="0,0" pers-start="0,0" pers-end="0,0" locked="0" mesh="" flag=""/>
            <path id="shapePath7" d="M16.9921,65.0079 L98.9763,65.0079 L98.9763,126.992 L16.9921,126.992 L16.9921,65.0079 Z" style="stroke:none;fill-rule:nonzero;fill:#000000;fill-opacity:0;"/>
        </g>
        <g id="Shape8">
            <desc shapeID="8" type="0" basicInfo-basicType="0" basicInfo-roundedRectRadius="12" basicInfo-polygonSides="6" basicInfo-starPoints="5" bounding="rect(-4.60938,-4.92969,9.21875,9.85938)" text="" font-familyName="" font-pixelSize="20" font-bold="0" font-underline="0" font-alignment="1" strokeStyle="0" markerStart="0" markerEnd="0" shadowEnabled="0" shadowOffsetX="0" shadowOffsetY="2" shadowBlur="4" shadowOpacity="160" blurEnabled="0" blurRadius="4" transform="matrix(1,0,0,1,54.6116,97.9903)" pers-center="0,0" pers-size="0,0" pers-start="0,0" pers-end="0,0" locked="0" mesh="" flag=""/>
            <path id="shapePath8" d="M50.0023,102.92 L53.596,97.795 L50.2679,93.0606 L52.3616,93.0606 L53.8773,95.3731 C54.1585,95.8106 54.3825,96.1804 54.5491,96.4825 C54.8304,96.0762 55.0856,95.7117 55.3148,95.3887 L56.971,93.0606 L58.9554,93.0606 L55.5648,97.7012 L59.221,102.92 L57.1741,102.92 L55.1429,99.8575 L54.6116,99.0294 L52.0179,102.92 L50.0023,102.92 Z" style="stroke:none;fill-rule:nonzero;fill:#000000;fill-opacity:1;"/>
        </g>
        <g id="Shape9">
            <desc shapeID="9" type="0" basicInfo-basicType="0" basicInfo-roundedRectRadius="12" basicInfo-polygonSides="6" basicInfo-starPoints="5" bounding="rect(-1.57812,-4.3125,3.15625,8.625)" text="" font-familyName="" font-pixelSize="20" font-bold="0" font-underline="0" font-alignment="1" strokeStyle="0" markerStart="0" markerEnd="0" shadowEnabled="0" shadowOffsetX="0" shadowOffsetY="2" shadowBlur="4" shadowOpacity="160" blurEnabled="0" blurRadius="4" transform="matrix(1,0,0,1,62.0804,105.607)" pers-center="0,0" pers-size="0,0" pers-start="0,0" pers-end="0,0" locked="0" mesh="" flag=""/>
            <path id="shapePath9" d="M63.6585,109.92 L62.6116,109.92 L62.6116,103.201 C62.3512,103.441 62.0127,103.686 61.596,103.936 C61.1898,104.175 60.8252,104.352 60.5023,104.467 L60.5023,103.451 C61.0856,103.17 61.596,102.837 62.0335,102.451 C62.4814,102.055 62.7991,101.67 62.9866,101.295 L63.6585,101.295 L63.6585,109.92 Z" style="stroke:none;fill-rule:nonzero;fill:#000000;fill-opacity:1;"/>
        </g>
        <g id="Shape10">
            <desc shapeID="10" type="0" basicInfo-basicType="0" basicInfo-roundedRectRadius="12" basicInfo-polygonSides="6" basicInfo-starPoints="5" bounding="rect(-40.9921,-30.9921,81.9843,61.9843)" text="" font-familyName="" font-pixelSize="20" font-bold="0" font-underline="0" font-alignment="1" strokeStyle="0" markerStart="0" markerEnd="0" shadowEnabled="0" shadowOffsetX="0" shadowOffsetY="2" shadowBlur="4" shadowOpacity="160" blurEnabled="0" blurRadius="4" transform="matrix(1,0,0,1,201.984,95.9921)" pers-center="0,0" pers-size="0,0" pers-start="0,0" pers-end="0,0" locked="0" mesh="" flag=""/>
            <path id="shapePath10" d="M160.992,65 L242.976,65 L242.976,126.984 L160.992,126.984 L160.992,65 Z" style="stroke:none;fill-rule:nonzero;fill:#000000;fill-opacity:0;"/>
        </g>
        <g id="Shape11">
            <desc shapeID="11" type="0" basicInfo-basicType="0" basicInfo-roundedRectRadius="12" basicInfo-polygonSides="6" basicInfo-starPoints="5" bounding="rect(-4.01562,-6.79688,8.03125,13.5938)" text="" font-familyName="" font-pixelSize="20" font-bold="0" font-underline="0" font-alignment="1" strokeStyle="0" markerStart="0" markerEnd="0" shadowEnabled="0" shadowOffsetX="0" shadowOffsetY="2" shadowBlur="4" shadowOpacity="160" blurEnabled="0" blurRadius="4" transform="matrix(1,0,0,1,198.603,96.1152)" pers-center="0,0" pers-size="0,0" pers-start="0,0" pers-end="0,0" locked="0" mesh="" flag=""/>
            <path id="shapePath11" d="M194.588,102.912 L194.588,89.3184 L196.26,89.3184 L196.26,94.1934 C197.041,93.2871 198.025,92.834 199.213,92.834 C199.942,92.834 200.572,92.9798 201.103,93.2715 C201.645,93.5527 202.031,93.9486 202.26,94.459 C202.499,94.9694 202.619,95.7038 202.619,96.6621 L202.619,102.912 L200.947,102.912 L200.947,96.6621 C200.947,95.8288 200.765,95.2246 200.4,94.8496 C200.036,94.4642 199.525,94.2715 198.869,94.2715 C198.369,94.2715 197.9,94.4017 197.463,94.6621 C197.036,94.9121 196.728,95.2611 196.541,95.709 C196.353,96.1465 196.26,96.7507 196.26,97.5215 L196.26,102.912 L194.588,102.912 Z" style="stroke:none;fill-rule:nonzero;fill:#000000;fill-opacity:1;"/>
        </g>
        <g id="Shape12">
            <desc shapeID="12" type="0" basicInfo-basicType="0" basicInfo-roundedRectRadius="12" basicInfo-polygonSides="6" basicInfo-starPoints="5" bounding="rect(-1.57812,-4.3125,3.15625,8.625)" text="" font-familyName="" font-pixelSize="20" font-bold="0" font-underline="0" font-alignment="1" strokeStyle="0" markerStart="0" markerEnd="0" shadowEnabled="0" shadowOffsetX="0" shadowOffsetY="2" shadowBlur="4" shadowOpacity="160" blurEnabled="0" blurRadius="4" transform="matrix(1,0,0,1,206.604,105.6)" pers-center="0,0" pers-size="0,0" pers-start="0,0" pers-end="0,0" locked="0" mesh="" flag=""/>
            <path id="shapePath12" d="M208.182,109.912 L207.135,109.912 L207.135,103.193 C206.875,103.433 206.536,103.678 206.12,103.928 C205.714,104.167 205.349,104.344 205.026,104.459 L205.026,103.443 C205.609,103.162 206.12,102.829 206.557,102.443 C207.005,102.048 207.323,101.662 207.51,101.287 L208.182,101.287 L208.182,109.912 Z" style="stroke:none;fill-rule:nonzero;fill:#000000;fill-opacity:1;"/>
        </g>
        <g id="Shape13">
            <desc shapeID="13" type="0" basicInfo-basicType="0" basicInfo-roundedRectRadius="12" basicInfo-polygonSides="6" basicInfo-starPoints="5" bounding="rect(-40.9921,-27.4961,81.9843,54.9921)" text="" font-familyName="" font-pixelSize="20" font-bold="0" font-underline="0" font-alignment="1" strokeStyle="0" markerStart="0" markerEnd="0" shadowEnabled="0" shadowOffsetX="0" shadowOffsetY="2" shadowBlur="4" shadowOpacity="160" blurEnabled="0" blurRadius="4" transform="matrix(1,0,0,1,137.984,83.4961)" pers-center="0,0" pers-size="0,0" pers-start="0,0" pers-end="0,0" locked="0" mesh="" flag=""/>
            <path id="shapePath13" d="M96.9921,56 L178.976,56 L178.976,110.992 L96.9921,110.992 L96.9921,56 Z" style="stroke:none;fill-rule:nonzero;fill:#000000;fill-opacity:0;"/>
        </g>
        <g id="Shape14">
            <desc shapeID="14" type="0" basicInfo-basicType="0" basicInfo-roundedRectRadius="12" basicInfo-polygonSides="6" basicInfo-starPoints="5" bounding="rect(-6.75781,-4.92969,13.5156,9.85938)" text="" font-familyName="" font-pixelSize="20" font-bold="0" font-underline="0" font-alignment="1" strokeStyle="0" markerStart="0" markerEnd="0" shadowEnabled="0" shadowOffsetX="0" shadowOffsetY="2" shadowBlur="4" shadowOpacity="160" blurEnabled="0" blurRadius="4" transform="matrix(1,0,0,1,127.693,85.4864)" pers-center="0,0" pers-size="0,0" pers-start="0,0" pers-end="0,0" locked="0" mesh="" flag=""/>
            <path id="shapePath14" d="M123.95,90.4161 L120.935,80.5567 L122.653,80.5567 L124.216,86.2442 L124.81,88.3692 C124.831,88.265 124.997,87.5879 125.31,86.3379 L126.888,80.5567 L128.607,80.5567 L130.075,86.2754 L130.56,88.1661 L131.138,86.2598 L132.825,80.5567 L134.45,80.5567 L131.372,90.4161 L129.638,90.4161 L128.06,84.5098 L127.685,82.8379 L125.685,90.4161 L123.95,90.4161 Z" style="stroke:none;fill-rule:nonzero;fill:#000000;fill-opacity:1;"/>
        </g>
        <g id="Shape15">
            <desc shapeID="15" type="0" basicInfo-basicType="0" basicInfo-roundedRectRadius="12" basicInfo-polygonSides="6" basicInfo-starPoints="5" bounding="rect(-1.57812,-4.3125,3.15625,8.625)" text="" font-familyName="" font-pixelSize="20" font-bold="0" font-underline="0" font-alignment="1" strokeStyle="0" markerStart="0" markerEnd="0" shadowEnabled="0" shadowOffsetX="0" shadowOffsetY="2" shadowBlur="4" shadowOpacity="160" blurEnabled="0" blurRadius="4" transform="matrix(1,0,0,1,137.236,79.1036)" pers-center="0,0" pers-size="0,0" pers-start="0,0" pers-end="0,0" locked="0" mesh="" flag=""/>
            <path id="shapePath15" d="M138.814,83.4161 L137.767,83.4161 L137.767,76.6973 C137.507,76.9369 137.168,77.1817 136.751,77.4317 C136.345,77.6713 135.981,77.8484 135.658,77.9629 L135.658,76.9473 C136.241,76.6661 136.751,76.3327 137.189,75.9473 C137.637,75.5515 137.955,75.1661 138.142,74.7911 L138.814,74.7911 L138.814,83.4161 Z" style="stroke:none;fill-rule:nonzero;fill:#000000;fill-opacity:1;"/>
        </g>
        <g id="Shape16">
            <desc shapeID="16" type="0" basicInfo-basicType="0" basicInfo-roundedRectRadius="12" basicInfo-polygonSides="6" basicInfo-starPoints="5" bounding="rect(-5.03665,-4.3125,10.0733,8.625)" text="" font-familyName="" font-pixelSize="20" font-bold="0" font-underline="0" font-alignment="1" strokeStyle="0" markerStart="0" markerEnd="0" shadowEnabled="0" shadowOffsetX="0" shadowOffsetY="2" shadowBlur="4" shadowOpacity="160" blurEnabled="0" blurRadius="4" transform="matrix(1,0,0,1,147.611,93.1036)" pers-center="0,0" pers-size="0,0" pers-start="0,0" pers-end="0,0" locked="0" mesh="" flag=""/>
            <path id="shapePath16" d="M145.731,97.4161 L144.684,97.4161 L144.684,90.6973 C144.424,90.9369 144.085,91.1817 143.668,91.4317 C143.262,91.6713 142.898,91.8484 142.575,91.9629 L142.575,90.9473 C143.158,90.6661 143.668,90.3327 144.106,89.9473 C144.554,89.5515 144.872,89.1661 145.059,88.7911 L145.731,88.7911 L145.731,97.4161 M152.648,97.4161 L151.601,97.4161 L151.601,90.6973 C151.341,90.9369 151.002,91.1817 150.585,91.4317 C150.179,91.6713 149.815,91.8484 149.492,91.9629 L149.492,90.9473 C150.075,90.6661 150.585,90.3327 151.023,89.9473 C151.471,89.5515 151.789,89.1661 151.976,88.7911 L152.648,88.7911 L152.648,97.4161 Z" style="stroke:none;fill-rule:nonzero;fill:#000000;fill-opacity:1;"/>
        </g>
        <g id="Shape17">
            <desc shapeID="17" type="0" basicInfo-basicType="0" basicInfo-roundedRectRadius="12" basicInfo-polygonSides="6" basicInfo-starPoints="5" bounding="rect(-31.4961,-32,62.9921,64)" text="" font-familyName="" font-pixelSize="20" font-bold="0" font-underline="0" font-alignment="1" strokeStyle="0" markerStart="0" markerEnd="0" shadowEnabled="0" shadowOffsetX="0" shadowOffsetY="2" shadowBlur="4" shadowOpacity="160" blurEnabled="0" blurRadius="4" transform="matrix(1,0,0,1,201.984,193)" pers-center="0,0" pers-size="0,0" pers-start="0,0" pers-end="0,0" locked="0" mesh="" flag=""/>
            <path id="shapePath17" d="M170.488,193 C170.488,175.327 184.589,161 201.984,161 C210.337,161 218.349,164.371 224.255,170.373 C230.162,176.374 233.48,184.513 233.48,193 C233.48,210.673 219.379,225 201.984,225 C184.589,225 170.488,210.673 170.488,193 Z" style="stroke:none;fill-rule:nonzero;fill:#cfe2f3;fill-opacity:1;"/>
        </g>
        <g id="Shape18">
            <desc shapeID="18" type="0" basicInfo-basicType="0" basicInfo-roundedRectRadius="12" basicInfo-polygonSides="6" basicInfo-starPoints="5" bounding="rect(-31.4961,-32,62.9921,64)" text="" font-familyName="" font-pixelSize="20" font-bold="0" font-underline="0" font-alignment="1" strokeStyle="0" markerStart="0" markerEnd="0" shadowEnabled="0" shadowOffsetX="0" shadowOffsetY="2" shadowBlur="4" shadowOpacity="160" blurEnabled="0" blurRadius="4" transform="matrix(1,0,0,1,201.984,193)" pers-center="0,0" pers-size="0,0" pers-start="0,0" pers-end="0,0" locked="0" mesh="" flag=""/>
            <path id="shapePath18" d="M170.488,193 C170.488,175.327 184.589,161 201.984,161 C210.337,161 218.349,164.371 224.255,170.373 C230.162,176.374 233.48,184.513 233.48,193 C233.48,210.673 219.379,225 201.984,225 C184.589,225 170.488,210.673 170.488,193 Z" style="stroke:#000000;stroke-opacity:1;stroke-width:1;stroke-linejoin:round;stroke-miterlimit:2;stroke-linecap:butt;fill:none;"/>
        </g>
        <g id="Shape19">
            <desc shapeID="19" type="0" basicInfo-basicType="0" basicInfo-roundedRectRadius="12" basicInfo-polygonSides="6" basicInfo-starPoints="5" bounding="rect(-40.9921,-30.9921,81.9843,61.9843)" text="" font-familyName="" font-pixelSize="20" font-bold="0" font-underline="0" font-alignment="1" strokeStyle="0" markerStart="0" markerEnd="0" shadowEnabled="0" shadowOffsetX="0" shadowOffsetY="2" shadowBlur="4" shadowOpacity="160" blurEnabled="0" blurRadius="4" transform="matrix(1,0,0,1,201.984,191.992)" pers-center="0,0" pers-size="0,0" pers-start="0,0" pers-end="0,0" locked="0" mesh="" flag=""/>
            <path id="shapePath19" d="M160.992,161 L242.976,161 L242.976,222.984 L160.992,222.984 L160.992,161 Z" style="stroke:none;fill-rule:nonzero;fill:#000000;fill-opacity:0;"/>
        </g>
        <g id="Shape20">
            <desc shapeID="20" type="0" basicInfo-basicType="0" basicInfo-roundedRectRadius="12" basicInfo-polygonSides="6" basicInfo-starPoints="5" bounding="rect(-4.01562,-6.79688,8.03125,13.5938)" text="" font-familyName="" font-pixelSize="20" font-bold="0" font-underline="0" font-alignment="1" strokeStyle="0" markerStart="0" markerEnd="0" shadowEnabled="0" shadowOffsetX="0" shadowOffsetY="2" shadowBlur="4" shadowOpacity="160" blurEnabled="0" blurRadius="4" transform="matrix(1,0,0,1,198.603,192.115)" pers-center="0,0" pers-size="0,0" pers-start="0,0" pers-end="0,0" locked="0" mesh="" flag=""/>
            <path id="shapePath20" d="M194.588,198.912 L194.588,185.318 L196.26,185.318 L196.26,190.193 C197.041,189.287 198.025,188.834 199.213,188.834 C199.942,188.834 200.572,188.98 201.103,189.271 C201.645,189.553 202.031,189.949 202.26,190.459 C202.499,190.969 202.619,191.704 202.619,192.662 L202.619,198.912 L200.947,198.912 L200.947,192.662 C200.947,191.829 200.765,191.225 200.4,190.85 C200.036,190.464 199.525,190.271 198.869,190.271 C198.369,190.271 197.9,190.402 197.463,190.662 C197.036,190.912 196.728,191.261 196.541,191.709 C196.353,192.146 196.26,192.751 196.26,193.521 L196.26,198.912 L194.588,198.912 Z" style="stroke:none;fill-rule:nonzero;fill:#000000;fill-opacity:1;"/>
        </g>
        <g id="Shape21">
            <desc shapeID="21" type="0" basicInfo-basicType="0" basicInfo-roundedRectRadius="12" basicInfo-polygonSides="6" basicInfo-starPoints="5" bounding="rect(-2.84375,-4.3125,5.6875,8.625)" text="" font-familyName="" font-pixelSize="20" font-bold="0" font-underline="0" font-alignment="1" strokeStyle="0" markerStart="0" markerEnd="0" shadowEnabled="0" shadowOffsetX="0" shadowOffsetY="2" shadowBlur="4" shadowOpacity="160" blurEnabled="0" blurRadius="4" transform="matrix(1,0,0,1,206.917,201.6)" pers-center="0,0" pers-size="0,0" pers-start="0,0" pers-end="0,0" locked="0" mesh="" flag=""/>
            <path id="shapePath21" d="M209.76,204.896 L209.76,205.912 L204.073,205.912 C204.073,205.662 204.115,205.417 204.198,205.178 C204.344,204.792 204.573,204.412 204.885,204.037 C205.208,203.662 205.672,203.23 206.276,202.74 C207.214,201.969 207.844,201.36 208.167,200.912 C208.5,200.464 208.667,200.042 208.667,199.646 C208.667,199.23 208.516,198.881 208.214,198.6 C207.911,198.308 207.521,198.162 207.042,198.162 C206.531,198.162 206.125,198.313 205.823,198.615 C205.521,198.917 205.365,199.339 205.354,199.881 L204.276,199.771 C204.349,198.959 204.625,198.344 205.104,197.928 C205.594,197.501 206.25,197.287 207.073,197.287 C207.896,197.287 208.547,197.516 209.026,197.975 C209.505,198.433 209.745,199.001 209.745,199.678 C209.745,200.021 209.672,200.36 209.526,200.693 C209.391,201.016 209.156,201.365 208.823,201.74 C208.5,202.105 207.964,202.605 207.214,203.24 C206.578,203.771 206.167,204.136 205.979,204.334 C205.802,204.521 205.656,204.709 205.542,204.896 L209.76,204.896 Z" style="stroke:none;fill-rule:nonzero;fill:#000000;fill-opacity:1;"/>
        </g>
        <g id="Shape22">
            <desc shapeID="22" type="0" basicInfo-basicType="0" basicInfo-roundedRectRadius="12" basicInfo-polygonSides="6" basicInfo-starPoints="5" bounding="rect(-38,-27.4961,76,54.9921)" text="" font-familyName="" font-pixelSize="20" font-bold="0" font-underline="0" font-alignment="1" strokeStyle="0" markerStart="0" markerEnd="0" shadowEnabled="0" shadowOffsetX="0" shadowOffsetY="2" shadowBlur="4" shadowOpacity="160" blurEnabled="0" blurRadius="4" transform="matrix(1,0,0,1,140.976,138.496)" pers-center="0,0" pers-size="0,0" pers-start="0,0" pers-end="0,0" locked="0" mesh="" flag=""/>
            <path id="shapePath22" d="M102.976,111 L178.976,111 L178.976,165.992 L102.976,165.992 L102.976,111 Z" style="stroke:none;fill-rule:nonzero;fill:#000000;fill-opacity:0;"/>
        </g>
        <g id="Shape23">
            <desc shapeID="23" type="0" basicInfo-basicType="0" basicInfo-roundedRectRadius="12" basicInfo-polygonSides="6" basicInfo-starPoints="5" bounding="rect(-6.75781,-4.92969,13.5156,9.85938)" text="" font-familyName="" font-pixelSize="20" font-bold="0" font-underline="0" font-alignment="1" strokeStyle="0" markerStart="0" markerEnd="0" shadowEnabled="0" shadowOffsetX="0" shadowOffsetY="2" shadowBlur="4" shadowOpacity="160" blurEnabled="0" blurRadius="4" transform="matrix(1,0,0,1,130.685,140.486)" pers-center="0,0" pers-size="0,0" pers-start="0,0" pers-end="0,0" locked="0" mesh="" flag=""/>
            <path id="shapePath23" d="M126.942,145.416 L123.927,135.557 L125.646,135.557 L127.208,141.244 L127.802,143.369 C127.823,143.265 127.989,142.588 128.302,141.338 L129.88,135.557 L131.599,135.557 L133.067,141.275 L133.552,143.166 L134.13,141.26 L135.817,135.557 L137.442,135.557 L134.364,145.416 L132.63,145.416 L131.052,139.51 L130.677,137.838 L128.677,145.416 L126.942,145.416 Z" style="stroke:none;fill-rule:nonzero;fill:#000000;fill-opacity:1;"/>
        </g>
        <g id="Shape24">
            <desc shapeID="24" type="0" basicInfo-basicType="0" basicInfo-roundedRectRadius="12" basicInfo-polygonSides="6" basicInfo-starPoints="5" bounding="rect(-1.57812,-4.3125,3.15625,8.625)" text="" font-familyName="" font-pixelSize="20" font-bold="0" font-underline="0" font-alignment="1" strokeStyle="0" markerStart="0" markerEnd="0" shadowEnabled="0" shadowOffsetX="0" shadowOffsetY="2" shadowBlur="4" shadowOpacity="160" blurEnabled="0" blurRadius="4" transform="matrix(1,0,0,1,140.228,134.104)" pers-center="0,0" pers-size="0,0" pers-start="0,0" pers-end="0,0" locked="0" mesh="" flag=""/>
            <path id="shapePath24" d="M141.806,138.416 L140.759,138.416 L140.759,131.697 C140.499,131.937 140.16,132.182 139.743,132.432 C139.337,132.671 138.973,132.848 138.65,132.963 L138.65,131.947 C139.233,131.666 139.743,131.333 140.181,130.947 C140.629,130.551 140.947,130.166 141.134,129.791 L141.806,129.791 L141.806,138.416 Z" style="stroke:none;fill-rule:nonzero;fill:#000000;fill-opacity:1;"/>
        </g>
        <g id="Shape25">
            <desc shapeID="25" type="0" basicInfo-basicType="0" basicInfo-roundedRectRadius="12" basicInfo-polygonSides="6" basicInfo-starPoints="5" bounding="rect(-5.51321,-4.3125,11.0264,8.625)" text="" font-familyName="" font-pixelSize="20" font-bold="0" font-underline="0" font-alignment="1" strokeStyle="0" markerStart="0" markerEnd="0" shadowEnabled="0" shadowOffsetX="0" shadowOffsetY="2" shadowBlur="4" shadowOpacity="160" blurEnabled="0" blurRadius="4" transform="matrix(1,0,0,1,150.127,148.104)" pers-center="0,0" pers-size="0,0" pers-start="0,0" pers-end="0,0" locked="0" mesh="" flag=""/>
            <path id="shapePath25" d="M150.301,151.4 L150.301,152.416 L144.614,152.416 C144.614,152.166 144.655,151.921 144.739,151.682 C144.885,151.296 145.114,150.916 145.426,150.541 C145.749,150.166 146.213,149.734 146.817,149.244 C147.754,148.473 148.385,147.864 148.707,147.416 C149.041,146.968 149.207,146.546 149.207,146.15 C149.207,145.734 149.056,145.385 148.754,145.104 C148.452,144.812 148.062,144.666 147.582,144.666 C147.072,144.666 146.666,144.817 146.364,145.119 C146.062,145.421 145.905,145.843 145.895,146.385 L144.817,146.275 C144.89,145.463 145.166,144.848 145.645,144.432 C146.135,144.005 146.791,143.791 147.614,143.791 C148.437,143.791 149.088,144.02 149.567,144.479 C150.046,144.937 150.286,145.505 150.286,146.182 C150.286,146.525 150.213,146.864 150.067,147.197 C149.931,147.52 149.697,147.869 149.364,148.244 C149.041,148.609 148.504,149.109 147.754,149.744 C147.119,150.275 146.707,150.64 146.52,150.838 C146.343,151.025 146.197,151.213 146.082,151.4 L150.301,151.4 M155.64,152.416 L154.593,152.416 L154.593,145.697 C154.333,145.937 153.994,146.182 153.578,146.432 C153.171,146.671 152.807,146.848 152.484,146.963 L152.484,145.947 C153.067,145.666 153.578,145.333 154.015,144.947 C154.463,144.551 154.781,144.166 154.968,143.791 L155.64,143.791 L155.64,152.416 Z" style="stroke:none;fill-rule:nonzero;fill:#000000;fill-opacity:1;"/>
        </g>
        <g id="Shape26">
            <desc shapeID="26" type="0" basicInfo-basicType="0" basicInfo-roundedRectRadius="12" basicInfo-polygonSides="6" basicInfo-starPoints="5" bounding="rect(-39.3543,-33.8749,78.7087,67.7499)" text="" font-familyName="" font-pixelSize="20" font-bold="0" font-underline="0" font-alignment="1" strokeStyle="0" markerStart="0" markerEnd="0" shadowEnabled="0" shadowOffsetX="0" shadowOffsetY="2" shadowBlur="4" shadowOpacity="160" blurEnabled="0" blurRadius="4" transform="matrix(1,0,0,1,129.05,155.225)" pers-center="0,0" pers-size="0,0" pers-start="0,0" pers-end="0,0" locked="0" mesh="" flag=""/>
            <path id="shapePath26" d="M168.404,189.1 L92.3427,123.996 L94.6105,121.35 L89.6955,121.73 L90.075,126.641 L92.3427,123.996 L168.404,189.1 Z" style="stroke:none;fill-rule:nonzero;fill:#cfe2f3;fill-opacity:1;"/>
        </g>
        <g id="Shape27">
            <desc shapeID="27" type="0" basicInfo-basicType="0" basicInfo-roundedRectRadius="12" basicInfo-polygonSides="6" basicInfo-starPoints="5" bounding="rect(-39.3543,-33.8749,78.7087,67.7499)" text="" font-familyName="" font-pixelSize="20" font-bold="0" font-underline="0" font-alignment="1" strokeStyle="0" markerStart="0" markerEnd="0" shadowEnabled="0" shadowOffsetX="0" shadowOffsetY="2" shadowBlur="4" shadowOpacity="160" blurEnabled="0" blurRadius="4" transform="matrix(1,0,0,1,129.05,155.225)" pers-center="0,0" pers-size="0,0" pers-start="0,0" pers-end="0,0" locked="0" mesh="" flag=""/>
            <path id="shapePath27" d="M168.404,189.1 L92.3427,123.996 L94.6105,121.35 L89.6955,121.73 L90.075,126.641 L92.3427,123.996 L168.404,189.1 Z" style="stroke:#000000;stroke-opacity:1;stroke-width:1;stroke-linejoin:round;stroke-miterlimit:2;stroke-linecap:butt;fill:none;"/>
        </g>
        <g id="Shape28">
            <desc shapeID="28" type="0" basicInfo-basicType="0" basicInfo-roundedRectRadius="12" basicInfo-polygonSides="6" basicInfo-starPoints="5" bounding="rect(-31.4961,-32,62.9921,64)" text="" font-familyName="" font-pixelSize="20" font-bold="0" font-underline="0" font-alignment="1" strokeStyle="0" markerStart="0" markerEnd="0" shadowEnabled="0" shadowOffsetX="0" shadowOffsetY="2" shadowBlur="4" shadowOpacity="160" blurEnabled="0" blurRadius="4" transform="matrix(1,0,0,1,345.984,97)" pers-center="0,0" pers-size="0,0" pers-start="0,0" pers-end="0,0" locked="0" mesh="" flag=""/>
            <path id="shapePath28" d="M314.488,97 C314.488,79.3269 328.589,65 345.984,65 C354.338,65 362.349,68.3714 368.255,74.3726 C374.162,80.3737 377.48,88.5131 377.48,97 C377.48,114.673 363.379,129 345.984,129 C328.589,129 314.488,114.673 314.488,97 Z" style="stroke:none;fill-rule:nonzero;fill:#cfe2f3;fill-opacity:1;"/>
        </g>
        <g id="Shape29">
            <desc shapeID="29" type="0" basicInfo-basicType="0" basicInfo-roundedRectRadius="12" basicInfo-polygonSides="6" basicInfo-starPoints="5" bounding="rect(-31.4961,-32,62.9921,64)" text="" font-familyName="" font-pixelSize="20" font-bold="0" font-underline="0" font-alignment="1" strokeStyle="0" markerStart="0" markerEnd="0" shadowEnabled="0" shadowOffsetX="0" shadowOffsetY="2" shadowBlur="4" shadowOpacity="160" blurEnabled="0" blurRadius="4" transform="matrix(1,0,0,1,345.984,97)" pers-center="0,0" pers-size="0,0" pers-start="0,0" pers-end="0,0" locked="0" mesh="" flag=""/>
            <path id="shapePath29" d="M314.488,97 C314.488,79.3269 328.589,65 345.984,65 C354.338,65 362.349,68.3714 368.255,74.3726 C374.162,80.3737 377.48,88.5131 377.48,97 C377.48,114.673 363.379,129 345.984,129 C328.589,129 314.488,114.673 314.488,97 Z" style="stroke:#000000;stroke-opacity:1;stroke-width:1;stroke-linejoin:round;stroke-miterlimit:2;stroke-linecap:butt;fill:none;"/>
        </g>
        <g id="Shape30">
            <desc shapeID="30" type="0" basicInfo-basicType="0" basicInfo-roundedRectRadius="12" basicInfo-polygonSides="6" basicInfo-starPoints="5" bounding="rect(-38,-3.49606,76,6.99213)" text="" font-familyName="" font-pixelSize="20" font-bold="0" font-underline="0" font-alignment="1" strokeStyle="0" markerStart="0" markerEnd="0" shadowEnabled="0" shadowOffsetX="0" shadowOffsetY="2" shadowBlur="4" shadowOpacity="160" blurEnabled="0" blurRadius="4" transform="matrix(1,0,0,1,274.48,99.4961)" pers-center="0,0" pers-size="0,0" pers-start="0,0" pers-end="0,0" locked="0" mesh="" flag=""/>
            <path id="shapePath30" d="M312.48,99.4961 L239.976,99.4961 L239.976,96 L236.48,99.4961 L239.976,102.992 L239.976,99.4961 L312.48,99.4961 Z" style="stroke:none;fill-rule:nonzero;fill:#cfe2f3;fill-opacity:1;"/>
        </g>
        <g id="Shape31">
            <desc shapeID="31" type="0" basicInfo-basicType="0" basicInfo-roundedRectRadius="12" basicInfo-polygonSides="6" basicInfo-starPoints="5" bounding="rect(-38,-3.49606,76,6.99213)" text="" font-familyName="" font-pixelSize="20" font-bold="0" font-underline="0" font-alignment="1" strokeStyle="0" markerStart="0" markerEnd="0" shadowEnabled="0" shadowOffsetX="0" shadowOffsetY="2" shadowBlur="4" shadowOpacity="160" blurEnabled="0" blurRadius="4" transform="matrix(1,0,0,1,274.48,99.4961)" pers-center="0,0" pers-size="0,0" pers-start="0,0" pers-end="0,0" locked="0" mesh="" flag=""/>
            <path id="shapePath31" d="M312.48,99.4961 L239.976,99.4961 L239.976,96 L236.48,99.4961 L239.976,102.992 L239.976,99.4961 L312.48,99.4961 Z" style="stroke:#000000;stroke-opacity:1;stroke-width:1;stroke-linejoin:round;stroke-miterlimit:2;stroke-linecap:butt;fill:none;"/>
        </g>
        <g id="Shape32">
            <desc shapeID="32" type="0" basicInfo-basicType="0" basicInfo-roundedRectRadius="12" basicInfo-polygonSides="6" basicInfo-starPoints="5" bounding="rect(-40.9922,-30.9921,81.9843,61.9843)" text="" font-familyName="" font-pixelSize="20" font-bold="0" font-underline="0" font-alignment="1" strokeStyle="0" markerStart="0" markerEnd="0" shadowEnabled="0" shadowOffsetX="0" shadowOffsetY="2" shadowBlur="4" shadowOpacity="160" blurEnabled="0" blurRadius="4" transform="matrix(1,0,0,1,345.984,95.9921)" pers-center="0,0" pers-size="0,0" pers-start="0,0" pers-end="0,0" locked="0" mesh="" flag=""/>
            <path id="shapePath32" d="M304.992,65 L386.976,65 L386.976,126.984 L304.992,126.984 L304.992,65 Z" style="stroke:none;fill-rule:nonzero;fill:#000000;fill-opacity:0;"/>
        </g>
        <g id="Shape33">
            <desc shapeID="33" type="0" basicInfo-basicType="0" basicInfo-roundedRectRadius="12" basicInfo-polygonSides="6" basicInfo-starPoints="5" bounding="rect(-4.50781,-6.92969,9.01562,13.8594)" text="" font-familyName="" font-pixelSize="20" font-bold="0" font-underline="0" font-alignment="1" strokeStyle="0" markerStart="0" markerEnd="0" shadowEnabled="0" shadowOffsetX="0" shadowOffsetY="2" shadowBlur="4" shadowOpacity="160" blurEnabled="0" blurRadius="4" transform="matrix(1,0,0,1,342.682,99.9824)" pers-center="0,0" pers-size="0,0" pers-start="0,0" pers-end="0,0" locked="0" mesh="" flag=""/>
            <path id="shapePath33" d="M339.034,106.709 L338.862,105.146 C339.226,105.24 339.544,105.287 339.815,105.287 C340.179,105.287 340.471,105.225 340.69,105.1 C340.919,104.975 341.106,104.803 341.252,104.584 C341.356,104.417 341.523,104.001 341.752,103.334 C341.784,103.24 341.836,103.105 341.909,102.928 L338.174,93.0527 L339.971,93.0527 L342.018,98.7715 C342.289,99.4902 342.528,100.251 342.737,101.053 C342.924,100.282 343.153,99.5319 343.424,98.8027 L345.518,93.0527 L347.19,93.0527 L343.44,103.084 C343.044,104.167 342.731,104.912 342.502,105.318 C342.211,105.87 341.872,106.271 341.487,106.521 C341.101,106.782 340.643,106.912 340.112,106.912 C339.789,106.912 339.429,106.844 339.034,106.709 Z" style="stroke:none;fill-rule:nonzero;fill:#000000;fill-opacity:1;"/>
        </g>
        <g id="Shape34">
            <desc shapeID="34" type="0" basicInfo-basicType="0" basicInfo-roundedRectRadius="12" basicInfo-polygonSides="6" basicInfo-starPoints="5" bounding="rect(-1.57812,-4.3125,3.15625,8.625)" text="" font-familyName="" font-pixelSize="20" font-bold="0" font-underline="0" font-alignment="1" strokeStyle="0" markerStart="0" markerEnd="0" shadowEnabled="0" shadowOffsetX="0" shadowOffsetY="2" shadowBlur="4" shadowOpacity="160" blurEnabled="0" blurRadius="4" transform="matrix(1,0,0,1,350.08,105.6)" pers-center="0,0" pers-size="0,0" pers-start="0,0" pers-end="0,0" locked="0" mesh="" flag=""/>
            <path id="shapePath34" d="M351.659,109.912 L350.612,109.912 L350.612,103.193 C350.351,103.433 350.013,103.678 349.596,103.928 C349.19,104.167 348.825,104.344 348.502,104.459 L348.502,103.443 C349.086,103.162 349.596,102.829 350.034,102.443 C350.481,102.048 350.799,101.662 350.987,101.287 L351.659,101.287 L351.659,109.912 Z" style="stroke:none;fill-rule:nonzero;fill:#000000;fill-opacity:1;"/>
        </g>
        <g id="Shape35">
            <desc shapeID="35" type="0" basicInfo-basicType="0" basicInfo-roundedRectRadius="12" basicInfo-polygonSides="6" basicInfo-starPoints="5" bounding="rect(-40.9922,-27.4961,81.9843,54.9921)" text="" font-familyName="" font-pixelSize="20" font-bold="0" font-underline="0" font-alignment="1" strokeStyle="0" markerStart="0" markerEnd="0" shadowEnabled="0" shadowOffsetX="0" shadowOffsetY="2" shadowBlur="4" shadowOpacity="160" blurEnabled="0" blurRadius="4" transform="matrix(1,0,0,1,281.984,83.4961)" pers-center="0,0" pers-size="0,0" pers-start="0,0" pers-end="0,0" locked="0" mesh="" flag=""/>
            <path id="shapePath35" d="M240.992,56 L322.976,56 L322.976,110.992 L240.992,110.992 L240.992,56 Z" style="stroke:none;fill-rule:nonzero;fill:#000000;fill-opacity:0;"/>
        </g>
        <g id="Shape36">
            <desc shapeID="36" type="0" basicInfo-basicType="0" basicInfo-roundedRectRadius="12" basicInfo-polygonSides="6" basicInfo-starPoints="5" bounding="rect(-6.75781,-4.92969,13.5156,9.85938)" text="" font-familyName="" font-pixelSize="20" font-bold="0" font-underline="0" font-alignment="1" strokeStyle="0" markerStart="0" markerEnd="0" shadowEnabled="0" shadowOffsetX="0" shadowOffsetY="2" shadowBlur="4" shadowOpacity="160" blurEnabled="0" blurRadius="4" transform="matrix(1,0,0,1,271.693,85.4864)" pers-center="0,0" pers-size="0,0" pers-start="0,0" pers-end="0,0" locked="0" mesh="" flag=""/>
            <path id="shapePath36" d="M267.95,90.4161 L264.935,80.5567 L266.653,80.5567 L268.216,86.2442 L268.81,88.3692 C268.831,88.265 268.997,87.5879 269.31,86.3379 L270.888,80.5567 L272.607,80.5567 L274.075,86.2754 L274.56,88.1661 L275.138,86.2598 L276.825,80.5567 L278.45,80.5567 L275.372,90.4161 L273.638,90.4161 L272.06,84.5098 L271.685,82.8379 L269.685,90.4161 L267.95,90.4161 Z" style="stroke:none;fill-rule:nonzero;fill:#000000;fill-opacity:1;"/>
        </g>
        <g id="Shape37">
            <desc shapeID="37" type="0" basicInfo-basicType="0" basicInfo-roundedRectRadius="12" basicInfo-polygonSides="6" basicInfo-starPoints="5" bounding="rect(-2.84375,-4.3125,5.6875,8.625)" text="" font-familyName="" font-pixelSize="20" font-bold="0" font-underline="0" font-alignment="1" strokeStyle="0" markerStart="0" markerEnd="0" shadowEnabled="0" shadowOffsetX="0" shadowOffsetY="2" shadowBlur="4" shadowOpacity="160" blurEnabled="0" blurRadius="4" transform="matrix(1,0,0,1,281.548,79.1036)" pers-center="0,0" pers-size="0,0" pers-start="0,0" pers-end="0,0" locked="0" mesh="" flag=""/>
            <path id="shapePath37" d="M284.392,82.4004 L284.392,83.4161 L278.705,83.4161 C278.705,83.1661 278.746,82.9213 278.83,82.6817 C278.975,82.2963 279.205,81.9161 279.517,81.5411 C279.84,81.1661 280.303,80.7338 280.908,80.2442 C281.845,79.4734 282.475,78.864 282.798,78.4161 C283.132,77.9682 283.298,77.5463 283.298,77.1504 C283.298,76.7338 283.147,76.3848 282.845,76.1036 C282.543,75.8119 282.152,75.6661 281.673,75.6661 C281.163,75.6661 280.757,75.8171 280.455,76.1192 C280.152,76.4213 279.996,76.8432 279.986,77.3848 L278.908,77.2754 C278.981,76.4629 279.257,75.8484 279.736,75.4317 C280.225,75.0046 280.882,74.7911 281.705,74.7911 C282.527,74.7911 283.178,75.0202 283.658,75.4786 C284.137,75.9369 284.376,76.5046 284.376,77.1817 C284.376,77.5254 284.303,77.864 284.158,78.1973 C284.022,78.5202 283.788,78.8692 283.455,79.2442 C283.132,79.6088 282.595,80.1088 281.845,80.7442 C281.21,81.2754 280.798,81.64 280.611,81.8379 C280.434,82.0254 280.288,82.2129 280.173,82.4004 L284.392,82.4004 Z" style="stroke:none;fill-rule:nonzero;fill:#000000;fill-opacity:1;"/>
        </g>
        <g id="Shape38">
            <desc shapeID="38" type="0" basicInfo-basicType="0" basicInfo-roundedRectRadius="12" basicInfo-polygonSides="6" basicInfo-starPoints="5" bounding="rect(-5.03665,-4.3125,10.0733,8.625)" text="" font-familyName="" font-pixelSize="20" font-bold="0" font-underline="0" font-alignment="1" strokeStyle="0" markerStart="0" markerEnd="0" shadowEnabled="0" shadowOffsetX="0" shadowOffsetY="2" shadowBlur="4" shadowOpacity="160" blurEnabled="0" blurRadius="4" transform="matrix(1,0,0,1,291.611,93.1036)" pers-center="0,0" pers-size="0,0" pers-start="0,0" pers-end="0,0" locked="0" mesh="" flag=""/>
            <path id="shapePath38" d="M289.731,97.4161 L288.684,97.4161 L288.684,90.6973 C288.424,90.9369 288.085,91.1817 287.668,91.4317 C287.262,91.6713 286.898,91.8484 286.575,91.9629 L286.575,90.9473 C287.158,90.6661 287.668,90.3327 288.106,89.9473 C288.554,89.5515 288.872,89.1661 289.059,88.7911 L289.731,88.7911 L289.731,97.4161 M296.648,97.4161 L295.601,97.4161 L295.601,90.6973 C295.341,90.9369 295.002,91.1817 294.585,91.4317 C294.179,91.6713 293.815,91.8484 293.492,91.9629 L293.492,90.9473 C294.075,90.6661 294.585,90.3327 295.023,89.9473 C295.471,89.5515 295.789,89.1661 295.976,88.7911 L296.648,88.7911 L296.648,97.4161 Z" style="stroke:none;fill-rule:nonzero;fill:#000000;fill-opacity:1;"/>
        </g>
        <g id="Shape39">
            <desc shapeID="39" type="0" basicInfo-basicType="0" basicInfo-roundedRectRadius="12" basicInfo-polygonSides="6" basicInfo-starPoints="5" bounding="rect(-31.4961,-32,62.9921,64)" text="" font-familyName="" font-pixelSize="20" font-bold="0" font-underline="0" font-alignment="1" strokeStyle="0" markerStart="0" markerEnd="0" shadowEnabled="0" shadowOffsetX="0" shadowOffsetY="2" shadowBlur="4" shadowOpacity="160" blurEnabled="0" blurRadius="4" transform="matrix(1,0,0,1,345.984,193)" pers-center="0,0" pers-size="0,0" pers-start="0,0" pers-end="0,0" locked="0" mesh="" flag=""/>
            <path id="shapePath39" d="M314.488,193 C314.488,175.327 328.589,161 345.984,161 C354.338,161 362.349,164.371 368.255,170.373 C374.162,176.374 377.48,184.513 377.48,193 C377.48,210.673 363.379,225 345.984,225 C328.589,225 314.488,210.673 314.488,193 Z" style="stroke:none;fill-rule:nonzero;fill:#cfe2f3;fill-opacity:1;"/>
        </g>
        <g id="Shape40">
            <desc shapeID="40" type="0" basicInfo-basicType="0" basicInfo-roundedRectRadius="12" basicInfo-polygonSides="6" basicInfo-starPoints="5" bounding="rect(-31.4961,-32,62.9921,64)" text="" font-familyName="" font-pixelSize="20" font-bold="0" font-underline="0" font-alignment="1" strokeStyle="0" markerStart="0" markerEnd="0" shadowEnabled="0" shadowOffsetX="0" shadowOffsetY="2" shadowBlur="4" shadowOpacity="160" blurEnabled="0" blurRadius="4" transform="matrix(1,0,0,1,345.984,193)" pers-center="0,0" pers-size="0,0" pers-start="0,0" pers-end="0,0" locked="0" mesh="" flag=""/>
            <path id="shapePath40" d="M314.488,193 C314.488,175.327 328.589,161 345.984,161 C354.338,161 362.349,164.371 368.255,170.373 C374.162,176.374 377.48,184.513 377.48,193 C377.48,210.673 363.379,225 345.984,225 C328.589,225 314.488,210.673 314.488,193 Z" style="stroke:#000000;stroke-opacity:1;stroke-width:1;stroke-linejoin:round;stroke-miterlimit:2;stroke-linecap:butt;fill:none;"/>
        </g>
        <g id="Shape41">
            <desc shapeID="41" type="0" basicInfo-basicType="0" basicInfo-roundedRectRadius="12" basicInfo-polygonSides="6" basicInfo-starPoints="5" bounding="rect(-40.9922,-30.9921,81.9843,61.9843)" text="" font-familyName="" font-pixelSize="20" font-bold="0" font-underline="0" font-alignment="1" strokeStyle="0" markerStart="0" markerEnd="0" shadowEnabled="0" shadowOffsetX="0" shadowOffsetY="2" shadowBlur="4" shadowOpacity="160" blurEnabled="0" blurRadius="4" transform="matrix(1,0,0,1,345.984,191.992)" pers-center="0,0" pers-size="0,0" pers-start="0,0" pers-end="0,0" locked="0" mesh="" flag=""/>
            <path id="shapePath41" d="M304.992,161 L386.976,161 L386.976,222.984 L304.992,222.984 L304.992,161 Z" style="stroke:none;fill-rule:nonzero;fill:#000000;fill-opacity:0;"/>
        </g>
        <g id="Shape42">
            <desc shapeID="42" type="0" basicInfo-basicType="0" basicInfo-roundedRectRadius="12" basicInfo-polygonSides="6" basicInfo-starPoints="5" bounding="rect(-4.50781,-6.92969,9.01562,13.8594)" text="" font-familyName="" font-pixelSize="20" font-bold="0" font-underline="0" font-alignment="1" strokeStyle="0" markerStart="0" markerEnd="0" shadowEnabled="0" shadowOffsetX="0" shadowOffsetY="2" shadowBlur="4" shadowOpacity="160" blurEnabled="0" blurRadius="4" transform="matrix(1,0,0,1,342.682,195.982)" pers-center="0,0" pers-size="0,0" pers-start="0,0" pers-end="0,0" locked="0" mesh="" flag=""/>
            <path id="shapePath42" d="M339.034,202.709 L338.862,201.146 C339.226,201.24 339.544,201.287 339.815,201.287 C340.179,201.287 340.471,201.225 340.69,201.1 C340.919,200.975 341.106,200.803 341.252,200.584 C341.356,200.417 341.523,200.001 341.752,199.334 C341.784,199.24 341.836,199.105 341.909,198.928 L338.174,189.053 L339.971,189.053 L342.018,194.771 C342.289,195.49 342.528,196.251 342.737,197.053 C342.924,196.282 343.153,195.532 343.424,194.803 L345.518,189.053 L347.19,189.053 L343.44,199.084 C343.044,200.167 342.731,200.912 342.502,201.318 C342.211,201.87 341.872,202.271 341.487,202.521 C341.101,202.782 340.643,202.912 340.112,202.912 C339.789,202.912 339.429,202.844 339.034,202.709 Z" style="stroke:none;fill-rule:nonzero;fill:#000000;fill-opacity:1;"/>
        </g>
        <g id="Shape43">
            <desc shapeID="43" type="0" basicInfo-basicType="0" basicInfo-roundedRectRadius="12" basicInfo-polygonSides="6" basicInfo-starPoints="5" bounding="rect(-2.84375,-4.3125,5.6875,8.625)" text="" font-familyName="" font-pixelSize="20" font-bold="0" font-underline="0" font-alignment="1" strokeStyle="0" markerStart="0" markerEnd="0" shadowEnabled="0" shadowOffsetX="0" shadowOffsetY="2" shadowBlur="4" shadowOpacity="160" blurEnabled="0" blurRadius="4" transform="matrix(1,0,0,1,350.393,201.6)" pers-center="0,0" pers-size="0,0" pers-start="0,0" pers-end="0,0" locked="0" mesh="" flag=""/>
            <path id="shapePath43" d="M353.237,204.896 L353.237,205.912 L347.549,205.912 C347.549,205.662 347.591,205.417 347.674,205.178 C347.82,204.792 348.049,204.412 348.362,204.037 C348.685,203.662 349.148,203.23 349.752,202.74 C350.69,201.969 351.32,201.36 351.643,200.912 C351.976,200.464 352.143,200.042 352.143,199.646 C352.143,199.23 351.992,198.881 351.69,198.6 C351.388,198.308 350.997,198.162 350.518,198.162 C350.008,198.162 349.601,198.313 349.299,198.615 C348.997,198.917 348.841,199.339 348.83,199.881 L347.752,199.771 C347.825,198.959 348.101,198.344 348.58,197.928 C349.07,197.501 349.726,197.287 350.549,197.287 C351.372,197.287 352.023,197.516 352.502,197.975 C352.981,198.433 353.221,199.001 353.221,199.678 C353.221,200.021 353.148,200.36 353.002,200.693 C352.867,201.016 352.633,201.365 352.299,201.74 C351.976,202.105 351.44,202.605 350.69,203.24 C350.054,203.771 349.643,204.136 349.455,204.334 C349.278,204.521 349.133,204.709 349.018,204.896 L353.237,204.896 Z" style="stroke:none;fill-rule:nonzero;fill:#000000;fill-opacity:1;"/>
        </g>
        <g id="Shape44">
            <desc shapeID="44" type="0" basicInfo-basicType="0" basicInfo-roundedRectRadius="12" basicInfo-polygonSides="6" basicInfo-starPoints="5" bounding="rect(-38,-27.4961,76,54.9921)" text="" font-familyName="" font-pixelSize="20" font-bold="0" font-underline="0" font-alignment="1" strokeStyle="0" markerStart="0" markerEnd="0" shadowEnabled="0" shadowOffsetX="0" shadowOffsetY="2" shadowBlur="4" shadowOpacity="160" blurEnabled="0" blurRadius="4" transform="matrix(1,0,0,1,284.976,138.496)" pers-center="0,0" pers-size="0,0" pers-start="0,0" pers-end="0,0" locked="0" mesh="" flag=""/>
            <path id="shapePath44" d="M246.976,111 L322.976,111 L322.976,165.992 L246.976,165.992 L246.976,111 Z" style="stroke:none;fill-rule:nonzero;fill:#000000;fill-opacity:0;"/>
        </g>
        <g id="Shape45">
            <desc shapeID="45" type="0" basicInfo-basicType="0" basicInfo-roundedRectRadius="12" basicInfo-polygonSides="6" basicInfo-starPoints="5" bounding="rect(-6.75781,-4.92969,13.5156,9.85938)" text="" font-familyName="" font-pixelSize="20" font-bold="0" font-underline="0" font-alignment="1" strokeStyle="0" markerStart="0" markerEnd="0" shadowEnabled="0" shadowOffsetX="0" shadowOffsetY="2" shadowBlur="4" shadowOpacity="160" blurEnabled="0" blurRadius="4" transform="matrix(1,0,0,1,274.685,140.486)" pers-center="0,0" pers-size="0,0" pers-start="0,0" pers-end="0,0" locked="0" mesh="" flag=""/>
            <path id="shapePath45" d="M270.942,145.416 L267.927,135.557 L269.646,135.557 L271.208,141.244 L271.802,143.369 C271.823,143.265 271.989,142.588 272.302,141.338 L273.88,135.557 L275.599,135.557 L277.067,141.275 L277.552,143.166 L278.13,141.26 L279.817,135.557 L281.442,135.557 L278.364,145.416 L276.63,145.416 L275.052,139.51 L274.677,137.838 L272.677,145.416 L270.942,145.416 Z" style="stroke:none;fill-rule:nonzero;fill:#000000;fill-opacity:1;"/>
        </g>
        <g id="Shape46">
            <desc shapeID="46" type="0" basicInfo-basicType="0" basicInfo-roundedRectRadius="12" basicInfo-polygonSides="6" basicInfo-starPoints="5" bounding="rect(-2.84375,-4.3125,5.6875,8.625)" text="" font-familyName="" font-pixelSize="20" font-bold="0" font-underline="0" font-alignment="1" strokeStyle="0" markerStart="0" markerEnd="0" shadowEnabled="0" shadowOffsetX="0" shadowOffsetY="2" shadowBlur="4" shadowOpacity="160" blurEnabled="0" blurRadius="4" transform="matrix(1,0,0,1,284.54,134.104)" pers-center="0,0" pers-size="0,0" pers-start="0,0" pers-end="0,0" locked="0" mesh="" flag=""/>
            <path id="shapePath46" d="M287.384,137.4 L287.384,138.416 L281.697,138.416 C281.697,138.166 281.738,137.921 281.822,137.682 C281.967,137.296 282.197,136.916 282.509,136.541 C282.832,136.166 283.296,135.734 283.9,135.244 C284.837,134.473 285.467,133.864 285.79,133.416 C286.124,132.968 286.29,132.546 286.29,132.15 C286.29,131.734 286.139,131.385 285.837,131.104 C285.535,130.812 285.145,130.666 284.665,130.666 C284.155,130.666 283.749,130.817 283.447,131.119 C283.145,131.421 282.988,131.843 282.978,132.385 L281.9,132.275 C281.973,131.463 282.249,130.848 282.728,130.432 C283.217,130.005 283.874,129.791 284.697,129.791 C285.52,129.791 286.171,130.02 286.65,130.479 C287.129,130.937 287.368,131.505 287.368,132.182 C287.368,132.525 287.296,132.864 287.15,133.197 C287.014,133.52 286.78,133.869 286.447,134.244 C286.124,134.609 285.587,135.109 284.837,135.744 C284.202,136.275 283.79,136.64 283.603,136.838 C283.426,137.025 283.28,137.213 283.165,137.4 L287.384,137.4 Z" style="stroke:none;fill-rule:nonzero;fill:#000000;fill-opacity:1;"/>
        </g>
        <g id="Shape47">
            <desc shapeID="47" type="0" basicInfo-basicType="0" basicInfo-roundedRectRadius="12" basicInfo-polygonSides="6" basicInfo-starPoints="5" bounding="rect(-5.51321,-4.3125,11.0264,8.625)" text="" font-familyName="" font-pixelSize="20" font-bold="0" font-underline="0" font-alignment="1" strokeStyle="0" markerStart="0" markerEnd="0" shadowEnabled="0" shadowOffsetX="0" shadowOffsetY="2" shadowBlur="4" shadowOpacity="160" blurEnabled="0" blurRadius="4" transform="matrix(1,0,0,1,294.127,148.104)" pers-center="0,0" pers-size="0,0" pers-start="0,0" pers-end="0,0" locked="0" mesh="" flag=""/>
            <path id="shapePath47" d="M294.301,151.4 L294.301,152.416 L288.614,152.416 C288.614,152.166 288.655,151.921 288.739,151.682 C288.885,151.296 289.114,150.916 289.426,150.541 C289.749,150.166 290.213,149.734 290.817,149.244 C291.754,148.473 292.385,147.864 292.707,147.416 C293.041,146.968 293.207,146.546 293.207,146.15 C293.207,145.734 293.056,145.385 292.754,145.104 C292.452,144.812 292.062,144.666 291.582,144.666 C291.072,144.666 290.666,144.817 290.364,145.119 C290.062,145.421 289.905,145.843 289.895,146.385 L288.817,146.275 C288.89,145.463 289.166,144.848 289.645,144.432 C290.135,144.005 290.791,143.791 291.614,143.791 C292.437,143.791 293.088,144.02 293.567,144.479 C294.046,144.937 294.286,145.505 294.286,146.182 C294.286,146.525 294.213,146.864 294.067,147.197 C293.931,147.52 293.697,147.869 293.364,148.244 C293.041,148.609 292.504,149.109 291.754,149.744 C291.119,150.275 290.707,150.64 290.52,150.838 C290.343,151.025 290.197,151.213 290.082,151.4 L294.301,151.4 M299.64,152.416 L298.593,152.416 L298.593,145.697 C298.333,145.937 297.994,146.182 297.578,146.432 C297.171,146.671 296.807,146.848 296.484,146.963 L296.484,145.947 C297.067,145.666 297.578,145.333 298.015,144.947 C298.463,144.551 298.781,144.166 298.968,143.791 L299.64,143.791 L299.64,152.416 Z" style="stroke:none;fill-rule:nonzero;fill:#000000;fill-opacity:1;"/>
        </g>
        <g id="Shape48">
            <desc shapeID="48" type="0" basicInfo-basicType="0" basicInfo-roundedRectRadius="12" basicInfo-polygonSides="6" basicInfo-starPoints="5" bounding="rect(-39.3543,-33.8749,78.7087,67.7499)" text="" font-familyName="" font-pixelSize="20" font-bold="0" font-underline="0" font-alignment="1" strokeStyle="0" markerStart="0" markerEnd="0" shadowEnabled="0" shadowOffsetX="0" shadowOffsetY="2" shadowBlur="4" shadowOpacity="160" blurEnabled="0" blurRadius="4" transform="matrix(1,0,0,1,273.05,155.225)" pers-center="0,0" pers-size="0,0" pers-start="0,0" pers-end="0,0" locked="0" mesh="" flag=""/>
            <path id="shapePath48" d="M312.404,189.1 L236.343,123.996 L238.61,121.35 L233.695,121.73 L234.075,126.641 L236.343,123.996 L312.404,189.1 Z" style="stroke:none;fill-rule:nonzero;fill:#cfe2f3;fill-opacity:1;"/>
        </g>
        <g id="Shape49">
            <desc shapeID="49" type="0" basicInfo-basicType="0" basicInfo-roundedRectRadius="12" basicInfo-polygonSides="6" basicInfo-starPoints="5" bounding="rect(-39.3543,-33.8749,78.7087,67.7499)" text="" font-familyName="" font-pixelSize="20" font-bold="0" font-underline="0" font-alignment="1" strokeStyle="0" markerStart="0" markerEnd="0" shadowEnabled="0" shadowOffsetX="0" shadowOffsetY="2" shadowBlur="4" shadowOpacity="160" blurEnabled="0" blurRadius="4" transform="matrix(1,0,0,1,273.05,155.225)" pers-center="0,0" pers-size="0,0" pers-start="0,0" pers-end="0,0" locked="0" mesh="" flag=""/>
            <path id="shapePath49" d="M312.404,189.1 L236.343,123.996 L238.61,121.35 L233.695,121.73 L234.075,126.641 L236.343,123.996 L312.404,189.1 Z" style="stroke:#000000;stroke-opacity:1;stroke-width:1;stroke-linejoin:round;stroke-miterlimit:2;stroke-linecap:butt;fill:none;"/>
        </g>
        <g id="Shape50">
            <desc shapeID="50" type="0" basicInfo-basicType="0" basicInfo-roundedRectRadius="12" basicInfo-polygonSides="6" basicInfo-starPoints="5" bounding="rect(-194.756,-98.9921,389.512,197.984)" text="" font-familyName="" font-pixelSize="20" font-bold="0" font-underline="0" font-alignment="1" strokeStyle="0" markerStart="0" markerEnd="0" shadowEnabled="0" shadowOffsetX="0" shadowOffsetY="2" shadowBlur="4" shadowOpacity="160" blurEnabled="0" blurRadius="4" transform="matrix(1,0,0,1,205.244,155.992)" pers-center="0,0" pers-size="0,0" pers-start="0,0" pers-end="0,0" locked="0" mesh="" flag=""/>
            <path id="shapePath50" d="M400,254.984 L301.008,254.984 L301.008,155.992 L10.4881,155.992 L10.4881,57 L400,57 L400,254.984 Z" style="stroke:none;fill-rule:nonzero;fill:#000000;fill-opacity:0;"/>
        </g>
        <g id="Shape51">
            <desc shapeID="51" type="0" basicInfo-basicType="0" basicInfo-roundedRectRadius="12" basicInfo-polygonSides="6" basicInfo-starPoints="5" bounding="rect(-194.756,-98.9921,389.512,197.984)" text="" font-familyName="" font-pixelSize="20" font-bold="0" font-underline="0" font-alignment="1" strokeStyle="7" markerStart="0" markerEnd="0" shadowEnabled="0" shadowOffsetX="0" shadowOffsetY="2" shadowBlur="4" shadowOpacity="160" blurEnabled="0" blurRadius="4" transform="matrix(1,0,0,1,205.244,155.992)" pers-center="0,0" pers-size="0,0" pers-start="0,0" pers-end="0,0" locked="0" mesh="" flag=""/>
            <path id="shapePath51" d="M400,254.984 L301.008,254.984 L301.008,155.992 L10.4881,155.992 L10.4881,57 L400,57 L400,254.984 Z" style="stroke:#0000ff;stroke-opacity:1;stroke-width:1;stroke-linejoin:round;stroke-miterlimit:2;stroke-linecap:butt;stroke-dasharray:6,3;fill:none;"/>
        </g>
        <g id="Shape52">
            <desc shapeID="52" type="0" basicInfo-basicType="0" basicInfo-roundedRectRadius="12" basicInfo-polygonSides="6" basicInfo-starPoints="5" bounding="rect(-40.9921,-32,81.9843,64)" text="" font-familyName="" font-pixelSize="20" font-bold="0" font-underline="0" font-alignment="1" strokeStyle="0" markerStart="0" markerEnd="0" shadowEnabled="0" shadowOffsetX="0" shadowOffsetY="2" shadowBlur="4" shadowOpacity="160" blurEnabled="0" blurRadius="4" transform="matrix(1,0,0,1,57.9842,36)" pers-center="0,0" pers-size="0,0" pers-start="0,0" pers-end="0,0" locked="0" mesh="" flag=""/>
            <path id="shapePath52" d="M16.9921,4 L98.9763,4 L98.9763,68 L16.9921,68 L16.9921,4 Z" style="stroke:none;fill-rule:nonzero;fill:#000000;fill-opacity:0;"/>
        </g>
        <g id="Shape53">
            <desc shapeID="53" type="0" basicInfo-basicType="0" basicInfo-roundedRectRadius="12" basicInfo-polygonSides="6" basicInfo-starPoints="5" bounding="rect(-27.5898,-7.41406,55.1797,14.8281)" text="" font-familyName="" font-pixelSize="20" font-bold="0" font-underline="0" font-alignment="1" strokeStyle="0" markerStart="0" markerEnd="0" shadowEnabled="0" shadowOffsetX="0" shadowOffsetY="2" shadowBlur="4" shadowOpacity="160" blurEnabled="0" blurRadius="4" transform="matrix(1,0,0,1,58.6248,37.8209)" pers-center="0,0" pers-size="0,0" pers-start="0,0" pers-end="0,0" locked="0" mesh="" flag=""/>
            <path id="shapePath53" d="M31.035,32.0163 L31.035,30.4069 L32.4413,30.4069 L32.4413,32.0163 L31.035,32.0163 M31.035,41.86 L31.035,33.5631 L32.4413,33.5631 L32.4413,41.86 L31.035,41.86 M37.6522,40.5944 L37.8553,41.8444 C37.4595,41.9277 37.1053,41.9694 36.7928,41.9694 C36.2824,41.9694 35.8866,41.8913 35.6053,41.735 C35.3241,41.5683 35.1261,41.3548 35.0116,41.0944 C34.897,40.8235 34.8397,40.2663 34.8397,39.4225 L34.8397,34.6569 L33.8084,34.6569 L33.8084,33.5631 L34.8397,33.5631 L34.8397,31.5006 L36.2459,30.6569 L36.2459,33.5631 L37.6522,33.5631 L37.6522,34.6569 L36.2459,34.6569 L36.2459,39.5006 C36.2459,39.9069 36.2668,40.1673 36.3084,40.2819 C36.3605,40.3965 36.4438,40.4902 36.5584,40.5631 C36.673,40.6256 36.8345,40.6569 37.0428,40.6569 C37.1991,40.6569 37.4022,40.636 37.6522,40.5944 M39.035,41.86 L39.035,30.4069 L40.4413,30.4069 L40.4413,34.5163 C41.0975,33.7558 41.9256,33.3756 42.9256,33.3756 C43.5402,33.3756 44.0715,33.4954 44.5194,33.735 C44.9777,33.9746 45.3006,34.3079 45.4881,34.735 C45.686,35.1621 45.785,35.7819 45.785,36.5944 L45.785,41.86 L44.3788,41.86 L44.3788,36.5944 C44.3788,35.8965 44.2277,35.386 43.9256,35.0631 C43.6235,34.7402 43.1913,34.5788 42.6288,34.5788 C42.2121,34.5788 41.8215,34.6881 41.4569,34.9069 C41.0923,35.1256 40.8319,35.4225 40.6756,35.7975 C40.5194,36.1621 40.4413,36.6673 40.4413,37.3131 L40.4413,41.86 L39.035,41.86 M52.3475,41.86 L52.3475,30.4069 L53.7538,30.4069 L53.7538,41.86 L52.3475,41.86 M61.3397,40.8288 C60.8188,41.2767 60.3188,41.5944 59.8397,41.7819 C59.3605,41.959 58.8449,42.0475 58.2928,42.0475 C57.3761,42.0475 56.673,41.8235 56.1834,41.3756 C55.6938,40.9277 55.4491,40.36 55.4491,39.6725 C55.4491,39.2663 55.5428,38.8965 55.7303,38.5631 C55.9178,38.2194 56.1574,37.9485 56.4491,37.7506 C56.7511,37.5423 57.0897,37.386 57.4647,37.2819 C57.7459,37.209 58.1626,37.1413 58.7147,37.0788 C59.8501,36.9433 60.6887,36.7819 61.2303,36.5944 C61.2303,36.3965 61.2303,36.2715 61.2303,36.2194 C61.2303,35.6465 61.1001,35.2454 60.8397,35.0163 C60.4751,34.6933 59.9386,34.5319 59.2303,34.5319 C58.5741,34.5319 58.0845,34.6517 57.7616,34.8913 C57.4491,35.1204 57.2199,35.5267 57.0741,36.11 L55.6991,35.9225 C55.8241,35.3392 56.0272,34.8652 56.3084,34.5006 C56.6001,34.136 57.0168,33.86 57.5584,33.6725 C58.1001,33.4746 58.7251,33.3756 59.4334,33.3756 C60.1418,33.3756 60.7147,33.459 61.1522,33.6256 C61.6001,33.7923 61.9282,34.0006 62.1366,34.2506 C62.3449,34.5006 62.4907,34.8183 62.5741,35.2038 C62.6262,35.4433 62.6522,35.8756 62.6522,36.5006 L62.6522,38.3756 C62.6522,39.6881 62.6782,40.5163 62.7303,40.86 C62.7928,41.2038 62.9126,41.5371 63.0897,41.86 L61.6209,41.86 C61.4751,41.5683 61.3813,41.2246 61.3397,40.8288 M61.2303,37.6881 C60.7199,37.8965 59.9543,38.0735 58.9334,38.2194 C58.3501,38.3027 57.9386,38.3965 57.6991,38.5006 C57.4595,38.6048 57.272,38.761 57.1366,38.9694 C57.0116,39.1673 56.9491,39.386 56.9491,39.6256 C56.9491,40.0006 57.0897,40.3131 57.3709,40.5631 C57.6626,40.8131 58.0793,40.9381 58.6209,40.9381 C59.1626,40.9381 59.6418,40.8235 60.0584,40.5944 C60.4855,40.3548 60.798,40.0267 60.9959,39.61 C61.1522,39.2975 61.2303,38.8288 61.2303,38.2038 L61.2303,37.6881 M64.7694,45.0631 L64.6131,43.735 C64.9152,43.8183 65.1808,43.86 65.41,43.86 C65.7225,43.86 65.9725,43.8079 66.16,43.7038 C66.3475,43.5996 66.5038,43.4538 66.6288,43.2663 C66.7121,43.1308 66.8527,42.7819 67.0506,42.2194 C67.0819,42.1465 67.1235,42.0319 67.1756,41.8756 L64.035,33.5631 L65.5506,33.5631 L67.2694,38.36 C67.4985,38.9746 67.7017,39.6152 67.8788,40.2819 C68.035,39.636 68.2277,39.0058 68.4569,38.3913 L70.2225,33.5631 L71.6288,33.5631 L68.4725,42.0006 C68.1392,42.9173 67.8788,43.5475 67.6913,43.8913 C67.4413,44.3496 67.1548,44.6881 66.8319,44.9069 C66.509,45.1256 66.1235,45.235 65.6756,45.235 C65.4048,45.235 65.1027,45.1777 64.7694,45.0631 M78.5038,39.1881 L79.9569,39.36 C79.7277,40.2142 79.3006,40.8756 78.6756,41.3444 C78.061,41.8131 77.2746,42.0475 76.3163,42.0475 C75.0975,42.0475 74.134,41.6725 73.4256,40.9225 C72.7173,40.1725 72.3631,39.1256 72.3631,37.7819 C72.3631,36.386 72.7225,35.3027 73.4413,34.5319 C74.16,33.761 75.0923,33.3756 76.2381,33.3756 C77.3423,33.3756 78.2433,33.7558 78.9413,34.5163 C79.6496,35.2663 80.0038,36.3235 80.0038,37.6881 C80.0038,37.7715 80.0038,37.8965 80.0038,38.0631 L73.8163,38.0631 C73.8683,38.9798 74.1235,39.6829 74.5819,40.1725 C75.0506,40.6517 75.6288,40.8913 76.3163,40.8913 C76.8371,40.8913 77.2798,40.7558 77.6444,40.485 C78.009,40.2142 78.2954,39.7819 78.5038,39.1881 M73.8944,36.9069 L78.5194,36.9069 C78.4569,36.209 78.2798,35.6881 77.9881,35.3444 C77.5402,34.8027 76.9621,34.5319 76.2538,34.5319 C75.6079,34.5319 75.061,34.7506 74.6131,35.1881 C74.1756,35.6152 73.936,36.1881 73.8944,36.9069 M81.7147,41.86 L81.7147,33.5631 L82.9803,33.5631 L82.9803,34.8131 C83.3032,34.2298 83.6001,33.8444 83.8709,33.6569 C84.1418,33.4694 84.4438,33.3756 84.7772,33.3756 C85.2459,33.3756 85.7251,33.5267 86.2147,33.8288 L85.7303,35.1256 C85.3866,34.9277 85.0428,34.8288 84.6991,34.8288 C84.397,34.8288 84.1209,34.9225 83.8709,35.11 C83.6313,35.2871 83.4595,35.5423 83.3553,35.8756 C83.1991,36.3756 83.1209,36.9225 83.1209,37.5163 L83.1209,41.86 L81.7147,41.86 Z" style="stroke:none;fill-rule:nonzero;fill:#000000;fill-opacity:1;"/>
        </g>
        <g id="Shape54">
            <desc shapeID="54" type="0" basicInfo-basicType="0" basicInfo-roundedRectRadius="12" basicInfo-polygonSides="6" basicInfo-starPoints="5" bounding="rect(-40.9921,-32,81.9843,64)" text="" font-familyName="" font-pixelSize="20" font-bold="0" font-underline="0" font-alignment="1" strokeStyle="0" markerStart="0" markerEnd="0" shadowEnabled="0" shadowOffsetX="0" shadowOffsetY="2" shadowBlur="4" shadowOpacity="160" blurEnabled="0" blurRadius="4" transform="matrix(1,0,0,1,201.984,36)" pers-center="0,0" pers-size="0,0" pers-start="0,0" pers-end="0,0" locked="0" mesh="" flag=""/>
            <path id="shapePath54" d="M160.992,4 L242.976,4 L242.976,68 L160.992,68 L160.992,4 Z" style="stroke:none;fill-rule:nonzero;fill:#000000;fill-opacity:0;"/>
        </g>
        <g id="Shape55">
            <desc shapeID="55" type="0" basicInfo-basicType="0" basicInfo-roundedRectRadius="12" basicInfo-polygonSides="6" basicInfo-starPoints="5" bounding="rect(-28.4883,-7.41406,56.9766,14.8281)" text="" font-familyName="" font-pixelSize="20" font-bold="0" font-underline="0" font-alignment="1" strokeStyle="0" markerStart="0" markerEnd="0" shadowEnabled="0" shadowOffsetX="0" shadowOffsetY="2" shadowBlur="4" shadowOpacity="160" blurEnabled="0" blurRadius="4" transform="matrix(1,0,0,1,201.726,37.8209)" pers-center="0,0" pers-size="0,0" pers-start="0,0" pers-end="0,0" locked="0" mesh="" flag=""/>
            <path id="shapePath55" d="M175.019,32.0319 L175.019,30.4069 L176.426,30.4069 L176.426,32.0319 L175.019,32.0319 M173.238,45.0788 L173.504,43.8913 C173.785,43.9642 174.009,44.0006 174.176,44.0006 C174.457,44.0006 174.665,43.9017 174.801,43.7038 C174.946,43.5163 175.019,43.0423 175.019,42.2819 L175.019,33.5631 L176.426,33.5631 L176.426,42.3131 C176.426,43.334 176.295,44.0475 176.035,44.4538 C175.691,44.9746 175.129,45.235 174.348,45.235 C173.962,45.235 173.592,45.1829 173.238,45.0788 M181.652,40.5944 L181.855,41.8444 C181.459,41.9277 181.105,41.9694 180.793,41.9694 C180.282,41.9694 179.887,41.8913 179.605,41.735 C179.324,41.5683 179.126,41.3548 179.012,41.0944 C178.897,40.8235 178.84,40.2663 178.84,39.4225 L178.84,34.6569 L177.808,34.6569 L177.808,33.5631 L178.84,33.5631 L178.84,31.5006 L180.246,30.6569 L180.246,33.5631 L181.652,33.5631 L181.652,34.6569 L180.246,34.6569 L180.246,39.5006 C180.246,39.9069 180.267,40.1673 180.308,40.2819 C180.361,40.3965 180.444,40.4902 180.558,40.5631 C180.673,40.6256 180.834,40.6569 181.043,40.6569 C181.199,40.6569 181.402,40.636 181.652,40.5944 M183.035,41.86 L183.035,30.4069 L184.441,30.4069 L184.441,34.5163 C185.098,33.7558 185.926,33.3756 186.926,33.3756 C187.54,33.3756 188.071,33.4954 188.519,33.735 C188.978,33.9746 189.301,34.3079 189.488,34.735 C189.686,35.1621 189.785,35.7819 189.785,36.5944 L189.785,41.86 L188.379,41.86 L188.379,36.5944 C188.379,35.8965 188.228,35.386 187.926,35.0631 C187.624,34.7402 187.191,34.5788 186.629,34.5788 C186.212,34.5788 185.821,34.6881 185.457,34.9069 C185.092,35.1256 184.832,35.4225 184.676,35.7975 C184.519,36.1621 184.441,36.6673 184.441,37.3131 L184.441,41.86 L183.035,41.86 M196.348,41.86 L196.348,30.4069 L197.754,30.4069 L197.754,41.86 L196.348,41.86 M205.34,40.8288 C204.819,41.2767 204.319,41.5944 203.84,41.7819 C203.361,41.959 202.845,42.0475 202.293,42.0475 C201.376,42.0475 200.673,41.8235 200.183,41.3756 C199.694,40.9277 199.449,40.36 199.449,39.6725 C199.449,39.2663 199.543,38.8965 199.73,38.5631 C199.918,38.2194 200.157,37.9485 200.449,37.7506 C200.751,37.5423 201.09,37.386 201.465,37.2819 C201.746,37.209 202.163,37.1413 202.715,37.0788 C203.85,36.9433 204.689,36.7819 205.23,36.5944 C205.23,36.3965 205.23,36.2715 205.23,36.2194 C205.23,35.6465 205.1,35.2454 204.84,35.0163 C204.475,34.6933 203.939,34.5319 203.23,34.5319 C202.574,34.5319 202.084,34.6517 201.762,34.8913 C201.449,35.1204 201.22,35.5267 201.074,36.11 L199.699,35.9225 C199.824,35.3392 200.027,34.8652 200.308,34.5006 C200.6,34.136 201.017,33.86 201.558,33.6725 C202.1,33.4746 202.725,33.3756 203.433,33.3756 C204.142,33.3756 204.715,33.459 205.152,33.6256 C205.6,33.7923 205.928,34.0006 206.137,34.2506 C206.345,34.5006 206.491,34.8183 206.574,35.2038 C206.626,35.4433 206.652,35.8756 206.652,36.5006 L206.652,38.3756 C206.652,39.6881 206.678,40.5163 206.73,40.86 C206.793,41.2038 206.913,41.5371 207.09,41.86 L205.621,41.86 C205.475,41.5683 205.381,41.2246 205.34,40.8288 M205.23,37.6881 C204.72,37.8965 203.954,38.0735 202.933,38.2194 C202.35,38.3027 201.939,38.3965 201.699,38.5006 C201.459,38.6048 201.272,38.761 201.137,38.9694 C201.012,39.1673 200.949,39.386 200.949,39.6256 C200.949,40.0006 201.09,40.3131 201.371,40.5631 C201.663,40.8131 202.079,40.9381 202.621,40.9381 C203.163,40.9381 203.642,40.8235 204.058,40.5944 C204.486,40.3548 204.798,40.0267 204.996,39.61 C205.152,39.2975 205.23,38.8288 205.23,38.2038 L205.23,37.6881 M208.769,45.0631 L208.613,43.735 C208.915,43.8183 209.181,43.86 209.41,43.86 C209.723,43.86 209.973,43.8079 210.16,43.7038 C210.348,43.5996 210.504,43.4538 210.629,43.2663 C210.712,43.1308 210.853,42.7819 211.051,42.2194 C211.082,42.1465 211.124,42.0319 211.176,41.8756 L208.035,33.5631 L209.551,33.5631 L211.269,38.36 C211.499,38.9746 211.702,39.6152 211.879,40.2819 C212.035,39.636 212.228,39.0058 212.457,38.3913 L214.223,33.5631 L215.629,33.5631 L212.473,42.0006 C212.139,42.9173 211.879,43.5475 211.691,43.8913 C211.441,44.3496 211.155,44.6881 210.832,44.9069 C210.509,45.1256 210.124,45.235 209.676,45.235 C209.405,45.235 209.103,45.1777 208.769,45.0631 M222.504,39.1881 L223.957,39.36 C223.728,40.2142 223.301,40.8756 222.676,41.3444 C222.061,41.8131 221.275,42.0475 220.316,42.0475 C219.098,42.0475 218.134,41.6725 217.426,40.9225 C216.717,40.1725 216.363,39.1256 216.363,37.7819 C216.363,36.386 216.723,35.3027 217.441,34.5319 C218.16,33.761 219.092,33.3756 220.238,33.3756 C221.342,33.3756 222.243,33.7558 222.941,34.5163 C223.65,35.2663 224.004,36.3235 224.004,37.6881 C224.004,37.7715 224.004,37.8965 224.004,38.0631 L217.816,38.0631 C217.868,38.9798 218.124,39.6829 218.582,40.1725 C219.051,40.6517 219.629,40.8913 220.316,40.8913 C220.837,40.8913 221.28,40.7558 221.644,40.485 C222.009,40.2142 222.295,39.7819 222.504,39.1881 M217.894,36.9069 L222.519,36.9069 C222.457,36.209 222.28,35.6881 221.988,35.3444 C221.54,34.8027 220.962,34.5319 220.254,34.5319 C219.608,34.5319 219.061,34.7506 218.613,35.1881 C218.176,35.6152 217.936,36.1881 217.894,36.9069 M225.715,41.86 L225.715,33.5631 L226.98,33.5631 L226.98,34.8131 C227.303,34.2298 227.6,33.8444 227.871,33.6569 C228.142,33.4694 228.444,33.3756 228.777,33.3756 C229.246,33.3756 229.725,33.5267 230.215,33.8288 L229.73,35.1256 C229.387,34.9277 229.043,34.8288 228.699,34.8288 C228.397,34.8288 228.121,34.9225 227.871,35.11 C227.631,35.2871 227.459,35.5423 227.355,35.8756 C227.199,36.3756 227.121,36.9225 227.121,37.5163 L227.121,41.86 L225.715,41.86 Z" style="stroke:none;fill-rule:nonzero;fill:#000000;fill-opacity:1;"/>
        </g>
        <g id="Shape56">
            <desc shapeID="56" type="0" basicInfo-basicType="0" basicInfo-roundedRectRadius="12" basicInfo-polygonSides="6" basicInfo-starPoints="5" bounding="rect(-40.9922,-32,81.9843,64)" text="" font-familyName="" font-pixelSize="20" font-bold="0" font-underline="0" font-alignment="1" strokeStyle="0" markerStart="0" markerEnd="0" shadowEnabled="0" shadowOffsetX="0" shadowOffsetY="2" shadowBlur="4" shadowOpacity="160" blurEnabled="0" blurRadius="4" transform="matrix(1,0,0,1,345.984,36)" pers-center="0,0" pers-size="0,0" pers-start="0,0" pers-end="0,0" locked="0" mesh="" flag=""/>
            <path id="shapePath56" d="M304.992,4 L386.976,4 L386.976,68 L304.992,68 L304.992,4 Z" style="stroke:none;fill-rule:nonzero;fill:#000000;fill-opacity:0;"/>
        </g>
        <g id="Shape57">
            <desc shapeID="57" type="0" basicInfo-basicType="0" basicInfo-roundedRectRadius="12" basicInfo-polygonSides="6" basicInfo-starPoints="5" bounding="rect(-29.8125,-7.41406,59.625,14.8281)" text="" font-familyName="" font-pixelSize="20" font-bold="0" font-underline="0" font-alignment="1" strokeStyle="0" markerStart="0" markerEnd="0" shadowEnabled="0" shadowOffsetX="0" shadowOffsetY="2" shadowBlur="4" shadowOpacity="160" blurEnabled="0" blurRadius="4" transform="matrix(1,0,0,1,346.625,37.8209)" pers-center="0,0" pers-size="0,0" pers-start="0,0" pers-end="0,0" locked="0" mesh="" flag=""/>
            <path id="shapePath57" d="M316.812,41.86 L316.812,30.4069 L318.219,30.4069 L318.219,36.9381 L321.547,33.5631 L323.375,33.5631 L320.203,36.6413 L323.687,41.86 L321.953,41.86 L319.219,37.61 L318.219,38.5631 L318.219,41.86 L316.812,41.86 M327.875,40.5944 L328.078,41.8444 C327.682,41.9277 327.328,41.9694 327.016,41.9694 C326.505,41.9694 326.109,41.8913 325.828,41.735 C325.547,41.5683 325.349,41.3548 325.234,41.0944 C325.12,40.8235 325.062,40.2663 325.062,39.4225 L325.062,34.6569 L324.031,34.6569 L324.031,33.5631 L325.062,33.5631 L325.062,31.5006 L326.469,30.6569 L326.469,33.5631 L327.875,33.5631 L327.875,34.6569 L326.469,34.6569 L326.469,39.5006 C326.469,39.9069 326.489,40.1673 326.531,40.2819 C326.583,40.3965 326.667,40.4902 326.781,40.5631 C326.896,40.6256 327.057,40.6569 327.266,40.6569 C327.422,40.6569 327.625,40.636 327.875,40.5944 M329.258,41.86 L329.258,30.4069 L330.664,30.4069 L330.664,34.5163 C331.32,33.7558 332.148,33.3756 333.148,33.3756 C333.763,33.3756 334.294,33.4954 334.742,33.735 C335.2,33.9746 335.523,34.3079 335.711,34.735 C335.909,35.1621 336.008,35.7819 336.008,36.5944 L336.008,41.86 L334.601,41.86 L334.601,36.5944 C334.601,35.8965 334.45,35.386 334.148,35.0631 C333.846,34.7402 333.414,34.5788 332.851,34.5788 C332.435,34.5788 332.044,34.6881 331.68,34.9069 C331.315,35.1256 331.055,35.4225 330.898,35.7975 C330.742,36.1621 330.664,36.6673 330.664,37.3131 L330.664,41.86 L329.258,41.86 M342.57,41.86 L342.57,30.4069 L343.976,30.4069 L343.976,41.86 L342.57,41.86 M351.562,40.8288 C351.042,41.2767 350.542,41.5944 350.062,41.7819 C349.583,41.959 349.068,42.0475 348.516,42.0475 C347.599,42.0475 346.896,41.8235 346.406,41.3756 C345.917,40.9277 345.672,40.36 345.672,39.6725 C345.672,39.2663 345.766,38.8965 345.953,38.5631 C346.141,38.2194 346.38,37.9485 346.672,37.7506 C346.974,37.5423 347.312,37.386 347.687,37.2819 C347.969,37.209 348.385,37.1413 348.937,37.0788 C350.073,36.9433 350.911,36.7819 351.453,36.5944 C351.453,36.3965 351.453,36.2715 351.453,36.2194 C351.453,35.6465 351.323,35.2454 351.062,35.0163 C350.698,34.6933 350.161,34.5319 349.453,34.5319 C348.797,34.5319 348.307,34.6517 347.984,34.8913 C347.672,35.1204 347.443,35.5267 347.297,36.11 L345.922,35.9225 C346.047,35.3392 346.25,34.8652 346.531,34.5006 C346.823,34.136 347.239,33.86 347.781,33.6725 C348.323,33.4746 348.948,33.3756 349.656,33.3756 C350.364,33.3756 350.937,33.459 351.375,33.6256 C351.823,33.7923 352.151,34.0006 352.359,34.2506 C352.568,34.5006 352.713,34.8183 352.797,35.2038 C352.849,35.4433 352.875,35.8756 352.875,36.5006 L352.875,38.3756 C352.875,39.6881 352.901,40.5163 352.953,40.86 C353.016,41.2038 353.135,41.5371 353.312,41.86 L351.844,41.86 C351.698,41.5683 351.604,41.2246 351.562,40.8288 M351.453,37.6881 C350.943,37.8965 350.177,38.0735 349.156,38.2194 C348.573,38.3027 348.161,38.3965 347.922,38.5006 C347.682,38.6048 347.495,38.761 347.359,38.9694 C347.234,39.1673 347.172,39.386 347.172,39.6256 C347.172,40.0006 347.312,40.3131 347.594,40.5631 C347.885,40.8131 348.302,40.9381 348.844,40.9381 C349.385,40.9381 349.864,40.8235 350.281,40.5944 C350.708,40.3548 351.021,40.0267 351.219,39.61 C351.375,39.2975 351.453,38.8288 351.453,38.2038 L351.453,37.6881 M354.992,45.0631 L354.836,43.735 C355.138,43.8183 355.404,43.86 355.633,43.86 C355.945,43.86 356.195,43.8079 356.383,43.7038 C356.57,43.5996 356.726,43.4538 356.851,43.2663 C356.935,43.1308 357.075,42.7819 357.273,42.2194 C357.305,42.1465 357.346,42.0319 357.398,41.8756 L354.258,33.5631 L355.773,33.5631 L357.492,38.36 C357.721,38.9746 357.924,39.6152 358.101,40.2819 C358.258,39.636 358.45,39.0058 358.68,38.3913 L360.445,33.5631 L361.851,33.5631 L358.695,42.0006 C358.362,42.9173 358.101,43.5475 357.914,43.8913 C357.664,44.3496 357.377,44.6881 357.055,44.9069 C356.732,45.1256 356.346,45.235 355.898,45.235 C355.627,45.235 355.325,45.1777 354.992,45.0631 M368.726,39.1881 L370.18,39.36 C369.95,40.2142 369.523,40.8756 368.898,41.3444 C368.284,41.8131 367.497,42.0475 366.539,42.0475 C365.32,42.0475 364.357,41.6725 363.648,40.9225 C362.94,40.1725 362.586,39.1256 362.586,37.7819 C362.586,36.386 362.945,35.3027 363.664,34.5319 C364.383,33.761 365.315,33.3756 366.461,33.3756 C367.565,33.3756 368.466,33.7558 369.164,34.5163 C369.872,35.2663 370.226,36.3235 370.226,37.6881 C370.226,37.7715 370.226,37.8965 370.226,38.0631 L364.039,38.0631 C364.091,38.9798 364.346,39.6829 364.805,40.1725 C365.273,40.6517 365.851,40.8913 366.539,40.8913 C367.06,40.8913 367.502,40.7558 367.867,40.485 C368.232,40.2142 368.518,39.7819 368.726,39.1881 M364.117,36.9069 L368.742,36.9069 C368.68,36.209 368.502,35.6881 368.211,35.3444 C367.763,34.8027 367.185,34.5319 366.476,34.5319 C365.831,34.5319 365.284,34.7506 364.836,35.1881 C364.398,35.6152 364.159,36.1881 364.117,36.9069 M371.937,41.86 L371.937,33.5631 L373.203,33.5631 L373.203,34.8131 C373.526,34.2298 373.823,33.8444 374.094,33.6569 C374.364,33.4694 374.667,33.3756 375,33.3756 C375.469,33.3756 375.948,33.5267 376.437,33.8288 L375.953,35.1256 C375.609,34.9277 375.266,34.8288 374.922,34.8288 C374.62,34.8288 374.344,34.9225 374.094,35.11 C373.854,35.2871 373.682,35.5423 373.578,35.8756 C373.422,36.3756 373.344,36.9225 373.344,37.5163 L373.344,41.86 L371.937,41.86 Z" style="stroke:none;fill-rule:nonzero;fill:#000000;fill-opacity:1;"/>
        </g>
        <g id="Shape58">
            <desc shapeID="58" type="0" basicInfo-basicType="0" basicInfo-roundedRectRadius="12" basicInfo-polygonSides="6" basicInfo-starPoints="5" bounding="rect(-40.9921,-27.4961,81.9843,54.9921)" text="" font-familyName="" font-pixelSize="20" font-bold="0" font-underline="0" font-alignment="1" strokeStyle="0" markerStart="0" markerEnd="0" shadowEnabled="0" shadowOffsetX="0" shadowOffsetY="2" shadowBlur="4" shadowOpacity="160" blurEnabled="0" blurRadius="4" transform="matrix(1,0,0,1,273.984,35.4961)" pers-center="0,0" pers-size="0,0" pers-start="0,0" pers-end="0,0" locked="0" mesh="" flag=""/>
            <path id="shapePath58" d="M232.992,8 L314.976,8 L314.976,62.9921 L232.992,62.9921 L232.992,8 Z" style="stroke:none;fill-rule:nonzero;fill:#000000;fill-opacity:0;"/>
        </g>
        <g id="Shape59">
            <desc shapeID="59" type="0" basicInfo-basicType="0" basicInfo-roundedRectRadius="12" basicInfo-polygonSides="6" basicInfo-starPoints="5" bounding="rect(-6.75781,-4.92969,13.5156,9.85938)" text="" font-familyName="" font-pixelSize="20" font-bold="0" font-underline="0" font-alignment="1" strokeStyle="0" markerStart="0" markerEnd="0" shadowEnabled="0" shadowOffsetX="0" shadowOffsetY="2" shadowBlur="4" shadowOpacity="160" blurEnabled="0" blurRadius="4" transform="matrix(1,0,0,1,266.119,37.4864)" pers-center="0,0" pers-size="0,0" pers-start="0,0" pers-end="0,0" locked="0" mesh="" flag=""/>
            <path id="shapePath59" d="M262.376,42.4161 L259.361,32.5567 L261.08,32.5567 L262.642,38.2442 L263.236,40.3692 C263.257,40.265 263.423,39.5879 263.736,38.3379 L265.314,32.5567 L267.033,32.5567 L268.501,38.2754 L268.986,40.1661 L269.564,38.2598 L271.251,32.5567 L272.876,32.5567 L269.798,42.4161 L268.064,42.4161 L266.486,36.5098 L266.111,34.8379 L264.111,42.4161 L262.376,42.4161 Z" style="stroke:none;fill-rule:nonzero;fill:#000000;fill-opacity:1;"/>
        </g>
        <g id="Shape60">
            <desc shapeID="60" type="0" basicInfo-basicType="0" basicInfo-roundedRectRadius="12" basicInfo-polygonSides="6" basicInfo-starPoints="5" bounding="rect(-2.6875,-4.29688,5.375,8.59375)" text="" font-familyName="" font-pixelSize="20" font-bold="0" font-underline="0" font-alignment="1" strokeStyle="0" markerStart="0" markerEnd="0" shadowEnabled="0" shadowOffsetX="0" shadowOffsetY="2" shadowBlur="4" shadowOpacity="160" blurEnabled="0" blurRadius="4" transform="matrix(1,0,0,1,276.334,31.1192)" pers-center="0,0" pers-size="0,0" pers-start="0,0" pers-end="0,0" locked="0" mesh="" flag=""/>
            <path id="shapePath60" d="M273.646,35.4161 L273.646,26.8223 L274.787,26.8223 L274.787,34.4004 L279.021,34.4004 L279.021,35.4161 L273.646,35.4161 Z" style="stroke:none;fill-rule:nonzero;fill:#000000;fill-opacity:1;"/>
        </g>
        <g id="Shape61">
            <desc shapeID="61" type="0" basicInfo-basicType="0" basicInfo-roundedRectRadius="12" basicInfo-polygonSides="6" basicInfo-starPoints="5" bounding="rect(-3.63275,-5.5625,7.26553,11.125)" text="" font-familyName="" font-pixelSize="20" font-bold="0" font-underline="0" font-alignment="1" strokeStyle="0" markerStart="0" markerEnd="0" shadowEnabled="0" shadowOffsetX="0" shadowOffsetY="2" shadowBlur="4" shadowOpacity="160" blurEnabled="0" blurRadius="4" transform="matrix(1,0,0,1,284.118,46.3848)" pers-center="0,0" pers-size="0,0" pers-start="0,0" pers-end="0,0" locked="0" mesh="" flag=""/>
            <path id="shapePath61" d="M280.485,49.4161 L280.485,40.8223 L281.548,40.8223 L281.548,45.7286 L284.032,43.1973 L285.407,43.1973 L283.016,45.4942 L285.641,49.4161 L284.345,49.4161 L282.282,46.2286 L281.548,46.9473 L281.548,49.4161 L280.485,49.4161 M286.688,42.0567 L286.688,40.8223 L287.751,40.8223 L287.751,42.0567 L286.688,42.0567 M285.36,51.8379 L285.548,50.9317 C285.766,50.9838 285.933,51.0098 286.048,51.0098 C286.266,51.0098 286.428,50.9369 286.532,50.7911 C286.636,50.6556 286.688,50.3015 286.688,49.7286 L286.688,43.1973 L287.751,43.1973 L287.751,49.7598 C287.751,50.5202 287.652,51.0515 287.454,51.3536 C287.193,51.7494 286.772,51.9473 286.188,51.9473 C285.897,51.9473 285.62,51.9109 285.36,51.8379 Z" style="stroke:none;fill-rule:nonzero;fill:#000000;fill-opacity:1;"/>
        </g>
        <g id="Shape62">
            <desc shapeID="62" type="0" basicInfo-basicType="0" basicInfo-roundedRectRadius="12" basicInfo-polygonSides="6" basicInfo-starPoints="5" bounding="rect(-40.9921,-27.4961,81.9843,54.9921)" text="" font-familyName="" font-pixelSize="20" font-bold="0" font-underline="0" font-alignment="1" strokeStyle="0" markerStart="0" markerEnd="0" shadowEnabled="0" shadowOffsetX="0" shadowOffsetY="2" shadowBlur="4" shadowOpacity="160" blurEnabled="0" blurRadius="4" transform="matrix(1,0,0,1,129.984,35.4961)" pers-center="0,0" pers-size="0,0" pers-start="0,0" pers-end="0,0" locked="0" mesh="" flag=""/>
            <path id="shapePath62" d="M88.9921,8 L170.976,8 L170.976,62.9921 L88.9921,62.9921 L88.9921,8 Z" style="stroke:none;fill-rule:nonzero;fill:#000000;fill-opacity:0;"/>
        </g>
        <g id="Shape63">
            <desc shapeID="63" type="0" basicInfo-basicType="0" basicInfo-roundedRectRadius="12" basicInfo-polygonSides="6" basicInfo-starPoints="5" bounding="rect(-6.75781,-4.92969,13.5156,9.85938)" text="" font-familyName="" font-pixelSize="20" font-bold="0" font-underline="0" font-alignment="1" strokeStyle="0" markerStart="0" markerEnd="0" shadowEnabled="0" shadowOffsetX="0" shadowOffsetY="2" shadowBlur="4" shadowOpacity="160" blurEnabled="0" blurRadius="4" transform="matrix(1,0,0,1,123.846,37.4864)" pers-center="0,0" pers-size="0,0" pers-start="0,0" pers-end="0,0" locked="0" mesh="" flag=""/>
            <path id="shapePath63" d="M120.104,42.4161 L117.089,32.5567 L118.807,32.5567 L120.37,38.2442 L120.964,40.3692 C120.984,40.265 121.151,39.5879 121.464,38.3379 L123.042,32.5567 L124.76,32.5567 L126.229,38.2754 L126.714,40.1661 L127.292,38.2598 L128.979,32.5567 L130.604,32.5567 L127.526,42.4161 L125.792,42.4161 L124.214,36.5098 L123.839,34.8379 L121.839,42.4161 L120.104,42.4161 Z" style="stroke:none;fill-rule:nonzero;fill:#000000;fill-opacity:1;"/>
        </g>
        <g id="Shape64">
            <desc shapeID="64" type="0" basicInfo-basicType="0" basicInfo-roundedRectRadius="12" basicInfo-polygonSides="6" basicInfo-starPoints="5" bounding="rect(-2.6875,-4.29688,5.375,8.59375)" text="" font-familyName="" font-pixelSize="20" font-bold="0" font-underline="0" font-alignment="1" strokeStyle="0" markerStart="0" markerEnd="0" shadowEnabled="0" shadowOffsetX="0" shadowOffsetY="2" shadowBlur="4" shadowOpacity="160" blurEnabled="0" blurRadius="4" transform="matrix(1,0,0,1,134.061,31.1192)" pers-center="0,0" pers-size="0,0" pers-start="0,0" pers-end="0,0" locked="0" mesh="" flag=""/>
            <path id="shapePath64" d="M131.374,35.4161 L131.374,26.8223 L132.515,26.8223 L132.515,34.4004 L136.749,34.4004 L136.749,35.4161 L131.374,35.4161 Z" style="stroke:none;fill-rule:nonzero;fill:#000000;fill-opacity:1;"/>
        </g>
        <g id="Shape65">
            <desc shapeID="65" type="0" basicInfo-basicType="0" basicInfo-roundedRectRadius="12" basicInfo-polygonSides="6" basicInfo-starPoints="5" bounding="rect(-2.58472,-5.5625,5.16943,11.125)" text="" font-familyName="" font-pixelSize="20" font-bold="0" font-underline="0" font-alignment="1" strokeStyle="0" markerStart="0" markerEnd="0" shadowEnabled="0" shadowOffsetX="0" shadowOffsetY="2" shadowBlur="4" shadowOpacity="160" blurEnabled="0" blurRadius="4" transform="matrix(1,0,0,1,139.454,46.3848)" pers-center="0,0" pers-size="0,0" pers-start="0,0" pers-end="0,0" locked="0" mesh="" flag=""/>
            <path id="shapePath65" d="M138.197,42.0567 L138.197,40.8223 L139.26,40.8223 L139.26,42.0567 L138.197,42.0567 M136.869,51.8379 L137.057,50.9317 C137.275,50.9838 137.442,51.0098 137.557,51.0098 C137.775,51.0098 137.937,50.9369 138.041,50.7911 C138.145,50.6557 138.197,50.3015 138.197,49.7286 L138.197,43.1973 L139.26,43.1973 L139.26,49.7598 C139.26,50.5202 139.161,51.0515 138.963,51.3536 C138.703,51.7494 138.281,51.9473 137.697,51.9473 C137.406,51.9473 137.13,51.9109 136.869,51.8379 M140.976,42.0411 L140.976,40.8223 L142.039,40.8223 L142.039,42.0411 L140.976,42.0411 M140.976,49.4161 L140.976,43.1973 L142.039,43.1973 L142.039,49.4161 L140.976,49.4161 Z" style="stroke:none;fill-rule:nonzero;fill:#000000;fill-opacity:1;"/>
        </g>
        <g id="Shape66">
            <desc shapeID="66" type="0" basicInfo-basicType="0" basicInfo-roundedRectRadius="12" basicInfo-polygonSides="6" basicInfo-starPoints="5" bounding="rect(-31.4961,-23.1024,62.9921,46.2047)" text="" font-familyName="" font-pixelSize="20" font-bold="0" font-underline="0" font-alignment="1" strokeStyle="0" markerStart="0" markerEnd="0" shadowEnabled="0" shadowOffsetX="0" shadowOffsetY="2" shadowBlur="4" shadowOpacity="160" blurEnabled="0" blurRadius="4" transform="matrix(1,0,0,1,57.9842,154.11)" pers-center="0,0" pers-size="0,0" pers-start="0,0" pers-end="0,0" locked="0" mesh="" flag=""/>
            <path id="shapePath66" d="M26.4882,131.008 L89.4803,131.008 L89.4803,177.213 L26.4882,177.213 L26.4882,131.008 Z" style="stroke:none;fill-rule:nonzero;fill:#000000;fill-opacity:0;"/>
        </g>
        <g id="Shape67">
            <desc shapeID="67" type="0" basicInfo-basicType="0" basicInfo-roundedRectRadius="12" basicInfo-polygonSides="6" basicInfo-starPoints="5" bounding="rect(-13.4344,-11.1094,26.8687,22.2188)" text="" font-familyName="" font-pixelSize="20" font-bold="0" font-underline="0" font-alignment="1" strokeStyle="0" markerStart="0" markerEnd="0" shadowEnabled="0" shadowOffsetX="0" shadowOffsetY="2" shadowBlur="4" shadowOpacity="160" blurEnabled="0" blurRadius="4" transform="matrix(1,0,0,1,48.9225,152.177)" pers-center="0,0" pers-size="0,0" pers-start="0,0" pers-end="0,0" locked="0" mesh="" flag=""/>
            <path id="shapePath67" d="M35.4882,141.068 L62.3569,141.068 L62.3569,163.287 L35.4882,163.287 L35.4882,141.068 Z" style="stroke:none;fill-rule:nonzero;fill:#fdfdfd;fill-opacity:1;"/>
        </g>
        <g id="Shape68">
            <desc shapeID="68" type="0" basicInfo-basicType="0" basicInfo-roundedRectRadius="12" basicInfo-polygonSides="6" basicInfo-starPoints="5" bounding="rect(-13.2522,-6.79688,26.5043,13.5938)" text="" font-familyName="" font-pixelSize="20" font-bold="0" font-underline="0" font-alignment="1" strokeStyle="0" markerStart="0" markerEnd="0" shadowEnabled="0" shadowOffsetX="0" shadowOffsetY="2" shadowBlur="4" shadowOpacity="160" blurEnabled="0" blurRadius="4" transform="matrix(1,0,0,1,48.7247,151.771)" pers-center="0,0" pers-size="0,0" pers-start="0,0" pers-end="0,0" locked="0" mesh="" flag=""/>
            <path id="shapePath68" d="M35.4725,158.568 L40.6913,144.974 L42.6288,144.974 L48.1913,158.568 L35.4725,158.568 M37.9725,156.958 L45.5194,156.958 L42.5819,149.208 C42.1444,148.052 41.8215,147.115 41.6132,146.396 C41.4465,147.24 41.2069,148.104 40.8944,148.99 L37.9725,156.958 M51.4769,158.568 L48.4612,148.708 L50.18,148.708 L51.7425,154.396 L52.3362,156.521 C52.3571,156.417 52.5237,155.74 52.8362,154.49 L54.4144,148.708 L56.1331,148.708 L57.6019,154.427 L58.0862,156.318 L58.6644,154.412 L60.3519,148.708 L61.9769,148.708 L58.8987,158.568 L57.1644,158.568 L55.5862,152.662 L55.2112,150.99 L53.2112,158.568 L51.4769,158.568 Z" style="stroke:none;fill-rule:nonzero;fill:#0000ff;fill-opacity:1;"/>
        </g>
        <g id="Shape69">
            <desc shapeID="69" type="0" basicInfo-basicType="0" basicInfo-roundedRectRadius="12" basicInfo-polygonSides="6" basicInfo-starPoints="5" bounding="rect(-2.46786,-5.10156,4.93576,10.2031)" text="" font-familyName="" font-pixelSize="20" font-bold="0" font-underline="0" font-alignment="1" strokeStyle="0" markerStart="0" markerEnd="0" shadowEnabled="0" shadowOffsetX="0" shadowOffsetY="2" shadowBlur="4" shadowOpacity="160" blurEnabled="0" blurRadius="4" transform="matrix(1,0,0,1,64.8248,150.638)" pers-center="0,0" pers-size="0,0" pers-start="0,0" pers-end="0,0" locked="0" mesh="" flag=""/>
            <path id="shapePath69" d="M62.3569,145.537 L67.2927,145.537 L67.2927,155.74 L62.3569,155.74 L62.3569,145.537 Z" style="stroke:none;fill-rule:nonzero;fill:#fdfdfd;fill-opacity:1;"/>
        </g>
        <g id="Shape70">
            <desc shapeID="70" type="0" basicInfo-basicType="0" basicInfo-roundedRectRadius="12" basicInfo-polygonSides="6" basicInfo-starPoints="5" bounding="rect(-1.1875,-3.23438,2.375,6.46875)" text="" font-familyName="" font-pixelSize="20" font-bold="0" font-underline="0" font-alignment="1" strokeStyle="0" markerStart="0" markerEnd="0" shadowEnabled="0" shadowOffsetX="0" shadowOffsetY="2" shadowBlur="4" shadowOpacity="160" blurEnabled="0" blurRadius="4" transform="matrix(1,0,0,1,64.5288,150.333)" pers-center="0,0" pers-size="0,0" pers-start="0,0" pers-end="0,0" locked="0" mesh="" flag=""/>
            <path id="shapePath70" d="M65.7163,153.568 L64.9194,153.568 L64.9194,148.521 C64.7319,148.708 64.4819,148.896 64.1694,149.083 C63.8569,149.261 63.5809,149.391 63.3413,149.474 L63.3413,148.708 C63.7788,148.511 64.1642,148.266 64.4975,147.974 C64.8309,147.672 65.0652,147.38 65.2007,147.099 L65.7163,147.099 L65.7163,153.568 Z" style="stroke:none;fill-rule:nonzero;fill:#0000ff;fill-opacity:1;"/>
        </g>
        <g id="Shape71">
            <desc shapeID="71" type="0" basicInfo-basicType="0" basicInfo-roundedRectRadius="12" basicInfo-polygonSides="6" basicInfo-starPoints="5" bounding="rect(-4.93579,-5.10156,9.87158,10.2031)" text="" font-familyName="" font-pixelSize="20" font-bold="0" font-underline="0" font-alignment="1" strokeStyle="0" markerStart="0" markerEnd="0" shadowEnabled="0" shadowOffsetX="0" shadowOffsetY="2" shadowBlur="4" shadowOpacity="160" blurEnabled="0" blurRadius="4" transform="matrix(1,0,0,1,72.2285,160.638)" pers-center="0,0" pers-size="0,0" pers-start="0,0" pers-end="0,0" locked="0" mesh="" flag=""/>
            <path id="shapePath71" d="M67.2927,155.537 L77.1642,155.537 L77.1642,165.74 L67.2927,165.74 L67.2927,155.537 Z" style="stroke:none;fill-rule:nonzero;fill:#fdfdfd;fill-opacity:1;"/>
        </g>
        <g id="Shape72">
            <desc shapeID="72" type="0" basicInfo-basicType="0" basicInfo-roundedRectRadius="12" basicInfo-polygonSides="6" basicInfo-starPoints="5" bounding="rect(-3.6554,-3.23438,7.31079,6.46875)" text="" font-familyName="" font-pixelSize="20" font-bold="0" font-underline="0" font-alignment="1" strokeStyle="0" markerStart="0" markerEnd="0" shadowEnabled="0" shadowOffsetX="0" shadowOffsetY="2" shadowBlur="4" shadowOpacity="160" blurEnabled="0" blurRadius="4" transform="matrix(1,0,0,1,71.9324,160.333)" pers-center="0,0" pers-size="0,0" pers-start="0,0" pers-end="0,0" locked="0" mesh="" flag=""/>
            <path id="shapePath72" d="M70.652,163.568 L69.8552,163.568 L69.8552,158.521 C69.6677,158.708 69.4177,158.896 69.1052,159.083 C68.7927,159.261 68.5166,159.391 68.277,159.474 L68.277,158.708 C68.7145,158.511 69.0999,158.266 69.4333,157.974 C69.7666,157.672 70.001,157.38 70.1364,157.099 L70.652,157.099 L70.652,163.568 M75.5878,163.568 L74.791,163.568 L74.791,158.521 C74.6035,158.708 74.3535,158.896 74.041,159.083 C73.7285,159.261 73.4524,159.391 73.2128,159.474 L73.2128,158.708 C73.6503,158.511 74.0357,158.266 74.3691,157.974 C74.7024,157.672 74.9368,157.38 75.0722,157.099 L75.5878,157.099 L75.5878,163.568 Z" style="stroke:none;fill-rule:nonzero;fill:#0000ff;fill-opacity:1;"/>
        </g>
    </g>
</svg>
