<?xml version="1.0"?>
<svg version="1.1" xmlns="http://www.w3.org/2000/svg" xmlns:xlink="http://www.w3.org/1999/xlink" width="410" height="240">
    <desc iVinci="yes" version="4.6" gridStep="20" showGrid="no" snapToGrid="no" codePlatform="0"/>
    <g id="Layer1" name="Layer 1" opacity="1">
        <g id="Shape1">
            <desc shapeID="1" type="0" basicInfo-basicType="0" basicInfo-roundedRectRadius="12" basicInfo-polygonSides="6" basicInfo-starPoints="5" bounding="rect(-31.4961,-32,62.9921,64)" text="" font-familyName="" font-pixelSize="20" font-bold="0" font-underline="0" font-alignment="1" strokeStyle="0" markerStart="0" markerEnd="0" shadowEnabled="0" shadowOffsetX="0" shadowOffsetY="2" shadowBlur="4" shadowOpacity="160" blurEnabled="0" blurRadius="4" transform="matrix(1,0,0,1,51.4961,51)" pers-center="0,0" pers-size="0,0" pers-start="0,0" pers-end="0,0" locked="0" mesh="" flag=""/>
            <path id="shapePath1" d="M20,51 C20,33.3269 34.1013,19 51.4961,19 C59.8493,19 67.8605,22.3714 73.7672,28.3726 C79.6738,34.3737 82.9921,42.5131 82.9921,51 C82.9921,68.6731 68.8909,83 51.4961,83 C34.1013,83 20,68.6731 20,51 Z" style="stroke:none;fill-rule:nonzero;fill:#cfe2f3;fill-opacity:1;"/>
        </g>
        <g id="Shape2">
            <desc shapeID="2" type="0" basicInfo-basicType="0" basicInfo-roundedRectRadius="12" basicInfo-polygonSides="6" basicInfo-starPoints="5" bounding="rect(-31.4961,-32,62.9921,64)" text="" font-familyName="" font-pixelSize="20" font-bold="0" font-underline="0" font-alignment="1" strokeStyle="0" markerStart="0" markerEnd="0" shadowEnabled="0" shadowOffsetX="0" shadowOffsetY="2" shadowBlur="4" shadowOpacity="160" blurEnabled="0" blurRadius="4" transform="matrix(1,0,0,1,51.4961,51)" pers-center="0,0" pers-size="0,0" pers-start="0,0" pers-end="0,0" locked="0" mesh="" flag=""/>
            <path id="shapePath2" d="M20,51 C20,33.3269 34.1013,19 51.4961,19 C59.8493,19 67.8605,22.3714 73.7672,28.3726 C79.6738,34.3737 82.9921,42.5131 82.9921,51 C82.9921,68.6731 68.8909,83 51.4961,83 C34.1013,83 20,68.6731 20,51 Z" style="stroke:#000000;stroke-opacity:1;stroke-width:1;stroke-linejoin:round;stroke-miterlimit:2;stroke-linecap:butt;fill:none;"/>
        </g>
        <g id="Shape3">
            <desc shapeID="3" type="0" basicInfo-basicType="0" basicInfo-roundedRectRadius="12" basicInfo-polygonSides="6" basicInfo-starPoints="5" bounding="rect(-31.4961,-32,62.9921,64)" text="" font-familyName="" font-pixelSize="20" font-bold="0" font-underline="0" font-alignment="1" strokeStyle="0" markerStart="0" markerEnd="0" shadowEnabled="0" shadowOffsetX="0" shadowOffsetY="2" shadowBlur="4" shadowOpacity="160" blurEnabled="0" blurRadius="4" transform="matrix(1,0,0,1,195.496,51)" pers-center="0,0" pers-size="0,0" pers-start="0,0" pers-end="0,0" locked="0" mesh="" flag=""/>
            <path id="shapePath3" d="M164,51 C164,33.3269 178.101,19 195.496,19 C203.849,19 211.86,22.3714 217.767,28.3726 C223.674,34.3737 226.992,42.5131 226.992,51 C226.992,68.6731 212.891,83 195.496,83 C178.101,83 164,68.6731 164,51 Z" style="stroke:none;fill-rule:nonzero;fill:#cfe2f3;fill-opacity:1;"/>
        </g>
        <g id="Shape4">
            <desc shapeID="4" type="0" basicInfo-basicType="0" basicInfo-roundedRectRadius="12" basicInfo-polygonSides="6" basicInfo-starPoints="5" bounding="rect(-31.4961,-32,62.9921,64)" text="" font-familyName="" font-pixelSize="20" font-bold="0" font-underline="0" font-alignment="1" strokeStyle="0" markerStart="0" markerEnd="0" shadowEnabled="0" shadowOffsetX="0" shadowOffsetY="2" shadowBlur="4" shadowOpacity="160" blurEnabled="0" blurRadius="4" transform="matrix(1,0,0,1,195.496,51)" pers-center="0,0" pers-size="0,0" pers-start="0,0" pers-end="0,0" locked="0" mesh="" flag=""/>
            <path id="shapePath4" d="M164,51 C164,33.3269 178.101,19 195.496,19 C203.849,19 211.86,22.3714 217.767,28.3726 C223.674,34.3737 226.992,42.5131 226.992,51 C226.992,68.6731 212.891,83 195.496,83 C178.101,83 164,68.6731 164,51 Z" style="stroke:#000000;stroke-opacity:1;stroke-width:1;stroke-linejoin:round;stroke-miterlimit:2;stroke-linecap:butt;fill:none;"/>
        </g>
        <g id="Shape5">
            <desc shapeID="5" type="0" basicInfo-basicType="0" basicInfo-roundedRectRadius="12" basicInfo-polygonSides="6" basicInfo-starPoints="5" bounding="rect(-38,-3.49606,76,6.99213)" text="" font-familyName="" font-pixelSize="20" font-bold="0" font-underline="0" font-alignment="1" strokeStyle="0" markerStart="0" markerEnd="0" shadowEnabled="0" shadowOffsetX="0" shadowOffsetY="2" shadowBlur="4" shadowOpacity="160" blurEnabled="0" blurRadius="4" transform="matrix(1,0,0,1,123.992,53.4961)" pers-center="0,0" pers-size="0,0" pers-start="0,0" pers-end="0,0" locked="0" mesh="" flag=""/>
            <path id="shapePath5" d="M161.992,53.4961 L89.4882,53.4961 L89.4882,50 L85.9921,53.4961 L89.4882,56.9921 L89.4882,53.4961 L161.992,53.4961 Z" style="stroke:none;fill-rule:nonzero;fill:#cfe2f3;fill-opacity:1;"/>
        </g>
        <g id="Shape6">
            <desc shapeID="6" type="0" basicInfo-basicType="0" basicInfo-roundedRectRadius="12" basicInfo-polygonSides="6" basicInfo-starPoints="5" bounding="rect(-38,-3.49606,76,6.99213)" text="" font-familyName="" font-pixelSize="20" font-bold="0" font-underline="0" font-alignment="1" strokeStyle="0" markerStart="0" markerEnd="0" shadowEnabled="0" shadowOffsetX="0" shadowOffsetY="2" shadowBlur="4" shadowOpacity="160" blurEnabled="0" blurRadius="4" transform="matrix(1,0,0,1,123.992,53.4961)" pers-center="0,0" pers-size="0,0" pers-start="0,0" pers-end="0,0" locked="0" mesh="" flag=""/>
            <path id="shapePath6" d="M161.992,53.4961 L89.4882,53.4961 L89.4882,50 L85.9921,53.4961 L89.4882,56.9921 L89.4882,53.4961 L161.992,53.4961 Z" style="stroke:#000000;stroke-opacity:1;stroke-width:1;stroke-linejoin:round;stroke-miterlimit:2;stroke-linecap:butt;fill:none;"/>
        </g>
        <g id="Shape7">
            <desc shapeID="7" type="0" basicInfo-basicType="0" basicInfo-roundedRectRadius="12" basicInfo-polygonSides="6" basicInfo-starPoints="5" bounding="rect(-40.9921,-30.9921,81.9843,61.9843)" text="" font-familyName="" font-pixelSize="20" font-bold="0" font-underline="0" font-alignment="1" strokeStyle="0" markerStart="0" markerEnd="0" shadowEnabled="0" shadowOffsetX="0" shadowOffsetY="2" shadowBlur="4" shadowOpacity="160" blurEnabled="0" blurRadius="4" transform="matrix(1,0,0,1,51.4961,50)" pers-center="0,0" pers-size="0,0" pers-start="0,0" pers-end="0,0" locked="0" mesh="" flag=""/>
            <path id="shapePath7" d="M10.5039,19.0079 L92.4882,19.0079 L92.4882,80.9921 L10.5039,80.9921 L10.5039,19.0079 Z" style="stroke:none;fill-rule:nonzero;fill:#000000;fill-opacity:0;"/>
        </g>
        <g id="Shape8">
            <desc shapeID="8" type="0" basicInfo-basicType="0" basicInfo-roundedRectRadius="12" basicInfo-polygonSides="6" basicInfo-starPoints="5" bounding="rect(-4.60938,-4.92969,9.21875,9.85938)" text="" font-familyName="" font-pixelSize="20" font-bold="0" font-underline="0" font-alignment="1" strokeStyle="0" markerStart="0" markerEnd="0" shadowEnabled="0" shadowOffsetX="0" shadowOffsetY="2" shadowBlur="4" shadowOpacity="160" blurEnabled="0" blurRadius="4" transform="matrix(1,0,0,1,48.1235,51.9903)" pers-center="0,0" pers-size="0,0" pers-start="0,0" pers-end="0,0" locked="0" mesh="" flag=""/>
            <path id="shapePath8" d="M43.5141,56.92 L47.1079,51.795 L43.7797,47.0606 L45.8735,47.0606 L47.3891,49.3731 C47.6704,49.8106 47.8943,50.1804 48.061,50.4825 C48.3422,50.0762 48.5974,49.7117 48.8266,49.3887 L50.4829,47.0606 L52.4672,47.0606 L49.0766,51.7012 L52.7329,56.92 L50.686,56.92 L48.6547,53.8575 L48.1235,53.0294 L45.5297,56.92 L43.5141,56.92 Z" style="stroke:none;fill-rule:nonzero;fill:#000000;fill-opacity:1;"/>
        </g>
        <g id="Shape9">
            <desc shapeID="9" type="0" basicInfo-basicType="0" basicInfo-roundedRectRadius="12" basicInfo-polygonSides="6" basicInfo-starPoints="5" bounding="rect(-1.57812,-4.3125,3.15625,8.625)" text="" font-familyName="" font-pixelSize="20" font-bold="0" font-underline="0" font-alignment="1" strokeStyle="0" markerStart="0" markerEnd="0" shadowEnabled="0" shadowOffsetX="0" shadowOffsetY="2" shadowBlur="4" shadowOpacity="160" blurEnabled="0" blurRadius="4" transform="matrix(1,0,0,1,55.5922,59.6075)" pers-center="0,0" pers-size="0,0" pers-start="0,0" pers-end="0,0" locked="0" mesh="" flag=""/>
            <path id="shapePath9" d="M57.1703,63.92 L56.1235,63.92 L56.1235,57.2012 C55.8631,57.4408 55.5245,57.6856 55.1078,57.9356 C54.7016,58.1752 54.337,58.3523 54.0141,58.4669 L54.0141,57.4512 C54.5974,57.17 55.1078,56.8367 55.5453,56.4512 C55.9933,56.0554 56.311,55.67 56.4985,55.295 L57.1703,55.295 L57.1703,63.92 Z" style="stroke:none;fill-rule:nonzero;fill:#000000;fill-opacity:1;"/>
        </g>
        <g id="Shape10">
            <desc shapeID="10" type="0" basicInfo-basicType="0" basicInfo-roundedRectRadius="12" basicInfo-polygonSides="6" basicInfo-starPoints="5" bounding="rect(-40.9921,-30.9921,81.9843,61.9843)" text="" font-familyName="" font-pixelSize="20" font-bold="0" font-underline="0" font-alignment="1" strokeStyle="0" markerStart="0" markerEnd="0" shadowEnabled="0" shadowOffsetX="0" shadowOffsetY="2" shadowBlur="4" shadowOpacity="160" blurEnabled="0" blurRadius="4" transform="matrix(1,0,0,1,195.496,49.9921)" pers-center="0,0" pers-size="0,0" pers-start="0,0" pers-end="0,0" locked="0" mesh="" flag=""/>
            <path id="shapePath10" d="M154.504,19 L236.488,19 L236.488,80.9843 L154.504,80.9843 L154.504,19 Z" style="stroke:none;fill-rule:nonzero;fill:#000000;fill-opacity:0;"/>
        </g>
        <g id="Shape11">
            <desc shapeID="11" type="0" basicInfo-basicType="0" basicInfo-roundedRectRadius="12" basicInfo-polygonSides="6" basicInfo-starPoints="5" bounding="rect(-4.01562,-6.79688,8.03125,13.5938)" text="" font-familyName="" font-pixelSize="20" font-bold="0" font-underline="0" font-alignment="1" strokeStyle="0" markerStart="0" markerEnd="0" shadowEnabled="0" shadowOffsetX="0" shadowOffsetY="2" shadowBlur="4" shadowOpacity="160" blurEnabled="0" blurRadius="4" transform="matrix(1,0,0,1,192.115,50.1152)" pers-center="0,0" pers-size="0,0" pers-start="0,0" pers-end="0,0" locked="0" mesh="" flag=""/>
            <path id="shapePath11" d="M188.1,56.9121 L188.1,43.3184 L189.772,43.3184 L189.772,48.1934 C190.553,47.2871 191.537,46.834 192.725,46.834 C193.454,46.834 194.084,46.9798 194.615,47.2715 C195.157,47.5527 195.542,47.9486 195.772,48.459 C196.011,48.9694 196.131,49.7038 196.131,50.6621 L196.131,56.9121 L194.459,56.9121 L194.459,50.6621 C194.459,49.8288 194.277,49.2246 193.912,48.8496 C193.548,48.4642 193.037,48.2715 192.381,48.2715 C191.881,48.2715 191.412,48.4017 190.975,48.6621 C190.548,48.9121 190.24,49.2611 190.053,49.709 C189.865,50.1465 189.772,50.7507 189.772,51.5215 L189.772,56.9121 L188.1,56.9121 Z" style="stroke:none;fill-rule:nonzero;fill:#000000;fill-opacity:1;"/>
        </g>
        <g id="Shape12">
            <desc shapeID="12" type="0" basicInfo-basicType="0" basicInfo-roundedRectRadius="12" basicInfo-polygonSides="6" basicInfo-starPoints="5" bounding="rect(-1.57812,-4.3125,3.15625,8.625)" text="" font-familyName="" font-pixelSize="20" font-bold="0" font-underline="0" font-alignment="1" strokeStyle="0" markerStart="0" markerEnd="0" shadowEnabled="0" shadowOffsetX="0" shadowOffsetY="2" shadowBlur="4" shadowOpacity="160" blurEnabled="0" blurRadius="4" transform="matrix(1,0,0,1,200.116,59.5996)" pers-center="0,0" pers-size="0,0" pers-start="0,0" pers-end="0,0" locked="0" mesh="" flag=""/>
            <path id="shapePath12" d="M201.694,63.9121 L200.647,63.9121 L200.647,57.1934 C200.387,57.433 200.048,57.6777 199.632,57.9277 C199.225,58.1673 198.861,58.3444 198.538,58.459 L198.538,57.4434 C199.121,57.1621 199.632,56.8288 200.069,56.4434 C200.517,56.0475 200.835,55.6621 201.022,55.2871 L201.694,55.2871 L201.694,63.9121 Z" style="stroke:none;fill-rule:nonzero;fill:#000000;fill-opacity:1;"/>
        </g>
        <g id="Shape13">
            <desc shapeID="13" type="0" basicInfo-basicType="0" basicInfo-roundedRectRadius="12" basicInfo-polygonSides="6" basicInfo-starPoints="5" bounding="rect(-40.9921,-27.4961,81.9843,54.9921)" text="" font-familyName="" font-pixelSize="20" font-bold="0" font-underline="0" font-alignment="1" strokeStyle="0" markerStart="0" markerEnd="0" shadowEnabled="0" shadowOffsetX="0" shadowOffsetY="2" shadowBlur="4" shadowOpacity="160" blurEnabled="0" blurRadius="4" transform="matrix(1,0,0,1,131.496,37.4961)" pers-center="0,0" pers-size="0,0" pers-start="0,0" pers-end="0,0" locked="0" mesh="" flag=""/>
            <path id="shapePath13" d="M90.5039,10 L172.488,10 L172.488,64.9921 L90.5039,64.9921 L90.5039,10 Z" style="stroke:none;fill-rule:nonzero;fill:#000000;fill-opacity:0;"/>
        </g>
        <g id="Shape14">
            <desc shapeID="14" type="0" basicInfo-basicType="0" basicInfo-roundedRectRadius="12" basicInfo-polygonSides="6" basicInfo-starPoints="5" bounding="rect(-6.75781,-4.92969,13.5156,9.85938)" text="" font-familyName="" font-pixelSize="20" font-bold="0" font-underline="0" font-alignment="1" strokeStyle="0" markerStart="0" markerEnd="0" shadowEnabled="0" shadowOffsetX="0" shadowOffsetY="2" shadowBlur="4" shadowOpacity="160" blurEnabled="0" blurRadius="4" transform="matrix(1,0,0,1,121.204,39.4864)" pers-center="0,0" pers-size="0,0" pers-start="0,0" pers-end="0,0" locked="0" mesh="" flag=""/>
            <path id="shapePath14" d="M117.462,44.4161 L114.447,34.5567 L116.165,34.5567 L117.728,40.2442 L118.322,42.3692 C118.342,42.265 118.509,41.5879 118.822,40.3379 L120.4,34.5567 L122.118,34.5567 L123.587,40.2754 L124.072,42.1661 L124.65,40.2598 L126.337,34.5567 L127.962,34.5567 L124.884,44.4161 L123.15,44.4161 L121.572,38.5098 L121.197,36.8379 L119.197,44.4161 L117.462,44.4161 Z" style="stroke:none;fill-rule:nonzero;fill:#000000;fill-opacity:1;"/>
        </g>
        <g id="Shape15">
            <desc shapeID="15" type="0" basicInfo-basicType="0" basicInfo-roundedRectRadius="12" basicInfo-polygonSides="6" basicInfo-starPoints="5" bounding="rect(-1.57812,-4.3125,3.15625,8.625)" text="" font-familyName="" font-pixelSize="20" font-bold="0" font-underline="0" font-alignment="1" strokeStyle="0" markerStart="0" markerEnd="0" shadowEnabled="0" shadowOffsetX="0" shadowOffsetY="2" shadowBlur="4" shadowOpacity="160" blurEnabled="0" blurRadius="4" transform="matrix(1,0,0,1,130.748,33.1036)" pers-center="0,0" pers-size="0,0" pers-start="0,0" pers-end="0,0" locked="0" mesh="" flag=""/>
            <path id="shapePath15" d="M132.326,37.4161 L131.279,37.4161 L131.279,30.6973 C131.018,30.9369 130.68,31.1817 130.263,31.4317 C129.857,31.6713 129.492,31.8484 129.169,31.9629 L129.169,30.9473 C129.753,30.6661 130.263,30.3327 130.701,29.9473 C131.149,29.5515 131.466,29.1661 131.654,28.7911 L132.326,28.7911 L132.326,37.4161 Z" style="stroke:none;fill-rule:nonzero;fill:#000000;fill-opacity:1;"/>
        </g>
        <g id="Shape16">
            <desc shapeID="16" type="0" basicInfo-basicType="0" basicInfo-roundedRectRadius="12" basicInfo-polygonSides="6" basicInfo-starPoints="5" bounding="rect(-5.03665,-4.3125,10.0733,8.625)" text="" font-familyName="" font-pixelSize="20" font-bold="0" font-underline="0" font-alignment="1" strokeStyle="0" markerStart="0" markerEnd="0" shadowEnabled="0" shadowOffsetX="0" shadowOffsetY="2" shadowBlur="4" shadowOpacity="160" blurEnabled="0" blurRadius="4" transform="matrix(1,0,0,1,141.123,47.1036)" pers-center="0,0" pers-size="0,0" pers-start="0,0" pers-end="0,0" locked="0" mesh="" flag=""/>
            <path id="shapePath16" d="M139.243,51.4161 L138.196,51.4161 L138.196,44.6973 C137.935,44.9369 137.597,45.1817 137.18,45.4317 C136.774,45.6713 136.409,45.8484 136.087,45.9629 L136.087,44.9473 C136.67,44.6661 137.18,44.3327 137.618,43.9473 C138.066,43.5515 138.383,43.1661 138.571,42.7911 L139.243,42.7911 L139.243,51.4161 M146.16,51.4161 L145.113,51.4161 L145.113,44.6973 C144.853,44.9369 144.514,45.1817 144.097,45.4317 C143.691,45.6713 143.326,45.8484 143.004,45.9629 L143.004,44.9473 C143.587,44.6661 144.097,44.3327 144.535,43.9473 C144.983,43.5515 145.3,43.1661 145.488,42.7911 L146.16,42.7911 L146.16,51.4161 Z" style="stroke:none;fill-rule:nonzero;fill:#000000;fill-opacity:1;"/>
        </g>
        <g id="Shape17">
            <desc shapeID="17" type="0" basicInfo-basicType="0" basicInfo-roundedRectRadius="12" basicInfo-polygonSides="6" basicInfo-starPoints="5" bounding="rect(-31.4961,-32,62.9921,64)" text="" font-familyName="" font-pixelSize="20" font-bold="0" font-underline="0" font-alignment="1" strokeStyle="0" markerStart="0" markerEnd="0" shadowEnabled="0" shadowOffsetX="0" shadowOffsetY="2" shadowBlur="4" shadowOpacity="160" blurEnabled="0" blurRadius="4" transform="matrix(1,0,0,1,339.496,51)" pers-center="0,0" pers-size="0,0" pers-start="0,0" pers-end="0,0" locked="0" mesh="" flag=""/>
            <path id="shapePath17" d="M308,51 C308,33.3269 322.101,19 339.496,19 C347.849,19 355.86,22.3714 361.767,28.3726 C367.674,34.3737 370.992,42.5131 370.992,51 C370.992,68.6731 356.891,83 339.496,83 C322.101,83 308,68.6731 308,51 Z" style="stroke:none;fill-rule:nonzero;fill:#cfe2f3;fill-opacity:1;"/>
        </g>
        <g id="Shape18">
            <desc shapeID="18" type="0" basicInfo-basicType="0" basicInfo-roundedRectRadius="12" basicInfo-polygonSides="6" basicInfo-starPoints="5" bounding="rect(-31.4961,-32,62.9921,64)" text="" font-familyName="" font-pixelSize="20" font-bold="0" font-underline="0" font-alignment="1" strokeStyle="0" markerStart="0" markerEnd="0" shadowEnabled="0" shadowOffsetX="0" shadowOffsetY="2" shadowBlur="4" shadowOpacity="160" blurEnabled="0" blurRadius="4" transform="matrix(1,0,0,1,339.496,51)" pers-center="0,0" pers-size="0,0" pers-start="0,0" pers-end="0,0" locked="0" mesh="" flag=""/>
            <path id="shapePath18" d="M308,51 C308,33.3269 322.101,19 339.496,19 C347.849,19 355.86,22.3714 361.767,28.3726 C367.674,34.3737 370.992,42.5131 370.992,51 C370.992,68.6731 356.891,83 339.496,83 C322.101,83 308,68.6731 308,51 Z" style="stroke:#000000;stroke-opacity:1;stroke-width:1;stroke-linejoin:round;stroke-miterlimit:2;stroke-linecap:butt;fill:none;"/>
        </g>
        <g id="Shape19">
            <desc shapeID="19" type="0" basicInfo-basicType="0" basicInfo-roundedRectRadius="12" basicInfo-polygonSides="6" basicInfo-starPoints="5" bounding="rect(-38,-3.49606,76,6.99213)" text="" font-familyName="" font-pixelSize="20" font-bold="0" font-underline="0" font-alignment="1" strokeStyle="0" markerStart="0" markerEnd="0" shadowEnabled="0" shadowOffsetX="0" shadowOffsetY="2" shadowBlur="4" shadowOpacity="160" blurEnabled="0" blurRadius="4" transform="matrix(1,0,0,1,267.992,53.4961)" pers-center="0,0" pers-size="0,0" pers-start="0,0" pers-end="0,0" locked="0" mesh="" flag=""/>
            <path id="shapePath19" d="M305.992,53.4961 L233.488,53.4961 L233.488,50 L229.992,53.4961 L233.488,56.9921 L233.488,53.4961 L305.992,53.4961 Z" style="stroke:none;fill-rule:nonzero;fill:#cfe2f3;fill-opacity:1;"/>
        </g>
        <g id="Shape20">
            <desc shapeID="20" type="0" basicInfo-basicType="0" basicInfo-roundedRectRadius="12" basicInfo-polygonSides="6" basicInfo-starPoints="5" bounding="rect(-38,-3.49606,76,6.99213)" text="" font-familyName="" font-pixelSize="20" font-bold="0" font-underline="0" font-alignment="1" strokeStyle="0" markerStart="0" markerEnd="0" shadowEnabled="0" shadowOffsetX="0" shadowOffsetY="2" shadowBlur="4" shadowOpacity="160" blurEnabled="0" blurRadius="4" transform="matrix(1,0,0,1,267.992,53.4961)" pers-center="0,0" pers-size="0,0" pers-start="0,0" pers-end="0,0" locked="0" mesh="" flag=""/>
            <path id="shapePath20" d="M305.992,53.4961 L233.488,53.4961 L233.488,50 L229.992,53.4961 L233.488,56.9921 L233.488,53.4961 L305.992,53.4961 Z" style="stroke:#000000;stroke-opacity:1;stroke-width:1;stroke-linejoin:round;stroke-miterlimit:2;stroke-linecap:butt;fill:none;"/>
        </g>
        <g id="Shape21">
            <desc shapeID="21" type="0" basicInfo-basicType="0" basicInfo-roundedRectRadius="12" basicInfo-polygonSides="6" basicInfo-starPoints="5" bounding="rect(-40.9922,-30.9921,81.9843,61.9843)" text="" font-familyName="" font-pixelSize="20" font-bold="0" font-underline="0" font-alignment="1" strokeStyle="0" markerStart="0" markerEnd="0" shadowEnabled="0" shadowOffsetX="0" shadowOffsetY="2" shadowBlur="4" shadowOpacity="160" blurEnabled="0" blurRadius="4" transform="matrix(1,0,0,1,339.496,49.9921)" pers-center="0,0" pers-size="0,0" pers-start="0,0" pers-end="0,0" locked="0" mesh="" flag=""/>
            <path id="shapePath21" d="M298.504,19 L380.488,19 L380.488,80.9843 L298.504,80.9843 L298.504,19 Z" style="stroke:none;fill-rule:nonzero;fill:#000000;fill-opacity:0;"/>
        </g>
        <g id="Shape22">
            <desc shapeID="22" type="0" basicInfo-basicType="0" basicInfo-roundedRectRadius="12" basicInfo-polygonSides="6" basicInfo-starPoints="5" bounding="rect(-4.50781,-6.92969,9.01562,13.8594)" text="" font-familyName="" font-pixelSize="20" font-bold="0" font-underline="0" font-alignment="1" strokeStyle="0" markerStart="0" markerEnd="0" shadowEnabled="0" shadowOffsetX="0" shadowOffsetY="2" shadowBlur="4" shadowOpacity="160" blurEnabled="0" blurRadius="4" transform="matrix(1,0,0,1,336.194,53.9824)" pers-center="0,0" pers-size="0,0" pers-start="0,0" pers-end="0,0" locked="0" mesh="" flag=""/>
            <path id="shapePath22" d="M332.545,60.709 L332.373,59.1465 C332.738,59.2402 333.056,59.2871 333.327,59.2871 C333.691,59.2871 333.983,59.2246 334.202,59.0996 C334.431,58.9746 334.618,58.8027 334.764,58.584 C334.868,58.4173 335.035,58.0007 335.264,57.334 C335.295,57.2402 335.347,57.1048 335.42,56.9277 L331.686,47.0527 L333.483,47.0527 L335.53,52.7715 C335.801,53.4902 336.04,54.2507 336.248,55.0527 C336.436,54.2819 336.665,53.5319 336.936,52.8027 L339.03,47.0527 L340.702,47.0527 L336.952,57.084 C336.556,58.1673 336.243,58.9121 336.014,59.3184 C335.722,59.8705 335.384,60.2715 334.998,60.5215 C334.613,60.7819 334.155,60.9121 333.623,60.9121 C333.301,60.9121 332.941,60.8444 332.545,60.709 Z" style="stroke:none;fill-rule:nonzero;fill:#000000;fill-opacity:1;"/>
        </g>
        <g id="Shape23">
            <desc shapeID="23" type="0" basicInfo-basicType="0" basicInfo-roundedRectRadius="12" basicInfo-polygonSides="6" basicInfo-starPoints="5" bounding="rect(-1.57812,-4.3125,3.15625,8.625)" text="" font-familyName="" font-pixelSize="20" font-bold="0" font-underline="0" font-alignment="1" strokeStyle="0" markerStart="0" markerEnd="0" shadowEnabled="0" shadowOffsetX="0" shadowOffsetY="2" shadowBlur="4" shadowOpacity="160" blurEnabled="0" blurRadius="4" transform="matrix(1,0,0,1,343.592,59.5996)" pers-center="0,0" pers-size="0,0" pers-start="0,0" pers-end="0,0" locked="0" mesh="" flag=""/>
            <path id="shapePath23" d="M345.17,63.9121 L344.123,63.9121 L344.123,57.1934 C343.863,57.433 343.525,57.6777 343.108,57.9277 C342.702,58.1673 342.337,58.3444 342.014,58.459 L342.014,57.4434 C342.597,57.1621 343.108,56.8288 343.545,56.4434 C343.993,56.0475 344.311,55.6621 344.498,55.2871 L345.17,55.2871 L345.17,63.9121 Z" style="stroke:none;fill-rule:nonzero;fill:#000000;fill-opacity:1;"/>
        </g>
        <g id="Shape24">
            <desc shapeID="24" type="0" basicInfo-basicType="0" basicInfo-roundedRectRadius="12" basicInfo-polygonSides="6" basicInfo-starPoints="5" bounding="rect(-40.9922,-27.4961,81.9843,54.9921)" text="" font-familyName="" font-pixelSize="20" font-bold="0" font-underline="0" font-alignment="1" strokeStyle="0" markerStart="0" markerEnd="0" shadowEnabled="0" shadowOffsetX="0" shadowOffsetY="2" shadowBlur="4" shadowOpacity="160" blurEnabled="0" blurRadius="4" transform="matrix(1,0,0,1,275.496,37.4961)" pers-center="0,0" pers-size="0,0" pers-start="0,0" pers-end="0,0" locked="0" mesh="" flag=""/>
            <path id="shapePath24" d="M234.504,10 L316.488,10 L316.488,64.9921 L234.504,64.9921 L234.504,10 Z" style="stroke:none;fill-rule:nonzero;fill:#000000;fill-opacity:0;"/>
        </g>
        <g id="Shape25">
            <desc shapeID="25" type="0" basicInfo-basicType="0" basicInfo-roundedRectRadius="12" basicInfo-polygonSides="6" basicInfo-starPoints="5" bounding="rect(-6.75781,-4.92969,13.5156,9.85938)" text="" font-familyName="" font-pixelSize="20" font-bold="0" font-underline="0" font-alignment="1" strokeStyle="0" markerStart="0" markerEnd="0" shadowEnabled="0" shadowOffsetX="0" shadowOffsetY="2" shadowBlur="4" shadowOpacity="160" blurEnabled="0" blurRadius="4" transform="matrix(1,0,0,1,265.204,39.4864)" pers-center="0,0" pers-size="0,0" pers-start="0,0" pers-end="0,0" locked="0" mesh="" flag=""/>
            <path id="shapePath25" d="M261.462,44.4161 L258.447,34.5567 L260.165,34.5567 L261.728,40.2442 L262.322,42.3692 C262.342,42.265 262.509,41.5879 262.822,40.3379 L264.4,34.5567 L266.118,34.5567 L267.587,40.2754 L268.072,42.1661 L268.65,40.2598 L270.337,34.5567 L271.962,34.5567 L268.884,44.4161 L267.15,44.4161 L265.572,38.5098 L265.197,36.8379 L263.197,44.4161 L261.462,44.4161 Z" style="stroke:none;fill-rule:nonzero;fill:#000000;fill-opacity:1;"/>
        </g>
        <g id="Shape26">
            <desc shapeID="26" type="0" basicInfo-basicType="0" basicInfo-roundedRectRadius="12" basicInfo-polygonSides="6" basicInfo-starPoints="5" bounding="rect(-2.84375,-4.3125,5.6875,8.625)" text="" font-familyName="" font-pixelSize="20" font-bold="0" font-underline="0" font-alignment="1" strokeStyle="0" markerStart="0" markerEnd="0" shadowEnabled="0" shadowOffsetX="0" shadowOffsetY="2" shadowBlur="4" shadowOpacity="160" blurEnabled="0" blurRadius="4" transform="matrix(1,0,0,1,275.06,33.1036)" pers-center="0,0" pers-size="0,0" pers-start="0,0" pers-end="0,0" locked="0" mesh="" flag=""/>
            <path id="shapePath26" d="M277.904,36.4004 L277.904,37.4161 L272.216,37.4161 C272.216,37.1661 272.258,36.9213 272.341,36.6817 C272.487,36.2963 272.716,35.9161 273.029,35.5411 C273.352,35.1661 273.815,34.7338 274.419,34.2442 C275.357,33.4734 275.987,32.864 276.31,32.4161 C276.643,31.9682 276.81,31.5463 276.81,31.1504 C276.81,30.7338 276.659,30.3848 276.357,30.1036 C276.055,29.8119 275.664,29.6661 275.185,29.6661 C274.675,29.6661 274.268,29.8171 273.966,30.1192 C273.664,30.4213 273.508,30.8432 273.498,31.3848 L272.419,31.2754 C272.492,30.4629 272.768,29.8484 273.248,29.4317 C273.737,29.0046 274.393,28.7911 275.216,28.7911 C276.039,28.7911 276.69,29.0202 277.169,29.4786 C277.649,29.9369 277.888,30.5046 277.888,31.1817 C277.888,31.5254 277.815,31.864 277.669,32.1973 C277.534,32.5202 277.3,32.8692 276.966,33.2442 C276.643,33.6088 276.107,34.1088 275.357,34.7442 C274.722,35.2754 274.31,35.64 274.123,35.8379 C273.946,36.0254 273.8,36.2129 273.685,36.4004 L277.904,36.4004 Z" style="stroke:none;fill-rule:nonzero;fill:#000000;fill-opacity:1;"/>
        </g>
        <g id="Shape27">
            <desc shapeID="27" type="0" basicInfo-basicType="0" basicInfo-roundedRectRadius="12" basicInfo-polygonSides="6" basicInfo-starPoints="5" bounding="rect(-5.03665,-4.3125,10.0733,8.625)" text="" font-familyName="" font-pixelSize="20" font-bold="0" font-underline="0" font-alignment="1" strokeStyle="0" markerStart="0" markerEnd="0" shadowEnabled="0" shadowOffsetX="0" shadowOffsetY="2" shadowBlur="4" shadowOpacity="160" blurEnabled="0" blurRadius="4" transform="matrix(1,0,0,1,285.123,47.1036)" pers-center="0,0" pers-size="0,0" pers-start="0,0" pers-end="0,0" locked="0" mesh="" flag=""/>
            <path id="shapePath27" d="M283.243,51.4161 L282.196,51.4161 L282.196,44.6973 C281.935,44.9369 281.597,45.1817 281.18,45.4317 C280.774,45.6713 280.409,45.8484 280.087,45.9629 L280.087,44.9473 C280.67,44.6661 281.18,44.3327 281.618,43.9473 C282.066,43.5515 282.383,43.1661 282.571,42.7911 L283.243,42.7911 L283.243,51.4161 M290.16,51.4161 L289.113,51.4161 L289.113,44.6973 C288.853,44.9369 288.514,45.1817 288.097,45.4317 C287.691,45.6713 287.326,45.8484 287.004,45.9629 L287.004,44.9473 C287.587,44.6661 288.097,44.3327 288.535,43.9473 C288.983,43.5515 289.3,43.1661 289.488,42.7911 L290.16,42.7911 L290.16,51.4161 Z" style="stroke:none;fill-rule:nonzero;fill:#000000;fill-opacity:1;"/>
        </g>
        <g id="Shape28">
            <desc shapeID="28" type="0" basicInfo-basicType="0" basicInfo-roundedRectRadius="12" basicInfo-polygonSides="6" basicInfo-starPoints="5" bounding="rect(-31.4961,-32,62.9921,64)" text="" font-familyName="" font-pixelSize="20" font-bold="0" font-underline="0" font-alignment="1" strokeStyle="0" markerStart="0" markerEnd="0" shadowEnabled="0" shadowOffsetX="0" shadowOffsetY="2" shadowBlur="4" shadowOpacity="160" blurEnabled="0" blurRadius="4" transform="matrix(1,0,0,1,339.496,147)" pers-center="0,0" pers-size="0,0" pers-start="0,0" pers-end="0,0" locked="0" mesh="" flag=""/>
            <path id="shapePath28" d="M308,147 C308,129.327 322.101,115 339.496,115 C347.849,115 355.86,118.371 361.767,124.373 C367.674,130.374 370.992,138.513 370.992,147 C370.992,164.673 356.891,179 339.496,179 C322.101,179 308,164.673 308,147 Z" style="stroke:none;fill-rule:nonzero;fill:#cfe2f3;fill-opacity:1;"/>
        </g>
        <g id="Shape29">
            <desc shapeID="29" type="0" basicInfo-basicType="0" basicInfo-roundedRectRadius="12" basicInfo-polygonSides="6" basicInfo-starPoints="5" bounding="rect(-31.4961,-32,62.9921,64)" text="" font-familyName="" font-pixelSize="20" font-bold="0" font-underline="0" font-alignment="1" strokeStyle="0" markerStart="0" markerEnd="0" shadowEnabled="0" shadowOffsetX="0" shadowOffsetY="2" shadowBlur="4" shadowOpacity="160" blurEnabled="0" blurRadius="4" transform="matrix(1,0,0,1,339.496,147)" pers-center="0,0" pers-size="0,0" pers-start="0,0" pers-end="0,0" locked="0" mesh="" flag=""/>
            <path id="shapePath29" d="M308,147 C308,129.327 322.101,115 339.496,115 C347.849,115 355.86,118.371 361.767,124.373 C367.674,130.374 370.992,138.513 370.992,147 C370.992,164.673 356.891,179 339.496,179 C322.101,179 308,164.673 308,147 Z" style="stroke:#000000;stroke-opacity:1;stroke-width:1;stroke-linejoin:round;stroke-miterlimit:2;stroke-linecap:butt;fill:none;"/>
        </g>
        <g id="Shape30">
            <desc shapeID="30" type="0" basicInfo-basicType="0" basicInfo-roundedRectRadius="12" basicInfo-polygonSides="6" basicInfo-starPoints="5" bounding="rect(-40.9922,-30.9921,81.9843,61.9843)" text="" font-familyName="" font-pixelSize="20" font-bold="0" font-underline="0" font-alignment="1" strokeStyle="0" markerStart="0" markerEnd="0" shadowEnabled="0" shadowOffsetX="0" shadowOffsetY="2" shadowBlur="4" shadowOpacity="160" blurEnabled="0" blurRadius="4" transform="matrix(1,0,0,1,339.496,145.992)" pers-center="0,0" pers-size="0,0" pers-start="0,0" pers-end="0,0" locked="0" mesh="" flag=""/>
            <path id="shapePath30" d="M298.504,115 L380.488,115 L380.488,176.984 L298.504,176.984 L298.504,115 Z" style="stroke:none;fill-rule:nonzero;fill:#000000;fill-opacity:0;"/>
        </g>
        <g id="Shape31">
            <desc shapeID="31" type="0" basicInfo-basicType="0" basicInfo-roundedRectRadius="12" basicInfo-polygonSides="6" basicInfo-starPoints="5" bounding="rect(-4.50781,-6.92969,9.01562,13.8594)" text="" font-familyName="" font-pixelSize="20" font-bold="0" font-underline="0" font-alignment="1" strokeStyle="0" markerStart="0" markerEnd="0" shadowEnabled="0" shadowOffsetX="0" shadowOffsetY="2" shadowBlur="4" shadowOpacity="160" blurEnabled="0" blurRadius="4" transform="matrix(1,0,0,1,336.194,149.982)" pers-center="0,0" pers-size="0,0" pers-start="0,0" pers-end="0,0" locked="0" mesh="" flag=""/>
            <path id="shapePath31" d="M332.545,156.709 L332.373,155.146 C332.738,155.24 333.056,155.287 333.327,155.287 C333.691,155.287 333.983,155.225 334.202,155.1 C334.431,154.975 334.618,154.803 334.764,154.584 C334.868,154.417 335.035,154.001 335.264,153.334 C335.295,153.24 335.347,153.105 335.42,152.928 L331.686,143.053 L333.483,143.053 L335.53,148.771 C335.801,149.49 336.04,150.251 336.248,151.053 C336.436,150.282 336.665,149.532 336.936,148.803 L339.03,143.053 L340.702,143.053 L336.952,153.084 C336.556,154.167 336.243,154.912 336.014,155.318 C335.722,155.87 335.384,156.271 334.998,156.521 C334.613,156.782 334.155,156.912 333.623,156.912 C333.301,156.912 332.941,156.844 332.545,156.709 Z" style="stroke:none;fill-rule:nonzero;fill:#000000;fill-opacity:1;"/>
        </g>
        <g id="Shape32">
            <desc shapeID="32" type="0" basicInfo-basicType="0" basicInfo-roundedRectRadius="12" basicInfo-polygonSides="6" basicInfo-starPoints="5" bounding="rect(-2.84375,-4.3125,5.6875,8.625)" text="" font-familyName="" font-pixelSize="20" font-bold="0" font-underline="0" font-alignment="1" strokeStyle="0" markerStart="0" markerEnd="0" shadowEnabled="0" shadowOffsetX="0" shadowOffsetY="2" shadowBlur="4" shadowOpacity="160" blurEnabled="0" blurRadius="4" transform="matrix(1,0,0,1,343.905,155.6)" pers-center="0,0" pers-size="0,0" pers-start="0,0" pers-end="0,0" locked="0" mesh="" flag=""/>
            <path id="shapePath32" d="M346.748,158.896 L346.748,159.912 L341.061,159.912 C341.061,159.662 341.103,159.417 341.186,159.178 C341.332,158.792 341.561,158.412 341.873,158.037 C342.196,157.662 342.66,157.23 343.264,156.74 C344.202,155.969 344.832,155.36 345.155,154.912 C345.488,154.464 345.655,154.042 345.655,153.646 C345.655,153.23 345.504,152.881 345.202,152.6 C344.9,152.308 344.509,152.162 344.03,152.162 C343.519,152.162 343.113,152.313 342.811,152.615 C342.509,152.917 342.353,153.339 342.342,153.881 L341.264,153.771 C341.337,152.959 341.613,152.344 342.092,151.928 C342.582,151.501 343.238,151.287 344.061,151.287 C344.884,151.287 345.535,151.516 346.014,151.975 C346.493,152.433 346.733,153.001 346.733,153.678 C346.733,154.021 346.66,154.36 346.514,154.693 C346.379,155.016 346.144,155.365 345.811,155.74 C345.488,156.105 344.952,156.605 344.202,157.24 C343.566,157.771 343.155,158.136 342.967,158.334 C342.79,158.521 342.644,158.709 342.53,158.896 L346.748,158.896 Z" style="stroke:none;fill-rule:nonzero;fill:#000000;fill-opacity:1;"/>
        </g>
        <g id="Shape33">
            <desc shapeID="33" type="0" basicInfo-basicType="0" basicInfo-roundedRectRadius="12" basicInfo-polygonSides="6" basicInfo-starPoints="5" bounding="rect(-40.9922,-27.4961,81.9843,54.9921)" text="" font-familyName="" font-pixelSize="20" font-bold="0" font-underline="0" font-alignment="1" strokeStyle="0" markerStart="0" markerEnd="0" shadowEnabled="0" shadowOffsetX="0" shadowOffsetY="2" shadowBlur="4" shadowOpacity="160" blurEnabled="0" blurRadius="4" transform="matrix(1,0,0,1,275.496,92.4961)" pers-center="0,0" pers-size="0,0" pers-start="0,0" pers-end="0,0" locked="0" mesh="" flag=""/>
            <path id="shapePath33" d="M234.504,65 L316.488,65 L316.488,119.992 L234.504,119.992 L234.504,65 Z" style="stroke:none;fill-rule:nonzero;fill:#000000;fill-opacity:0;"/>
        </g>
        <g id="Shape34">
            <desc shapeID="34" type="0" basicInfo-basicType="0" basicInfo-roundedRectRadius="12" basicInfo-polygonSides="6" basicInfo-starPoints="5" bounding="rect(-6.75781,-4.92969,13.5156,9.85938)" text="" font-familyName="" font-pixelSize="20" font-bold="0" font-underline="0" font-alignment="1" strokeStyle="0" markerStart="0" markerEnd="0" shadowEnabled="0" shadowOffsetX="0" shadowOffsetY="2" shadowBlur="4" shadowOpacity="160" blurEnabled="0" blurRadius="4" transform="matrix(1,0,0,1,265.204,94.4864)" pers-center="0,0" pers-size="0,0" pers-start="0,0" pers-end="0,0" locked="0" mesh="" flag=""/>
            <path id="shapePath34" d="M261.462,99.4161 L258.447,89.5567 L260.165,89.5567 L261.728,95.2442 L262.322,97.3692 C262.342,97.265 262.509,96.5879 262.822,95.3379 L264.4,89.5567 L266.118,89.5567 L267.587,95.2754 L268.072,97.1661 L268.65,95.2598 L270.337,89.5567 L271.962,89.5567 L268.884,99.4161 L267.15,99.4161 L265.572,93.5098 L265.197,91.8379 L263.197,99.4161 L261.462,99.4161 Z" style="stroke:none;fill-rule:nonzero;fill:#000000;fill-opacity:1;"/>
        </g>
        <g id="Shape35">
            <desc shapeID="35" type="0" basicInfo-basicType="0" basicInfo-roundedRectRadius="12" basicInfo-polygonSides="6" basicInfo-starPoints="5" bounding="rect(-2.84375,-4.3125,5.6875,8.625)" text="" font-familyName="" font-pixelSize="20" font-bold="0" font-underline="0" font-alignment="1" strokeStyle="0" markerStart="0" markerEnd="0" shadowEnabled="0" shadowOffsetX="0" shadowOffsetY="2" shadowBlur="4" shadowOpacity="160" blurEnabled="0" blurRadius="4" transform="matrix(1,0,0,1,275.06,88.1036)" pers-center="0,0" pers-size="0,0" pers-start="0,0" pers-end="0,0" locked="0" mesh="" flag=""/>
            <path id="shapePath35" d="M277.904,91.4004 L277.904,92.4161 L272.216,92.4161 C272.216,92.1661 272.258,91.9213 272.341,91.6817 C272.487,91.2963 272.716,90.9161 273.029,90.5411 C273.352,90.1661 273.815,89.7338 274.419,89.2442 C275.357,88.4734 275.987,87.864 276.31,87.4161 C276.643,86.9682 276.81,86.5463 276.81,86.1504 C276.81,85.7338 276.659,85.3848 276.357,85.1036 C276.055,84.8119 275.664,84.6661 275.185,84.6661 C274.675,84.6661 274.268,84.8171 273.966,85.1192 C273.664,85.4213 273.508,85.8432 273.498,86.3848 L272.419,86.2754 C272.492,85.4629 272.768,84.8484 273.248,84.4317 C273.737,84.0046 274.393,83.7911 275.216,83.7911 C276.039,83.7911 276.69,84.0202 277.169,84.4786 C277.649,84.9369 277.888,85.5046 277.888,86.1817 C277.888,86.5254 277.815,86.864 277.669,87.1973 C277.534,87.5202 277.3,87.8692 276.966,88.2442 C276.643,88.6088 276.107,89.1088 275.357,89.7442 C274.722,90.2754 274.31,90.64 274.123,90.8379 C273.946,91.0254 273.8,91.2129 273.685,91.4004 L277.904,91.4004 Z" style="stroke:none;fill-rule:nonzero;fill:#000000;fill-opacity:1;"/>
        </g>
        <g id="Shape36">
            <desc shapeID="36" type="0" basicInfo-basicType="0" basicInfo-roundedRectRadius="12" basicInfo-polygonSides="6" basicInfo-starPoints="5" bounding="rect(-5.51321,-4.3125,11.0264,8.625)" text="" font-familyName="" font-pixelSize="20" font-bold="0" font-underline="0" font-alignment="1" strokeStyle="0" markerStart="0" markerEnd="0" shadowEnabled="0" shadowOffsetX="0" shadowOffsetY="2" shadowBlur="4" shadowOpacity="160" blurEnabled="0" blurRadius="4" transform="matrix(1,0,0,1,284.647,102.104)" pers-center="0,0" pers-size="0,0" pers-start="0,0" pers-end="0,0" locked="0" mesh="" flag=""/>
            <path id="shapePath36" d="M284.821,105.4 L284.821,106.416 L279.133,106.416 C279.133,106.166 279.175,105.921 279.258,105.682 C279.404,105.296 279.633,104.916 279.946,104.541 C280.269,104.166 280.732,103.734 281.337,103.244 C282.274,102.473 282.904,101.864 283.227,101.416 C283.56,100.968 283.727,100.546 283.727,100.15 C283.727,99.7338 283.576,99.3848 283.274,99.1036 C282.972,98.8119 282.581,98.6661 282.102,98.6661 C281.592,98.6661 281.185,98.8171 280.883,99.1192 C280.581,99.4213 280.425,99.8432 280.415,100.385 L279.337,100.275 C279.409,99.4629 279.685,98.8484 280.165,98.4317 C280.654,98.0046 281.31,97.7911 282.133,97.7911 C282.956,97.7911 283.607,98.0202 284.087,98.4786 C284.566,98.9369 284.805,99.5046 284.805,100.182 C284.805,100.525 284.732,100.864 284.587,101.197 C284.451,101.52 284.217,101.869 283.883,102.244 C283.56,102.609 283.024,103.109 282.274,103.744 C281.639,104.275 281.227,104.64 281.04,104.838 C280.863,105.025 280.717,105.213 280.602,105.4 L284.821,105.4 M290.16,106.416 L289.113,106.416 L289.113,99.6973 C288.853,99.9369 288.514,100.182 288.097,100.432 C287.691,100.671 287.327,100.848 287.004,100.963 L287.004,99.9473 C287.587,99.6661 288.097,99.3327 288.535,98.9473 C288.983,98.5515 289.3,98.1661 289.488,97.7911 L290.16,97.7911 L290.16,106.416 Z" style="stroke:none;fill-rule:nonzero;fill:#000000;fill-opacity:1;"/>
        </g>
        <g id="Shape37">
            <desc shapeID="37" type="0" basicInfo-basicType="0" basicInfo-roundedRectRadius="12" basicInfo-polygonSides="6" basicInfo-starPoints="5" bounding="rect(-39.3543,-33.8749,78.7087,67.7499)" text="" font-familyName="" font-pixelSize="20" font-bold="0" font-underline="0" font-alignment="1" strokeStyle="0" markerStart="0" markerEnd="0" shadowEnabled="0" shadowOffsetX="0" shadowOffsetY="2" shadowBlur="4" shadowOpacity="160" blurEnabled="0" blurRadius="4" transform="matrix(1,0,0,1,266.562,109.225)" pers-center="0,0" pers-size="0,0" pers-start="0,0" pers-end="0,0" locked="0" mesh="" flag=""/>
            <path id="shapePath37" d="M305.916,143.1 L229.855,77.9956 L232.122,75.3499 L227.207,75.7297 L227.587,80.6412 L229.855,77.9956 L305.916,143.1 Z" style="stroke:none;fill-rule:nonzero;fill:#cfe2f3;fill-opacity:1;"/>
        </g>
        <g id="Shape38">
            <desc shapeID="38" type="0" basicInfo-basicType="0" basicInfo-roundedRectRadius="12" basicInfo-polygonSides="6" basicInfo-starPoints="5" bounding="rect(-39.3543,-33.8749,78.7087,67.7499)" text="" font-familyName="" font-pixelSize="20" font-bold="0" font-underline="0" font-alignment="1" strokeStyle="0" markerStart="0" markerEnd="0" shadowEnabled="0" shadowOffsetX="0" shadowOffsetY="2" shadowBlur="4" shadowOpacity="160" blurEnabled="0" blurRadius="4" transform="matrix(1,0,0,1,266.562,109.225)" pers-center="0,0" pers-size="0,0" pers-start="0,0" pers-end="0,0" locked="0" mesh="" flag=""/>
            <path id="shapePath38" d="M305.916,143.1 L229.855,77.9956 L232.122,75.3499 L227.207,75.7297 L227.587,80.6412 L229.855,77.9956 L305.916,143.1 Z" style="stroke:#000000;stroke-opacity:1;stroke-width:1;stroke-linejoin:round;stroke-miterlimit:2;stroke-linecap:butt;fill:none;"/>
        </g>
    </g>
</svg>
