<svg class="logo__svg" viewBox="0 0 630 322" xmlns="http://www.w3.org/2000/svg" data-reactid="33"><title data-reactid="34">abof logo</title><defs data-reactid="35"><linearGradient x1="-224.517%" y1="1.595%" x2="170.565%" y2="71.259%" id="a" data-reactid="36"><stop stop-color="#BE0E72" offset="7.27%" data-reactid="37"></stop><stop stop-color="#B71774" offset="15.99%" data-reactid="38"></stop><stop stop-color="#A8257B" offset="32.55%" data-reactid="39"></stop><stop stop-color="#8C3586" offset="55.23%" data-reactid="40"></stop><stop stop-color="#5A4495" offset="82.87%" data-reactid="41"></stop><stop stop-color="#3F499C" offset="92.73%" data-reactid="42"></stop></linearGradient><linearGradient x1="-116.855%" y1="31.978%" x2="279.026%" y2="79.636%" id="b" data-reactid="43"><stop stop-color="#BE0E72" offset="7.27%" data-reactid="44"></stop><stop stop-color="#B71774" offset="15.99%" data-reactid="45"></stop><stop stop-color="#A8257B" offset="32.55%" data-reactid="46"></stop><stop stop-color="#8C3586" offset="55.23%" data-reactid="47"></stop><stop stop-color="#5A4495" offset="82.87%" data-reactid="48"></stop><stop stop-color="#3F499C" offset="92.73%" data-reactid="49"></stop></linearGradient><linearGradient x1="-653.698%" y1="6.316%" x2="137.958%" y2="55.46%" id="c" data-reactid="50"><stop stop-color="#BE0E72" offset="7.27%" data-reactid="51"></stop><stop stop-color="#B71774" offset="15.99%" data-reactid="52"></stop><stop stop-color="#A8257B" offset="32.55%" data-reactid="53"></stop><stop stop-color="#8C3586" offset="55.23%" data-reactid="54"></stop><stop stop-color="#5A4495" offset="82.87%" data-reactid="55"></stop><stop stop-color="#3F499C" offset="92.73%" data-reactid="56"></stop></linearGradient><linearGradient x1="-356.2%" y1="3204.35%" x2="10033.4%" y2="1380.934%" id="d" data-reactid="57"><stop stop-color="#BE0E72" offset="7.3%" data-reactid="58"></stop><stop stop-color="#B71774" offset="16%" data-reactid="59"></stop><stop stop-color="#A8257B" offset="32.6%" data-reactid="60"></stop><stop stop-color="#8C3586" offset="55.2%" data-reactid="61"></stop><stop stop-color="#5A4495" offset="82.9%" data-reactid="62"></stop><stop stop-color="#3F499C" offset="92.7%" data-reactid="63"></stop></linearGradient></defs><g fill="none" fill-rule="evenodd" data-reactid="64"><path d="M448.193 77.594c-46.403 0-84.023 37.617-84.023 84.02 0 46.405 37.62 84.022 84.023 84.022 46.402 0 84.02-37.617 84.02-84.02 0-46.405-37.618-84.022-84.02-84.022zm0 133.814c-27.5 0-49.794-22.293-49.794-49.793s22.293-49.793 49.793-49.793 49.793 22.293 49.793 49.793-22.294 49.793-49.793 49.793z" fill="url(#a)" data-reactid="65"></path><path d="M266.84 77.594c-9.485 0-18.602 1.57-27.105 4.467l8.468 33.367a49.654 49.654 0 0 1 18.637-3.604c27.5 0 49.793 22.293 49.793 49.793S294.34 211.41 266.84 211.41c-26.906 0-48.83-21.34-49.763-48.02V0l-33.92 33.92.12 136.543c4.422 42.245 40.148 75.174 83.564 75.174 46.403 0 84.022-37.617 84.022-84.02 0-46.405-37.62-84.023-84.023-84.023z" fill="url(#b)" data-reactid="66"></path><path d="M545.208 82.684v163.4h34.255v-133.87h39.373v-34.65h-37.01s7.873-31.89 47.246-35.04V7.873s-73.628 0-83.864 74.81z" fill="url(#c)" data-reactid="67"></path><path d="M167.706 245.28l-.12-92.938c-4.344-40.942-37.714-72.705-78.82-75.027-41.106-2.322-77.84 25.482-86.77 65.673a83.786 83.786 0 0 0 0 36.37 84.1 84.1 0 0 0 109.13 61.376l-8.457-32.418a49.26 49.26 0 0 1-18.638 2.653c-27.27-.002-49.466-21.938-49.79-49.206-.323-27.27 21.347-49.724 48.61-50.372 27.263-.648 49.975 20.754 50.946 48.007v85.72l33.908.16z" fill="url(#d)" data-reactid="68"></path><path d="M10.88 321.545c4.504 0 7.425-2.08 9.207-4.357V321h3.762v-15.642c0-3.267-.892-5.742-2.674-7.524-1.83-1.832-4.653-2.822-8.266-2.822-3.762 0-6.485.892-9.306 2.178l1.138 3.12c2.376-1.09 4.752-1.832 7.772-1.832 4.8 0 7.573 2.375 7.573 6.93v.79c-2.277-.642-4.554-1.087-7.82-1.087-6.485 0-10.94 2.87-10.94 8.366v.1c0 5.246 4.752 7.97 9.553 7.97zm.742-3.07c-3.464 0-6.434-1.88-6.434-5.098v-.1c0-3.068 2.722-5.147 7.474-5.147 3.118 0 5.594.545 7.475 1.09v2.375c0 4.06-3.812 6.88-8.514 6.88zM43.514 321h3.81l.002-36.135h-3.812V321zm24.268 0h3.812v-36.135h-3.81L67.78 321zm57.645.545c4.505 0 7.425-2.08 9.207-4.357V321h3.763v-15.642c0-3.267-.89-5.742-2.673-7.524-1.832-1.832-4.653-2.822-8.267-2.822-3.762 0-6.484.892-9.306 2.178l1.14 3.12c2.375-1.09 4.75-1.832 7.77-1.832 4.803 0 7.575 2.375 7.575 6.93v.79c-2.278-.642-4.554-1.087-7.82-1.087-6.486 0-10.94 2.87-10.94 8.366v.1c0 5.246 4.75 7.97 9.552 7.97zm.743-3.07c-3.465 0-6.435-1.88-6.435-5.098v-.1c0-3.068 2.722-5.147 7.475-5.147 3.118 0 5.593.545 7.474 1.09v2.375c0 4.06-3.81 6.88-8.514 6.88zm45.157 3.07c6.188 0 12.227-4.95 12.227-13.316v-.1c0-8.415-6.09-13.266-12.227-13.266-4.702 0-7.72 2.624-9.8 5.693v-15.692h-3.812V321h3.81v-4.9c1.98 2.87 5.05 5.445 9.802 5.445zm-.692-3.416c-4.752 0-9.257-3.96-9.257-9.9v-.1c0-5.84 4.505-9.85 9.257-9.85 4.85 0 9.008 3.86 9.008 9.9v.1c0 6.186-4.06 9.85-9.008 9.85zm42.88 3.464c7.722 0 13.415-6.138 13.415-13.365v-.1c0-7.227-5.644-13.266-13.316-13.266-7.722 0-13.365 6.138-13.365 13.365v.098c0 7.227 5.593 13.266 13.265 13.266zm.1-3.416c-5.397 0-9.456-4.454-9.456-9.95v-.098c0-5.395 3.81-9.9 9.355-9.9 5.396 0 9.504 4.505 9.504 10v.098c0 5.396-3.862 9.85-9.406 9.85zm40.85 3.367c4.405 0 7.03-2.228 8.76-5V321h3.763v-25.59l-3.762-.002v14.652c0 4.802-3.316 8.02-7.672 8.02-4.505 0-7.078-2.97-7.078-7.722v-14.95h-3.812v15.89c0 6.09 3.614 10.247 9.8 10.247zm40.9-.1c1.832 0 3.267-.395 4.604-1.09v-3.266c-1.338.643-2.427.89-3.714.89-2.573 0-4.306-1.138-4.306-4.257v-14.95h8.118v-3.365h-8.118v-7.72h-3.81v7.72h-3.565v3.366h3.564v15.445c0 5.196 3.117 7.225 7.226 7.225zm50.22-.445h3.812v-22.226h8.07v-3.267h-8.12v-2.08c0-3.662 1.486-5.444 4.456-5.444 1.286 0 2.326.248 3.712.644v-3.317c-1.238-.445-2.425-.643-4.207-.643-2.327 0-4.208.693-5.495 1.98-1.435 1.435-2.227 3.663-2.227 6.584v2.228h-3.515v3.316h3.516V321zm34.862.545c4.505 0 7.425-2.08 9.207-4.357V321h3.762v-15.642c0-3.267-.89-5.742-2.673-7.524-1.832-1.832-4.653-2.822-8.267-2.822-3.762 0-6.484.892-9.305 2.178l1.14 3.12c2.375-1.09 4.75-1.832 7.77-1.832 4.802 0 7.574 2.375 7.574 6.93v.79c-2.277-.642-4.554-1.087-7.82-1.087-6.486 0-10.94 2.87-10.94 8.366v.1c0 5.246 4.752 7.97 9.553 7.97zm.743-3.07c-3.466 0-6.435-1.88-6.435-5.098v-.1c0-3.068 2.722-5.147 7.474-5.147 3.118 0 5.592.545 7.474 1.09v2.375c0 4.06-3.812 6.88-8.514 6.88zm40.01 3.02c5.098 0 9.107-2.822 9.107-7.673v-.1c0-4.602-4.257-6.136-8.217-7.325-3.415-1.04-6.583-1.98-6.583-4.405v-.1c0-2.127 1.93-3.712 4.95-3.712 2.475 0 5.197.94 7.573 2.476l1.733-2.872c-2.624-1.732-6.09-2.82-9.207-2.82-5.05 0-8.712 2.92-8.712 7.325v.098c0 4.703 4.454 6.09 8.464 7.227 3.366.94 6.385 1.93 6.385 4.505v.1c0 2.473-2.227 4.057-5.296 4.057-3.02 0-6.09-1.188-8.86-3.267l-1.93 2.723c2.87 2.327 6.93 3.762 10.592 3.762zm27.435-.495h3.812v-14.652c0-4.802 3.267-8.02 7.673-8.02 4.504 0 7.078 2.97 7.078 7.723V321h3.812v-15.89c0-6.088-3.614-10.246-9.8-10.246-4.407 0-7.08 2.228-8.763 5v-15h-3.812V321zm41.84-31.185h4.357v-4.207h-4.356v4.207zm.25 31.185h3.81v-25.59l-3.81-.002V321zm35.603.594c7.722 0 13.414-6.138 13.414-13.365v-.1c0-7.227-5.642-13.266-13.315-13.266-7.722 0-13.365 6.138-13.365 13.365v.098c0 7.227 5.593 13.266 13.266 13.266zm.1-3.416c-5.396 0-9.456-4.454-9.456-9.95v-.098c0-5.395 3.812-9.9 9.356-9.9 5.395 0 9.504 4.505 9.504 10v.098c0 5.396-3.86 9.85-9.405 9.85zM557.872 321h3.81v-14.652c0-4.802 3.27-8.02 7.674-8.02 4.505 0 7.08 2.97 7.08 7.723V321h3.81v-15.89c0-6.088-3.613-10.246-9.8-10.246-4.407 0-7.08 2.228-8.763 5v-4.455l-3.81-.002V321z" fill="#024397" class="logo__tagline" data-reactid="69"></path></g></svg>
