<?xml version="1.0" encoding="utf-8"?>
<!-- Generator: Adobe Illustrator 18.0.0, SVG Export Plug-In . SVG Version: 6.00 Build 0)  -->
<!DOCTYPE svg PUBLIC "-//W3C//DTD SVG 1.1//EN" "http://www.w3.org/Graphics/SVG/1.1/DTD/svg11.dtd">
<svg version="1.1" id="Layer_1" xmlns="http://www.w3.org/2000/svg" xmlns:xlink="http://www.w3.org/1999/xlink" x="0px" y="0px"
	 viewBox="0 0 339.7 101.8" enable-background="new 0 0 339.7 101.8" xml:space="preserve">
<g>
	<g>
		<path fill="#00A264" d="M89.8,65.3V5.5C89.8,0.3,79,0.4,79,0.4L45,0c0,0,0,0,0,0l-0.1,0l-0.1,0c0,0,0,0,0,0l-34,0.4
			c0,0-10.8-0.1-10.9,5.1v59.8c0,0-0.5,15.9,10,22.4c10.4,6.5,28.9,12.4,28.9,12.4s4.1,1.4,6,1.6c0,0,0,0,0,0c0,0,0,0,0.1,0
			c0,0,0,0,0.1,0c0,0,0,0,0,0c1.9-0.2,6-1.6,6-1.6s18.5-5.9,28.9-12.4C90.3,81.2,89.8,65.3,89.8,65.3z"/>
		<path fill="#FFFFFF" d="M28.6,60.9c5.3,5.8,10.9,8.8,16.9,8.8c1.3,0,2.5-0.1,3.7-0.4c1.1-0.3,2.1-0.7,2.9-1.3
			c0.8-0.6,1.5-1.3,1.9-2.2c0.5-0.9,0.7-2,0.7-3.2c0-0.9-0.2-1.7-0.6-2.4c-0.4-0.7-0.9-1.3-1.5-1.9c-0.6-0.5-1.4-1-2.1-1.4
			c-0.8-0.4-1.6-0.8-2.4-1c-1.5-0.6-2.9-1.1-4.4-1.6s-2.9-1-4.4-1.6c-0.8-0.3-1.8-0.7-3-1.1c-1.2-0.4-2.4-1-3.6-1.7
			c-1.2-0.7-2.5-1.4-3.7-2.3c-1.2-0.9-2.3-2-3.3-3.2c-1-1.2-1.8-2.7-2.4-4.2c-0.6-1.6-0.9-3.4-0.9-5.5c0-2.6,0.6-4.8,1.9-6.7
			c1.2-1.9,2.9-3.5,5-4.8c2.1-1.3,4.4-2.3,7-2.9c2.6-0.7,5.3-1,8.1-1c4.4,0,8.4,0.5,12,1.5c3.6,1,6.9,2.8,9.9,5.2l-6.3,9.7
			c-1.1-1.1-2.2-2.1-3.2-3c-1.1-0.9-2.2-1.6-3.3-2.2c-1.2-0.6-2.5-1.1-3.8-1.4c-1.4-0.3-3-0.5-4.8-0.5c-1.5,0-2.8,0.2-3.8,0.5
			c-1.1,0.4-1.9,0.8-2.6,1.4s-1.2,1.3-1.5,2.1c-0.3,0.8-0.5,1.6-0.5,2.5c0,1,0.2,1.8,0.7,2.5c0.5,0.7,1.1,1.3,1.8,1.8
			c0.7,0.5,1.6,1,2.5,1.3c0.9,0.4,1.9,0.7,2.8,1c1.5,0.5,3,1.1,4.5,1.6c1.5,0.5,3,1,4.5,1.6c0.7,0.3,1.7,0.6,2.7,1
			c1.1,0.4,2.2,0.9,3.3,1.5c1.1,0.6,2.3,1.3,3.4,2.2s2.1,1.9,3,3.2c0.9,1.2,1.6,2.7,2.2,4.3c0.6,1.6,0.8,3.5,0.8,5.6
			c0,2.7-0.7,5-2,7.1c-1.3,2-3.1,3.8-5.2,5.1c-2.2,1.4-4.6,2.4-7.3,3.1c-2.7,0.7-5.6,1.1-8.4,1.1c-2.6,0-5-0.1-7.3-0.4
			c-2.3-0.3-4.4-0.8-6.5-1.4c-2-0.7-4-1.6-5.9-2.8c-1.9-1.2-3.6-2.6-5.2-4.4L28.6,60.9z"/>
	</g>
	<g>
		<path fill="#00A264" d="M123.6,69.2c4,4.4,8.2,6.6,12.7,6.6c1,0,1.9-0.1,2.8-0.3c0.9-0.2,1.6-0.5,2.2-0.9c0.6-0.4,1.1-1,1.5-1.6
			c0.4-0.7,0.5-1.5,0.5-2.4c0-0.7-0.1-1.3-0.4-1.8c-0.3-0.5-0.7-1-1.2-1.4c-0.5-0.4-1-0.8-1.6-1.1c-0.6-0.3-1.2-0.6-1.8-0.8
			c-1.1-0.5-2.2-0.9-3.3-1.2c-1.1-0.4-2.2-0.8-3.3-1.2c-0.6-0.2-1.4-0.5-2.2-0.8c-0.9-0.3-1.8-0.7-2.7-1.2c-0.9-0.5-1.9-1.1-2.8-1.7
			c-0.9-0.7-1.7-1.5-2.5-2.4c-0.7-0.9-1.3-2-1.8-3.2c-0.5-1.2-0.7-2.6-0.7-4.1c0-1.9,0.5-3.6,1.4-5.1c0.9-1.4,2.2-2.7,3.7-3.6
			c1.6-1,3.3-1.7,5.3-2.2c2-0.5,4-0.7,6.1-0.7c3.3,0,6.3,0.4,9,1.2c2.7,0.8,5.2,2.1,7.4,3.9l-4.7,7.3c-0.8-0.8-1.6-1.6-2.4-2.2
			c-0.8-0.7-1.6-1.2-2.5-1.7c-0.9-0.5-1.8-0.8-2.9-1.1c-1-0.2-2.2-0.4-3.6-0.4c-1.1,0-2.1,0.1-2.9,0.4c-0.8,0.3-1.5,0.6-2,1.1
			s-0.9,1-1.1,1.6c-0.2,0.6-0.4,1.2-0.4,1.8c0,0.7,0.2,1.3,0.5,1.9c0.3,0.5,0.8,1,1.3,1.4c0.5,0.4,1.2,0.7,1.9,1
			c0.7,0.3,1.4,0.5,2.1,0.8c1.1,0.4,2.3,0.8,3.4,1.2c1.1,0.4,2.3,0.8,3.4,1.2c0.6,0.2,1.2,0.5,2,0.8c0.8,0.3,1.6,0.7,2.5,1.1
			c0.9,0.5,1.7,1,2.5,1.7s1.6,1.4,2.3,2.4c0.7,0.9,1.2,2,1.6,3.2c0.4,1.2,0.6,2.6,0.6,4.2c0,2-0.5,3.8-1.5,5.3
			c-1,1.5-2.3,2.8-3.9,3.9c-1.6,1-3.5,1.8-5.5,2.3c-2.1,0.5-4.2,0.8-6.3,0.8c-1.9,0-3.7-0.1-5.5-0.3c-1.7-0.2-3.3-0.6-4.9-1.1
			c-1.5-0.5-3-1.2-4.4-2.1c-1.4-0.9-2.7-2-3.9-3.3L123.6,69.2z"/>
		<path fill="#00A264" d="M158.5,19H169v52.4c0,1.4,0.2,2.3,0.7,2.9c0.4,0.6,1,0.8,1.8,0.8c0.9,0,1.6-0.1,2.2-0.4
			c0.6-0.2,1.3-0.5,2.1-0.8l1.8,5.4c-0.7,0.5-1.4,0.9-2.2,1.3c-0.8,0.4-1.6,0.8-2.5,1.1c-0.9,0.3-1.8,0.6-2.7,0.7
			c-0.9,0.2-1.8,0.3-2.7,0.3c-1.2,0-2.3-0.1-3.3-0.4c-1.1-0.2-2-0.7-2.8-1.4c-0.8-0.7-1.5-1.6-2-2.8c-0.5-1.2-0.8-2.8-0.8-4.7V19z"
			/>
		<path fill="#00A264" d="M218.3,74.7c-1.7,1.8-3.3,3.2-4.8,4.3c-1.5,1.1-3.1,1.9-4.6,2.5c-1.5,0.6-3.1,1-4.7,1.1
			c-1.6,0.2-3.2,0.3-4.9,0.3c-3.7,0-6.9-0.6-9.5-1.9c-2.6-1.3-4.8-3-6.5-5.1c-1.7-2.1-2.9-4.6-3.7-7.4c-0.8-2.8-1.2-5.7-1.2-8.7
			c0-2.9,0.4-5.6,1.2-8.3c0.8-2.6,2.1-5,3.7-7c1.7-2,3.8-3.6,6.3-4.8c2.5-1.2,5.5-1.8,8.9-1.8c3,0,5.7,0.4,8,1.2
			c2.3,0.8,4.2,2,5.8,3.6c1.5,1.6,2.7,3.4,3.5,5.6c0.8,2.2,1.2,4.7,1.2,7.4c0,1,0,2.1-0.1,3.2c-0.1,1.1-0.2,2.3-0.4,3.5h-27.1
			c0,1.3,0.2,2.6,0.7,4.1c0.5,1.5,1.1,2.9,2,4.2c0.9,1.3,1.9,2.4,3.2,3.3c1.3,0.9,2.8,1.3,4.4,1.3c1.4,0,2.7-0.1,3.8-0.3
			c1.1-0.2,2.1-0.6,3-1c0.9-0.5,1.8-1.1,2.6-1.9c0.8-0.8,1.7-1.8,2.7-2.9L218.3,74.7z M198.1,45.7c-1.7,0-3.1,0.3-4.2,0.9
			c-1.1,0.6-2,1.4-2.6,2.3c-0.6,1-1.1,2.1-1.4,3.3c-0.3,1.2-0.4,2.5-0.4,3.8h16.6c0-1.1-0.1-2.3-0.2-3.5c-0.2-1.2-0.5-2.3-1.1-3.3
			c-0.6-1-1.4-1.8-2.4-2.5C201.3,46,199.9,45.7,198.1,45.7z"/>
		<path fill="#00A264" d="M263.3,74.7c-1.7,1.8-3.3,3.2-4.8,4.3c-1.5,1.1-3.1,1.9-4.6,2.5c-1.5,0.6-3.1,1-4.7,1.1
			c-1.6,0.2-3.2,0.3-4.9,0.3c-3.7,0-6.9-0.6-9.5-1.9c-2.6-1.3-4.8-3-6.5-5.1c-1.7-2.1-2.9-4.6-3.7-7.4c-0.8-2.8-1.2-5.7-1.2-8.7
			c0-2.9,0.4-5.6,1.2-8.3c0.8-2.6,2.1-5,3.7-7c1.7-2,3.8-3.6,6.3-4.8c2.5-1.2,5.5-1.8,8.9-1.8c3,0,5.7,0.4,8,1.2
			c2.3,0.8,4.2,2,5.8,3.6c1.5,1.6,2.7,3.4,3.5,5.6c0.8,2.2,1.2,4.7,1.2,7.4c0,1,0,2.1-0.1,3.2c-0.1,1.1-0.2,2.3-0.4,3.5h-27.1
			c0,1.3,0.2,2.6,0.7,4.1c0.5,1.5,1.1,2.9,2,4.2c0.9,1.3,1.9,2.4,3.2,3.3c1.3,0.9,2.8,1.3,4.4,1.3c1.4,0,2.7-0.1,3.8-0.3
			c1.1-0.2,2.1-0.6,3-1c0.9-0.5,1.8-1.1,2.6-1.9c0.8-0.8,1.7-1.8,2.7-2.9L263.3,74.7z M243,45.7c-1.7,0-3.1,0.3-4.2,0.9
			c-1.1,0.6-2,1.4-2.6,2.3c-0.6,1-1.1,2.1-1.4,3.3c-0.3,1.2-0.4,2.5-0.4,3.8h16.6c0-1.1-0.1-2.3-0.2-3.5c-0.2-1.2-0.5-2.3-1.1-3.3
			c-0.6-1-1.4-1.8-2.4-2.5C246.3,46,244.8,45.7,243,45.7z"/>
		<path fill="#00A264" d="M279.3,54.6l14.2-16h13l-19.7,19.3l21,24h-12.5l-16-18.7v18.7h-10.4v-63h10.4V54.6z"/>
		<path fill="#00A264" d="M320.6,38.6c0.6,2.8,1,5.7,1.2,8.7c0.5-1.2,1.2-2.3,2.2-3.5c1-1.1,2-2.1,3.2-3c1.2-0.9,2.4-1.6,3.7-2.1
			c1.3-0.5,2.5-0.8,3.7-0.8c1.5,0,2.6,0.1,3.3,0.3c0.7,0.2,1.3,0.4,1.7,0.6l-2.2,9.4c-0.9-0.4-1.7-0.7-2.4-0.8
			c-0.7-0.1-1.5-0.2-2.2-0.2c-2.5,0-4.6,0.6-6.4,1.8c-1.8,1.2-3.2,2.7-4.4,4.7l0.1,28.4h-10.5v-36c0-0.5,0-1,0-1.7
			c0-0.7,0-1.4,0-2.1c0-0.7,0-1.4-0.1-2c0-0.6-0.1-1.1-0.1-1.4H320.6z"/>
	</g>
</g>
</svg>
